<svg width="17" height="13" viewBox="0 0 17 13" fill="none" xmlns="http://www.w3.org/2000/svg">
<path d="M13.0004 5.25684H12.1604C11.911 4.29083 11.3956 3.41416 10.6728 2.72643C9.95006 2.0387 9.04887 1.5675 8.07168 1.36635C7.09448 1.16521 6.08046 1.2422 5.14483 1.58856C4.20921 1.93493 3.38949 2.53679 2.77883 3.32576C2.16818 4.11472 1.79106 5.05915 1.69034 6.05174C1.58962 7.04432 1.76933 8.04526 2.20905 8.94081C2.64877 9.83636 3.33088 10.5906 4.17785 11.1179C5.02483 11.6451 6.00272 11.9242 7.0004 11.9235H13.0004C13.8845 11.9235 14.7323 11.5723 15.3574 10.9472C15.9825 10.3221 16.3337 9.47422 16.3337 8.59017C16.3337 7.70611 15.9825 6.85827 15.3574 6.23315C14.7323 5.60803 13.8845 5.25684 13.0004 5.25684Z" stroke="#A1A1AA" stroke-width="1.33333" stroke-linecap="round" stroke-linejoin="round"/>
</svg>
