<svg width="137" height="137" viewBox="0 0 137 137" fill="none" xmlns="http://www.w3.org/2000/svg">
<g clip-path="url(#clip0_1507_14239)">
<path fill-rule="evenodd" clip-rule="evenodd" d="M48.3253 27.9006C51.7771 21.922 59.422 19.8735 65.4006 23.3253L108.702 48.3253C114.681 51.7772 116.729 59.422 113.277 65.4006L88.2772 108.702C84.8253 114.681 77.1807 116.729 71.2019 113.277L27.9006 88.2772C21.922 84.8255 19.8734 77.1807 23.3253 71.2019L48.3253 27.9006ZM87.2456 79.2388C86.8312 79.9565 86.1486 80.4804 85.348 80.6946L72.5415 84.1261C70.8744 84.5728 69.1611 83.5836 68.7144 81.9165C68.2677 80.2494 69.2569 78.5361 70.924 78.0894L80.7118 75.4665L78.0894 65.6785C77.6426 64.0116 78.632 62.298 80.2991 61.8513C81.9662 61.4047 83.6794 62.3938 84.1262 64.0609L87.5576 76.8675C87.7724 77.668 87.6599 78.521 87.2456 79.2388ZM51.2544 55.9079C50.454 56.1222 49.7713 56.646 49.357 57.3638C48.9426 58.0815 48.8302 58.9346 49.0448 59.735L52.4763 72.5415C52.923 74.2086 54.6366 75.1979 56.3035 74.7511C57.9707 74.3044 58.9598 72.5911 58.5131 70.924L55.8906 61.136L65.6785 58.5131C67.3456 58.0666 68.3349 56.353 67.8882 54.6859C67.4416 53.0189 65.728 52.0296 64.061 52.4763L51.2544 55.9079Z" fill="url(#paint0_linear_1507_14239)"/>
</g>
<defs>
<linearGradient id="paint0_linear_1507_14239" x1="54.5753" y1="17.0753" x2="98.7837" y2="129.279" gradientUnits="userSpaceOnUse">
<stop stop-color="#C1D3FF" stop-opacity="0.13"/>
<stop offset="1" stop-color="#B5C9FF"/>
</linearGradient>
<clipPath id="clip0_1507_14239">
<rect width="100" height="100" fill="white" transform="translate(50) rotate(30)"/>
</clipPath>
</defs>
</svg>
