<svg width="361" height="273" viewBox="0 0 361 273" fill="none" xmlns="http://www.w3.org/2000/svg">
<g clip-path="url(#clip0_1506_11320)">
<g filter="url(#filter0_di_1506_11320)">
<g clip-path="url(#clip1_1506_11320)">
<rect width="433" height="668.792" rx="25.1852" fill="url(#paint0_linear_1506_11320)" shape-rendering="crispEdges"/>
<path d="M52.6389 64.9347V61.6204H70.0523V64.9347H63.3065V83.4458H59.3847V64.9347H52.6389ZM78.005 83.7655C76.4065 83.7655 75.0211 83.4138 73.8488 82.7105C72.6766 82.0071 71.7672 81.0231 71.1207 79.7585C70.4812 78.4939 70.1615 77.0161 70.1615 75.3252C70.1615 73.6343 70.4812 72.153 71.1207 70.8813C71.7672 69.6096 72.6766 68.622 73.8488 67.9187C75.0211 67.2153 76.4065 66.8636 78.005 66.8636C79.6036 66.8636 80.989 67.2153 82.1612 67.9187C83.3335 68.622 84.2393 69.6096 84.8788 70.8813C85.5253 72.153 85.8485 73.6343 85.8485 75.3252C85.8485 77.0161 85.5253 78.4939 84.8788 79.7585C84.2393 81.0231 83.3335 82.0071 82.1612 82.7105C80.989 83.4138 79.6036 83.7655 78.005 83.7655ZM78.0263 80.675C78.8931 80.675 79.6178 80.437 80.2004 79.961C80.7829 79.4779 81.2163 78.8314 81.5005 78.0214C81.7918 77.2115 81.9374 76.3092 81.9374 75.3146C81.9374 74.3128 81.7918 73.407 81.5005 72.5971C81.2163 71.78 80.7829 71.1299 80.2004 70.6468C79.6178 70.1637 78.8931 69.9222 78.0263 69.9222C77.1383 69.9222 76.3994 70.1637 75.8097 70.6468C75.2271 71.1299 74.7902 71.78 74.4989 72.5971C74.2147 73.407 74.0726 74.3128 74.0726 75.3146C74.0726 76.3092 74.2147 77.2115 74.4989 78.0214C74.7902 78.8314 75.2271 79.4779 75.8097 79.961C76.3994 80.437 77.1383 80.675 78.0263 80.675ZM97.2967 67.0768V70.0607H87.8867V67.0768H97.2967ZM90.2099 63.155H94.0677V78.5223C94.0677 79.0409 94.1458 79.4388 94.3021 79.7159C94.4655 79.9859 94.6787 80.1706 94.9416 80.27C95.2044 80.3695 95.4957 80.4192 95.8154 80.4192C96.057 80.4192 96.2772 80.4015 96.4762 80.3659C96.6822 80.3304 96.8385 80.2985 96.9451 80.27L97.5951 83.2859C97.3891 83.357 97.0943 83.4351 96.7106 83.5204C96.3341 83.6057 95.8723 83.6554 95.3252 83.6696C94.359 83.698 93.4887 83.5524 92.7143 83.2327C91.9399 82.9058 91.3253 82.4014 90.8706 81.7194C90.423 81.0373 90.2028 80.1848 90.2099 79.1617V63.155ZM105.233 83.7762C104.196 83.7762 103.262 83.5914 102.431 83.222C101.607 82.8455 100.953 82.2913 100.47 81.5595C99.9938 80.8277 99.7558 79.9255 99.7558 78.8527C99.7558 77.9291 99.9263 77.1653 100.267 76.5614C100.608 75.9575 101.074 75.4744 101.663 75.1121C102.253 74.7497 102.917 74.4762 103.656 74.2915C104.402 74.0997 105.173 73.9611 105.969 73.8759C106.928 73.7764 107.706 73.6876 108.303 73.6095C108.899 73.5242 109.333 73.3963 109.603 73.2258C109.88 73.0482 110.018 72.7747 110.018 72.4052V72.3413C110.018 71.5385 109.78 70.9168 109.304 70.4763C108.828 70.0358 108.143 69.8156 107.248 69.8156C106.303 69.8156 105.553 70.0216 104.999 70.4337C104.452 70.8458 104.083 71.3324 103.891 71.8937L100.289 71.3822C100.573 70.3875 101.042 69.5563 101.695 68.8884C102.349 68.2135 103.148 67.7091 104.093 67.3752C105.038 67.0341 106.082 66.8636 107.226 66.8636C108.015 66.8636 108.8 66.956 109.582 67.1407C110.363 67.3254 111.077 67.6309 111.724 68.0572C112.37 68.4764 112.889 69.0483 113.279 69.773C113.677 70.4976 113.876 71.4035 113.876 72.4905V83.4458H110.168V81.1972H110.04C109.805 81.6519 109.475 82.0782 109.049 82.476C108.629 82.8668 108.1 83.1829 107.461 83.4245C106.828 83.6589 106.086 83.7762 105.233 83.7762ZM106.235 80.9414C107.01 80.9414 107.681 80.7887 108.249 80.4832C108.818 80.1706 109.255 79.7585 109.56 79.247C109.873 78.7354 110.029 78.1777 110.029 77.5738V75.6449C109.908 75.7444 109.702 75.8368 109.411 75.922C109.127 76.0073 108.807 76.0819 108.452 76.1458C108.097 76.2097 107.745 76.2666 107.397 76.3163C107.049 76.366 106.747 76.4087 106.491 76.4442C105.916 76.5224 105.4 76.6502 104.946 76.8278C104.491 77.0055 104.132 77.2541 103.869 77.5738C103.607 77.8864 103.475 78.2914 103.475 78.7887C103.475 79.4992 103.734 80.0356 104.253 80.3979C104.772 80.7603 105.432 80.9414 106.235 80.9414ZM121.613 61.6204V83.4458H117.755V61.6204H121.613ZM145.056 67.6203C144.956 66.6896 144.537 65.9649 143.798 65.4463C143.066 64.9276 142.114 64.6683 140.942 64.6683C140.118 64.6683 139.411 64.7926 138.821 65.0413C138.232 65.29 137.781 65.6274 137.468 66.0537C137.155 66.48 136.996 66.9666 136.988 67.5137C136.988 67.9684 137.091 68.3627 137.298 68.6966C137.511 69.0305 137.798 69.3147 138.161 69.5492C138.523 69.7765 138.924 69.9683 139.365 70.1246C139.805 70.2809 140.249 70.4124 140.697 70.5189L142.743 71.0305C143.567 71.2223 144.359 71.4816 145.12 71.8084C145.887 72.1352 146.573 72.5473 147.176 73.0446C147.787 73.542 148.271 74.1423 148.626 74.8457C148.981 75.549 149.159 76.3732 149.159 77.3181C149.159 78.5969 148.832 79.723 148.178 80.6963C147.525 81.6625 146.58 82.4192 145.343 82.9662C144.114 83.5062 142.626 83.7762 140.878 83.7762C139.18 83.7762 137.706 83.5133 136.456 82.9876C135.212 82.4618 134.239 81.6945 133.536 80.6857C132.839 79.6768 132.463 78.4477 132.406 76.9984H136.296C136.353 77.7586 136.587 78.3909 136.999 78.8953C137.411 79.3997 137.948 79.7763 138.608 80.0249C139.276 80.2736 140.022 80.3979 140.846 80.3979C141.706 80.3979 142.459 80.27 143.106 80.0143C143.759 79.7514 144.271 79.3891 144.64 78.9273C145.01 78.4584 145.198 77.9113 145.205 77.2861C145.198 76.7177 145.031 76.2488 144.704 75.8794C144.377 75.5028 143.919 75.1902 143.329 74.9416C142.747 74.6858 142.065 74.4585 141.283 74.2595L138.8 73.6201C137.003 73.1583 135.582 72.4585 134.537 71.5207C133.5 70.5758 132.981 69.3218 132.981 67.7588C132.981 66.4729 133.33 65.3468 134.026 64.3806C134.729 63.4143 135.685 62.6648 136.893 62.1319C138.1 61.592 139.468 61.322 140.995 61.322C142.544 61.322 143.901 61.592 145.066 62.1319C146.239 62.6648 147.159 63.4072 147.827 64.3592C148.494 65.3042 148.839 66.3912 148.86 67.6203H145.056ZM157.223 83.7762C156.186 83.7762 155.252 83.5914 154.421 83.222C153.596 82.8455 152.943 82.2913 152.46 81.5595C151.984 80.8277 151.746 79.9255 151.746 78.8527C151.746 77.9291 151.916 77.1653 152.257 76.5614C152.598 75.9575 153.064 75.4744 153.653 75.1121C154.243 74.7497 154.907 74.4762 155.646 74.2915C156.392 74.0997 157.163 73.9611 157.959 73.8759C158.918 73.7764 159.696 73.6876 160.292 73.6095C160.889 73.5242 161.323 73.3963 161.593 73.2258C161.87 73.0482 162.008 72.7747 162.008 72.4052V72.3413C162.008 71.5385 161.77 70.9168 161.294 70.4763C160.818 70.0358 160.133 69.8156 159.237 69.8156C158.293 69.8156 157.543 70.0216 156.989 70.4337C156.442 70.8458 156.072 71.3324 155.881 71.8937L152.278 71.3822C152.563 70.3875 153.032 69.5563 153.685 68.8884C154.339 68.2135 155.138 67.7091 156.083 67.3752C157.028 67.0341 158.072 66.8636 159.216 66.8636C160.005 66.8636 160.79 66.956 161.571 67.1407C162.353 67.3254 163.067 67.6309 163.713 68.0572C164.36 68.4764 164.879 69.0483 165.269 69.773C165.667 70.4976 165.866 71.4035 165.866 72.4905V83.4458H162.157V81.1972H162.03C161.795 81.6519 161.465 82.0782 161.038 82.476C160.619 82.8668 160.09 83.1829 159.451 83.4245C158.818 83.6589 158.076 83.7762 157.223 83.7762ZM158.225 80.9414C158.999 80.9414 159.671 80.7887 160.239 80.4832C160.808 80.1706 161.245 79.7585 161.55 79.247C161.863 78.7354 162.019 78.1777 162.019 77.5738V75.6449C161.898 75.7444 161.692 75.8368 161.401 75.922C161.117 76.0073 160.797 76.0819 160.442 76.1458C160.086 76.2097 159.735 76.2666 159.387 76.3163C159.039 76.366 158.737 76.4087 158.481 76.4442C157.905 76.5224 157.39 76.6502 156.936 76.8278C156.481 77.0055 156.122 77.2541 155.859 77.5738C155.596 77.8864 155.465 78.2914 155.465 78.7887C155.465 79.4992 155.724 80.0356 156.243 80.3979C156.761 80.7603 157.422 80.9414 158.225 80.9414ZM173.603 61.6204V83.4458H169.745V61.6204H173.603ZM184.817 83.7655C183.176 83.7655 181.758 83.4245 180.565 82.7424C179.378 82.0533 178.465 81.08 177.826 79.8224C177.186 78.5578 176.867 77.0694 176.867 75.3572C176.867 73.6734 177.186 72.1956 177.826 70.9239C178.472 69.6451 179.375 68.6504 180.533 67.94C181.691 67.2224 183.051 66.8636 184.614 66.8636C185.623 66.8636 186.575 67.027 187.47 67.3538C188.373 67.6735 189.168 68.1709 189.857 68.8458C190.554 69.5208 191.101 70.3804 191.499 71.4248C191.896 72.4621 192.095 73.6983 192.095 75.1334V76.3163H178.678V73.716H188.397C188.39 72.9771 188.231 72.32 187.918 71.7445C187.605 71.1619 187.168 70.7037 186.607 70.3698C186.053 70.0358 185.406 69.8689 184.668 69.8689C183.879 69.8689 183.186 70.0607 182.589 70.4444C181.993 70.8209 181.527 71.3182 181.193 71.9363C180.867 72.5473 180.7 73.2187 180.693 73.9505V76.2204C180.693 77.1724 180.867 77.9895 181.215 78.6715C181.563 79.3464 182.049 79.8651 182.675 80.2274C183.3 80.5826 184.032 80.7603 184.87 80.7603C185.431 80.7603 185.939 80.6821 186.394 80.5258C186.849 80.3624 187.243 80.1244 187.577 79.8118C187.911 79.4992 188.163 79.112 188.334 78.6502L191.936 79.0551C191.708 80.0072 191.275 80.8384 190.635 81.5489C190.003 82.2522 189.193 82.7993 188.206 83.19C187.218 83.5737 186.088 83.7655 184.817 83.7655ZM208.297 71.4035L204.78 71.7871C204.68 71.4319 204.506 71.098 204.258 70.7854C204.016 70.4728 203.689 70.2206 203.277 70.0287C202.865 69.8369 202.361 69.741 201.764 69.741C200.961 69.741 200.286 69.9151 199.739 70.2632C199.199 70.6113 198.933 71.0625 198.94 71.6166C198.933 72.0926 199.107 72.4798 199.462 72.7782C199.824 73.0766 200.421 73.3217 201.252 73.5135L204.044 74.1103C205.593 74.4443 206.744 74.9735 207.497 75.6982C208.258 76.4229 208.641 77.3714 208.648 78.5436C208.641 79.5738 208.339 80.4832 207.742 81.2718C207.153 82.0533 206.332 82.6643 205.281 83.1048C204.229 83.5453 203.021 83.7655 201.657 83.7655C199.654 83.7655 198.041 83.3463 196.819 82.508C195.597 81.6625 194.869 80.4867 194.634 78.9805L198.396 78.6182C198.567 79.3571 198.929 79.9148 199.483 80.2914C200.037 80.6679 200.759 80.8562 201.647 80.8562C202.563 80.8562 203.299 80.6679 203.853 80.2914C204.414 79.9148 204.695 79.4495 204.695 78.8953C204.695 78.4264 204.513 78.0392 204.151 77.7337C203.796 77.4282 203.242 77.1937 202.489 77.0303L199.696 76.4442C198.126 76.1174 196.965 75.5668 196.212 74.7924C195.459 74.0109 195.086 73.0233 195.093 71.8298C195.086 70.8209 195.359 69.947 195.913 69.2081C196.475 68.4622 197.252 67.8867 198.247 67.4817C199.249 67.0697 200.403 66.8636 201.711 66.8636C203.629 66.8636 205.139 67.2721 206.24 68.0892C207.348 68.9062 208.034 70.011 208.297 71.4035Z" fill="white"/>
<path d="M102.291 221.788L106.521 222.483L102.291 221.788C101.274 227.98 100.748 234.323 100.748 240.771C100.748 305.082 152.881 357.216 217.192 357.216C281.502 357.216 333.636 305.082 333.636 240.771C333.636 210.866 322.333 183.546 303.803 162.938C295.2 153.37 280.47 152.588 270.903 161.19C261.335 169.793 260.552 184.523 269.155 194.091C280.293 206.478 287.043 222.809 287.043 240.771C287.043 279.349 255.769 310.622 217.192 310.622C178.615 310.622 147.341 279.349 147.341 240.771C147.341 236.862 147.66 233.044 148.269 229.338C150.354 216.642 141.751 204.659 129.055 202.574C116.358 200.489 104.376 209.092 102.291 221.788Z" fill="white" stroke="#282828" stroke-width="8.57426" stroke-linecap="round" stroke-linejoin="round"/>
<path d="M165.012 194.091C173.615 184.523 172.832 169.793 163.264 161.19C153.697 152.588 138.967 153.37 130.364 162.938C121.474 172.826 114.242 184.259 109.124 196.802C104.264 208.715 109.981 222.313 121.894 227.174C133.807 232.034 147.405 226.317 152.265 214.404C155.324 206.907 159.659 200.044 165.012 194.091Z" fill="white" stroke="#282828" stroke-width="8.57426" stroke-linecap="round" stroke-linejoin="round"/>
<path d="M176.091 182.372C187.605 174.34 201.583 169.633 216.726 169.633C231.87 169.633 245.848 174.34 257.362 182.372C267.332 189.326 281.051 186.881 288.006 176.911C294.96 166.941 292.515 153.222 282.545 146.267C263.884 133.251 241.164 125.614 216.726 125.614C192.289 125.614 169.569 133.251 150.907 146.267C140.938 153.222 138.493 166.941 145.447 176.911C152.401 186.881 166.121 189.326 176.091 182.372Z" fill="url(#paint1_linear_1506_11320)" stroke="#29292B" stroke-width="6"/>
<path d="M303.805 162.938C295.202 153.37 280.472 152.588 270.905 161.19C261.337 169.793 260.554 184.523 269.157 194.091C280.295 206.478 287.044 222.809 287.044 240.771C287.044 279.349 255.771 310.622 217.194 310.622C204.327 310.622 193.897 321.052 193.897 333.919C193.897 346.785 204.327 357.216 217.194 357.216C281.504 357.216 333.638 305.082 333.638 240.771C333.638 210.866 322.335 183.546 303.805 162.938Z" fill="white" stroke="#282828" stroke-width="8.57426" stroke-linecap="round" stroke-linejoin="round"/>
</g>
</g>
</g>
<defs>
<filter id="filter0_di_1506_11320" x="-50.3704" y="-25.1852" width="533.741" height="769.533" filterUnits="userSpaceOnUse" color-interpolation-filters="sRGB">
<feFlood flood-opacity="0" result="BackgroundImageFix"/>
<feColorMatrix in="SourceAlpha" type="matrix" values="0 0 0 0 0 0 0 0 0 0 0 0 0 0 0 0 0 0 127 0" result="hardAlpha"/>
<feOffset dy="25.1852"/>
<feGaussianBlur stdDeviation="25.1852"/>
<feComposite in2="hardAlpha" operator="out"/>
<feColorMatrix type="matrix" values="0 0 0 0 0 0 0 0 0 0 0 0 0 0 0 0 0 0 0.5 0"/>
<feBlend mode="normal" in2="BackgroundImageFix" result="effect1_dropShadow_1506_11320"/>
<feBlend mode="normal" in="SourceGraphic" in2="effect1_dropShadow_1506_11320" result="shape"/>
<feColorMatrix in="SourceAlpha" type="matrix" values="0 0 0 0 0 0 0 0 0 0 0 0 0 0 0 0 0 0 127 0" result="hardAlpha"/>
<feOffset dy="1.25926"/>
<feGaussianBlur stdDeviation="1.25926"/>
<feComposite in2="hardAlpha" operator="arithmetic" k2="-1" k3="1"/>
<feColorMatrix type="matrix" values="0 0 0 0 1 0 0 0 0 1 0 0 0 0 1 0 0 0 0.1 0"/>
<feBlend mode="normal" in2="shape" result="effect2_innerShadow_1506_11320"/>
</filter>
<linearGradient id="paint0_linear_1506_11320" x1="0" y1="0" x2="655.912" y2="501.111" gradientUnits="userSpaceOnUse">
<stop stop-color="#2D2D2F"/>
<stop offset="1" stop-color="#2B2B2E" stop-opacity="0.17"/>
</linearGradient>
<linearGradient id="paint1_linear_1506_11320" x1="146.969" y1="175.496" x2="280.799" y2="162.123" gradientUnits="userSpaceOnUse">
<stop stop-color="#3DE85D"/>
<stop offset="0.494792" stop-color="#03F6F4"/>
<stop offset="1" stop-color="#6A54FF"/>
</linearGradient>
<clipPath id="clip0_1506_11320">
<path d="M0 21C0 9.40202 9.40202 0 21 0H361V252C361 263.598 351.598 273 340 273H0V21Z" fill="white"/>
</clipPath>
<clipPath id="clip1_1506_11320">
<rect width="433" height="668.792" rx="25.1852" fill="white"/>
</clipPath>
</defs>
</svg>
