<svg width="361" height="273" viewBox="0 0 361 273" fill="none" xmlns="http://www.w3.org/2000/svg">
<g clip-path="url(#clip0_1506_11321)">
<g filter="url(#filter0_di_1506_11321)">
<rect width="662" height="320" rx="25.1852" fill="url(#paint0_linear_1506_11321)" shape-rendering="crispEdges"/>
<path d="M25.0043 39V28.8182H28.8224C29.6046 28.8182 30.2609 28.9541 30.7912 29.2259C31.3248 29.4976 31.7275 29.8788 31.9993 30.3693C32.2744 30.8565 32.4119 31.425 32.4119 32.0746C32.4119 32.7275 32.2727 33.2943 31.9943 33.7749C31.7192 34.2521 31.3132 34.6217 30.7763 34.8835C30.2393 35.142 29.5798 35.2713 28.7976 35.2713H26.0781V33.7401H28.549C29.0064 33.7401 29.3809 33.6771 29.6726 33.5511C29.9643 33.4219 30.1797 33.2346 30.3189 32.9893C30.4614 32.7408 30.5327 32.4358 30.5327 32.0746C30.5327 31.7133 30.4614 31.4051 30.3189 31.1499C30.1764 30.8913 29.9593 30.6958 29.6676 30.5632C29.3759 30.4273 28.9998 30.3594 28.5391 30.3594H26.8487V39H25.0043ZM30.2642 34.3864L32.7848 39H30.7266L28.2507 34.3864H30.2642ZM37.3015 39.1491C36.5359 39.1491 35.8746 38.9901 35.3178 38.6719C34.7643 38.3504 34.3384 37.8963 34.0401 37.3097C33.7418 36.7197 33.5927 36.0253 33.5927 35.2266C33.5927 34.4411 33.7418 33.7517 34.0401 33.1584C34.3417 32.5618 34.7627 32.0978 35.3029 31.7663C35.8432 31.4316 36.4779 31.2642 37.207 31.2642C37.6777 31.2642 38.1218 31.3404 38.5394 31.4929C38.9603 31.642 39.3316 31.8741 39.6531 32.1889C39.9779 32.5038 40.2331 32.9048 40.4187 33.392C40.6043 33.8759 40.6971 34.4527 40.6971 35.1222V35.674H34.4379V34.4609H38.9719C38.9686 34.1162 38.8941 33.8097 38.7482 33.5412C38.6024 33.2694 38.3986 33.0556 38.1367 32.8999C37.8782 32.7441 37.5766 32.6662 37.2319 32.6662C36.864 32.6662 36.5408 32.7557 36.2624 32.9347C35.984 33.1103 35.7669 33.3423 35.6112 33.6307C35.4587 33.9157 35.3808 34.2289 35.3775 34.5703V35.6293C35.3775 36.0734 35.4587 36.4545 35.6211 36.7727C35.7835 37.0876 36.0105 37.3295 36.3022 37.4986C36.5939 37.6643 36.9353 37.7472 37.3263 37.7472C37.5882 37.7472 37.8252 37.7107 38.0373 37.6378C38.2494 37.5616 38.4334 37.4505 38.5891 37.3047C38.7449 37.1589 38.8626 36.9782 38.9421 36.7628L40.6225 36.9517C40.5165 37.3958 40.3143 37.7836 40.016 38.1151C39.721 38.4432 39.3432 38.6984 38.8825 38.8807C38.4218 39.0597 37.8948 39.1491 37.3015 39.1491ZM48.8219 31.3636L46.1025 39H44.1138L41.3944 31.3636H43.3134L45.0684 37.0362H45.1479L46.9078 31.3636H48.8219ZM53.1882 39.1491C52.4226 39.1491 51.7614 38.9901 51.2045 38.6719C50.651 38.3504 50.2251 37.8963 49.9268 37.3097C49.6286 36.7197 49.4794 36.0253 49.4794 35.2266C49.4794 34.4411 49.6286 33.7517 49.9268 33.1584C50.2285 32.5618 50.6494 32.0978 51.1896 31.7663C51.7299 31.4316 52.3646 31.2642 53.0938 31.2642C53.5644 31.2642 54.0085 31.3404 54.4261 31.4929C54.8471 31.642 55.2183 31.8741 55.5398 32.1889C55.8646 32.5038 56.1198 32.9048 56.3054 33.392C56.491 33.8759 56.5838 34.4527 56.5838 35.1222V35.674H50.3246V34.4609H54.8587C54.8554 34.1162 54.7808 33.8097 54.6349 33.5412C54.4891 33.2694 54.2853 33.0556 54.0234 32.8999C53.7649 32.7441 53.4633 32.6662 53.1186 32.6662C52.7507 32.6662 52.4276 32.7557 52.1491 32.9347C51.8707 33.1103 51.6536 33.3423 51.4979 33.6307C51.3454 33.9157 51.2675 34.2289 51.2642 34.5703V35.6293C51.2642 36.0734 51.3454 36.4545 51.5078 36.7727C51.6702 37.0876 51.8973 37.3295 52.1889 37.4986C52.4806 37.6643 52.822 37.7472 53.2131 37.7472C53.4749 37.7472 53.7119 37.7107 53.924 37.6378C54.1361 37.5616 54.3201 37.4505 54.4759 37.3047C54.6316 37.1589 54.7493 36.9782 54.8288 36.7628L56.5092 36.9517C56.4032 37.3958 56.201 37.7836 55.9027 38.1151C55.6077 38.4432 55.2299 38.6984 54.7692 38.8807C54.3085 39.0597 53.7815 39.1491 53.1882 39.1491ZM59.9061 34.5256V39H58.1064V31.3636H59.8265V32.6612H59.916C60.0917 32.2337 60.3717 31.8939 60.7562 31.642C61.144 31.3902 61.6229 31.2642 62.193 31.2642C62.72 31.2642 63.179 31.3769 63.5701 31.6023C63.9645 31.8277 64.2695 32.1541 64.4849 32.5817C64.7037 33.0092 64.8114 33.5279 64.8081 34.1378V39H63.0083V34.4162C63.0083 33.9058 62.8758 33.5064 62.6106 33.218C62.3488 32.9297 61.9859 32.7855 61.5218 32.7855C61.207 32.7855 60.9269 32.8551 60.6816 32.9943C60.4397 33.1302 60.2491 33.3274 60.1099 33.5859C59.974 33.8445 59.9061 34.1577 59.9061 34.5256ZM71.5048 35.7884V31.3636H73.3045V39H71.5595V37.6428H71.4799C71.3076 38.0703 71.0242 38.42 70.6298 38.6918C70.2387 38.9635 69.7565 39.0994 69.1831 39.0994C68.6826 39.0994 68.2401 38.9884 67.8556 38.7663C67.4745 38.541 67.1762 38.2145 66.9608 37.7869C66.7453 37.3561 66.6376 36.8357 66.6376 36.2259V31.3636H68.4373V35.9474C68.4373 36.4313 68.5699 36.8158 68.835 37.1009C69.1002 37.3859 69.4482 37.5284 69.8791 37.5284C70.1442 37.5284 70.4011 37.4638 70.6497 37.3345C70.8983 37.2053 71.1021 37.013 71.2612 36.7578C71.4236 36.4993 71.5048 36.1761 71.5048 35.7884ZM78.5359 39.1491C77.7702 39.1491 77.109 38.9901 76.5522 38.6719C75.9987 38.3504 75.5728 37.8963 75.2745 37.3097C74.9762 36.7197 74.8271 36.0253 74.8271 35.2266C74.8271 34.4411 74.9762 33.7517 75.2745 33.1584C75.5761 32.5618 75.997 32.0978 76.5373 31.7663C77.0775 31.4316 77.7122 31.2642 78.4414 31.2642C78.9121 31.2642 79.3562 31.3404 79.7738 31.4929C80.1947 31.642 80.5659 31.8741 80.8874 32.1889C81.2122 32.5038 81.4674 32.9048 81.6531 33.392C81.8387 33.8759 81.9315 34.4527 81.9315 35.1222V35.674H75.6722V34.4609H80.2063C80.203 34.1162 80.1284 33.8097 79.9826 33.5412C79.8368 33.2694 79.6329 33.0556 79.3711 32.8999C79.1126 32.7441 78.811 32.6662 78.4663 32.6662C78.0984 32.6662 77.7752 32.7557 77.4968 32.9347C77.2184 33.1103 77.0013 33.3423 76.8455 33.6307C76.6931 33.9157 76.6152 34.2289 76.6119 34.5703V35.6293C76.6119 36.0734 76.6931 36.4545 76.8555 36.7727C77.0179 37.0876 77.2449 37.3295 77.5366 37.4986C77.8282 37.6643 78.1696 37.7472 78.5607 37.7472C78.8226 37.7472 79.0595 37.7107 79.2717 37.6378C79.4838 37.5616 79.6677 37.4505 79.8235 37.3047C79.9793 37.1589 80.0969 36.9782 80.1765 36.7628L81.8569 36.9517C81.7508 37.3958 81.5487 37.7836 81.2504 38.1151C80.9554 38.4432 80.5775 38.6984 80.1168 38.8807C79.6561 39.0597 79.1291 39.1491 78.5359 39.1491Z" fill="white"/>
<line x1="99.5" y1="24" x2="99.5" y2="44" stroke="white" stroke-opacity="0.2"/>
<path d="M128 34C128 35.6569 126.657 37 125 37C123.343 37 122 35.6569 122 34C122 32.3431 123.343 31 125 31C126.657 31 128 32.3431 128 34Z" fill="#C6C7F8"/>
<path d="M141.08 32H140.023C139.96 31.696 139.851 31.429 139.695 31.1989C139.541 30.9688 139.354 30.7756 139.132 30.6193C138.913 30.4602 138.67 30.3409 138.403 30.2614C138.136 30.1818 137.858 30.142 137.568 30.142C137.04 30.142 136.561 30.2756 136.132 30.5426C135.706 30.8097 135.366 31.2031 135.114 31.723C134.864 32.2429 134.739 32.8807 134.739 33.6364C134.739 34.392 134.864 35.0298 135.114 35.5497C135.366 36.0696 135.706 36.4631 136.132 36.7301C136.561 36.9972 137.04 37.1307 137.568 37.1307C137.858 37.1307 138.136 37.0909 138.403 37.0114C138.67 36.9318 138.913 36.8139 139.132 36.6577C139.354 36.4986 139.541 36.304 139.695 36.0739C139.851 35.8409 139.96 35.5739 140.023 35.2727H141.08C141 35.7187 140.855 36.1179 140.645 36.4702C140.435 36.8224 140.173 37.1222 139.861 37.3693C139.548 37.6136 139.197 37.7997 138.808 37.9276C138.422 38.0554 138.009 38.1193 137.568 38.1193C136.824 38.1193 136.162 37.9375 135.582 37.5739C135.003 37.2102 134.547 36.6932 134.214 36.0227C133.882 35.3523 133.716 34.5568 133.716 33.6364C133.716 32.7159 133.882 31.9205 134.214 31.25C134.547 30.5795 135.003 30.0625 135.582 29.6989C136.162 29.3352 136.824 29.1534 137.568 29.1534C138.009 29.1534 138.422 29.2173 138.808 29.3452C139.197 29.473 139.548 29.6605 139.861 29.9077C140.173 30.152 140.435 30.4503 140.645 30.8026C140.855 31.152 141 31.5511 141.08 32ZM146.776 35.3239V31.4545H147.782V38H146.776V36.892H146.708C146.554 37.2244 146.316 37.5071 145.992 37.7401C145.668 37.9702 145.259 38.0852 144.765 38.0852C144.355 38.0852 143.992 37.9957 143.674 37.8168C143.355 37.6349 143.105 37.3622 142.924 36.9986C142.742 36.6321 142.651 36.1705 142.651 35.6136V31.4545H143.657V35.5455C143.657 36.0227 143.79 36.4034 144.057 36.6875C144.327 36.9716 144.671 37.1136 145.088 37.1136C145.338 37.1136 145.593 37.0497 145.851 36.9219C146.113 36.794 146.331 36.598 146.507 36.3338C146.686 36.0696 146.776 35.733 146.776 35.3239ZM149.624 38V31.4545H150.595V32.4432H150.663C150.783 32.1193 150.999 31.8565 151.311 31.6548C151.624 31.4531 151.976 31.3523 152.368 31.3523C152.442 31.3523 152.534 31.3537 152.645 31.3565C152.756 31.3594 152.839 31.3636 152.896 31.3693V32.392C152.862 32.3835 152.784 32.3707 152.662 32.3537C152.543 32.3338 152.416 32.3239 152.283 32.3239C151.964 32.3239 151.68 32.3906 151.43 32.5241C151.183 32.6548 150.987 32.8366 150.842 33.0696C150.7 33.2997 150.629 33.5625 150.629 33.858V38H149.624ZM154.088 38V31.4545H155.06V32.4432H155.128C155.248 32.1193 155.463 31.8565 155.776 31.6548C156.088 31.4531 156.441 31.3523 156.833 31.3523C156.907 31.3523 156.999 31.3537 157.11 31.3565C157.221 31.3594 157.304 31.3636 157.361 31.3693V32.392C157.327 32.3835 157.249 32.3707 157.127 32.3537C157.007 32.3338 156.881 32.3239 156.748 32.3239C156.429 32.3239 156.145 32.3906 155.895 32.5241C155.648 32.6548 155.452 32.8366 155.307 33.0696C155.165 33.2997 155.094 33.5625 155.094 33.858V38H154.088ZM161.098 38.1364C160.468 38.1364 159.924 37.9972 159.466 37.7188C159.012 37.4375 158.661 37.0455 158.414 36.5426C158.169 36.0369 158.047 35.4489 158.047 34.7784C158.047 34.108 158.169 33.517 158.414 33.0057C158.661 32.4915 159.005 32.0909 159.445 31.804C159.888 31.5142 160.405 31.3693 160.996 31.3693C161.337 31.3693 161.674 31.4261 162.006 31.5398C162.338 31.6534 162.641 31.8381 162.914 32.0938C163.186 32.3466 163.404 32.6818 163.566 33.0994C163.728 33.517 163.809 34.0312 163.809 34.642V35.0682H158.763V34.1989H162.786C162.786 33.8295 162.712 33.5 162.564 33.2102C162.419 32.9205 162.212 32.6918 161.942 32.5241C161.675 32.3565 161.36 32.2727 160.996 32.2727C160.596 32.2727 160.249 32.3722 159.956 32.571C159.667 32.767 159.444 33.0227 159.287 33.3381C159.131 33.6534 159.053 33.9915 159.053 34.3523V34.9318C159.053 35.4261 159.138 35.8452 159.309 36.1889C159.482 36.5298 159.722 36.7898 160.029 36.9688C160.336 37.1449 160.692 37.233 161.098 37.233C161.363 37.233 161.601 37.196 161.814 37.1222C162.03 37.0455 162.216 36.9318 162.373 36.7812C162.529 36.6278 162.65 36.4375 162.735 36.2102L163.706 36.483C163.604 36.8125 163.432 37.1023 163.191 37.3523C162.949 37.5994 162.651 37.7926 162.296 37.9318C161.941 38.0682 161.542 38.1364 161.098 38.1364ZM166.344 34.0625V38H165.338V31.4545H166.31V32.4773H166.395C166.549 32.1449 166.782 31.8778 167.094 31.6761C167.407 31.4716 167.81 31.3693 168.304 31.3693C168.748 31.3693 169.135 31.4602 169.468 31.642C169.8 31.821 170.059 32.0938 170.243 32.4602C170.428 32.8239 170.52 33.2841 170.52 33.8409V38H169.515V33.9091C169.515 33.3949 169.381 32.9943 169.114 32.7074C168.847 32.4176 168.48 32.2727 168.015 32.2727C167.694 32.2727 167.407 32.3423 167.154 32.4815C166.904 32.6207 166.706 32.8239 166.561 33.0909C166.417 33.358 166.344 33.6818 166.344 34.0625ZM175.205 31.4545V32.3068H171.812V31.4545H175.205ZM172.801 29.8864H173.807V36.125C173.807 36.4091 173.848 36.6222 173.93 36.7642C174.016 36.9034 174.124 36.9972 174.254 37.0455C174.388 37.0909 174.528 37.1136 174.676 37.1136C174.787 37.1136 174.878 37.108 174.949 37.0966C175.02 37.0824 175.077 37.071 175.119 37.0625L175.324 37.9659C175.256 37.9915 175.161 38.017 175.038 38.0426C174.916 38.071 174.761 38.0852 174.574 38.0852C174.29 38.0852 174.011 38.0241 173.739 37.902C173.469 37.7798 173.244 37.5938 173.065 37.3438C172.889 37.0938 172.801 36.7784 172.801 36.3977V29.8864ZM181.814 38L179.428 29.2727H180.501L182.325 36.3807H182.411L184.268 29.2727H185.462L187.32 36.3807H187.405L189.229 29.2727H190.303L187.916 38H186.825L184.899 31.0455H184.831L182.905 38H181.814ZM193.618 38.1364C192.987 38.1364 192.443 37.9972 191.986 37.7188C191.531 37.4375 191.18 37.0455 190.933 36.5426C190.689 36.0369 190.567 35.4489 190.567 34.7784C190.567 34.108 190.689 33.517 190.933 33.0057C191.18 32.4915 191.524 32.0909 191.964 31.804C192.408 31.5142 192.925 31.3693 193.516 31.3693C193.857 31.3693 194.193 31.4261 194.526 31.5398C194.858 31.6534 195.161 31.8381 195.433 32.0938C195.706 32.3466 195.923 32.6818 196.085 33.0994C196.247 33.517 196.328 34.0312 196.328 34.642V35.0682H191.283V34.1989H195.305C195.305 33.8295 195.232 33.5 195.084 33.2102C194.939 32.9205 194.732 32.6918 194.462 32.5241C194.195 32.3565 193.879 32.2727 193.516 32.2727C193.115 32.2727 192.768 32.3722 192.476 32.571C192.186 32.767 191.963 33.0227 191.807 33.3381C191.651 33.6534 191.572 33.9915 191.572 34.3523V34.9318C191.572 35.4261 191.658 35.8452 191.828 36.1889C192.001 36.5298 192.241 36.7898 192.548 36.9688C192.855 37.1449 193.212 37.233 193.618 37.233C193.882 37.233 194.121 37.196 194.334 37.1222C194.55 37.0455 194.736 36.9318 194.892 36.7812C195.048 36.6278 195.169 36.4375 195.254 36.2102L196.226 36.483C196.124 36.8125 195.952 37.1023 195.71 37.3523C195.469 37.5994 195.17 37.7926 194.815 37.9318C194.46 38.0682 194.061 38.1364 193.618 38.1364ZM200.602 38.1364C199.972 38.1364 199.428 37.9972 198.97 37.7188C198.516 37.4375 198.165 37.0455 197.918 36.5426C197.673 36.0369 197.551 35.4489 197.551 34.7784C197.551 34.108 197.673 33.517 197.918 33.0057C198.165 32.4915 198.509 32.0909 198.949 31.804C199.392 31.5142 199.909 31.3693 200.5 31.3693C200.841 31.3693 201.178 31.4261 201.51 31.5398C201.842 31.6534 202.145 31.8381 202.418 32.0938C202.69 32.3466 202.908 32.6818 203.07 33.0994C203.232 33.517 203.312 34.0312 203.312 34.642V35.0682H198.267V34.1989H202.29C202.29 33.8295 202.216 33.5 202.068 33.2102C201.923 32.9205 201.716 32.6918 201.446 32.5241C201.179 32.3565 200.864 32.2727 200.5 32.2727C200.099 32.2727 199.753 32.3722 199.46 32.571C199.17 32.767 198.947 33.0227 198.791 33.3381C198.635 33.6534 198.557 33.9915 198.557 34.3523V34.9318C198.557 35.4261 198.642 35.8452 198.812 36.1889C198.986 36.5298 199.226 36.7898 199.533 36.9688C199.839 37.1449 200.196 37.233 200.602 37.233C200.866 37.233 201.105 37.196 201.318 37.1222C201.534 37.0455 201.72 36.9318 201.876 36.7812C202.033 36.6278 202.153 36.4375 202.239 36.2102L203.21 36.483C203.108 36.8125 202.936 37.1023 202.695 37.3523C202.453 37.5994 202.155 37.7926 201.8 37.9318C201.445 38.0682 201.045 38.1364 200.602 38.1364ZM205.78 35.6136L205.763 34.3693H205.967L208.831 31.4545H210.075L207.024 34.5398H206.939L205.78 35.6136ZM204.842 38V29.2727H205.848V38H204.842ZM209.001 38L206.445 34.7614L207.161 34.0625L210.28 38H209.001ZM217.412 39.0909V28.1818H218.111V39.0909H217.412ZM219.428 31.6719C219.388 31.2997 219.221 31.0099 218.925 30.8026C218.632 30.5952 218.252 30.4915 217.783 30.4915C217.453 30.4915 217.171 30.5412 216.935 30.6406C216.699 30.7401 216.519 30.875 216.394 31.0455C216.269 31.2159 216.205 31.4105 216.202 31.6293C216.202 31.8111 216.243 31.9687 216.326 32.1023C216.411 32.2358 216.526 32.3494 216.671 32.4432C216.816 32.5341 216.976 32.6108 217.152 32.6733C217.328 32.7358 217.506 32.7884 217.685 32.831L218.503 33.0355C218.833 33.1122 219.15 33.2159 219.453 33.3466C219.76 33.4773 220.034 33.642 220.276 33.8409C220.52 34.0398 220.713 34.2798 220.855 34.5611C220.998 34.8423 221.069 35.1719 221.069 35.5497C221.069 36.0611 220.938 36.5114 220.676 36.9006C220.415 37.2869 220.037 37.5895 219.543 37.8082C219.051 38.0241 218.456 38.1321 217.757 38.1321C217.078 38.1321 216.489 38.027 215.989 37.8168C215.492 37.6065 215.103 37.2997 214.821 36.8963C214.543 36.4929 214.392 36.0014 214.37 35.4219H215.925C215.948 35.7259 216.042 35.9787 216.206 36.1804C216.371 36.3821 216.586 36.5327 216.85 36.6321C217.117 36.7315 217.415 36.7812 217.745 36.7812C218.088 36.7812 218.39 36.7301 218.648 36.6278C218.909 36.5227 219.114 36.3778 219.262 36.1932C219.409 36.0057 219.485 35.7869 219.488 35.5369C219.485 35.3097 219.418 35.1222 219.287 34.9744C219.157 34.8239 218.973 34.6989 218.738 34.5994C218.505 34.4972 218.232 34.4062 217.919 34.3267L216.926 34.071C216.208 33.8864 215.64 33.6065 215.222 33.2315C214.807 32.8537 214.6 32.3523 214.6 31.7273C214.6 31.2131 214.739 30.7628 215.017 30.3764C215.299 29.9901 215.681 29.6903 216.164 29.4773C216.647 29.2614 217.194 29.1534 217.804 29.1534C218.424 29.1534 218.966 29.2614 219.432 29.4773C219.901 29.6903 220.269 29.9872 220.536 30.3679C220.803 30.7457 220.941 31.1804 220.949 31.6719H219.428ZM225.427 38.1193C224.859 38.1193 224.35 38.0128 223.901 37.7997C223.452 37.5838 223.096 37.2884 222.832 36.9134C222.57 36.5384 222.431 36.1094 222.414 35.6264H223.948C223.977 35.9844 224.131 36.277 224.413 36.5043C224.694 36.7287 225.032 36.8409 225.427 36.8409C225.737 36.8409 226.012 36.7699 226.254 36.6278C226.495 36.4858 226.685 36.2884 226.825 36.0355C226.964 35.7827 227.032 35.4943 227.029 35.1705C227.032 34.8409 226.962 34.5483 226.82 34.2926C226.678 34.0369 226.484 33.8366 226.237 33.6918C225.989 33.544 225.705 33.4702 225.384 33.4702C225.123 33.4673 224.866 33.5156 224.613 33.6151C224.36 33.7145 224.16 33.8452 224.012 34.0071L222.585 33.7727L223.04 29.2727H228.103V30.5938H224.349L224.097 32.9077H224.148C224.31 32.7173 224.539 32.5597 224.835 32.4347C225.13 32.3068 225.454 32.2429 225.806 32.2429C226.335 32.2429 226.806 32.3679 227.221 32.6179C227.636 32.8651 227.962 33.206 228.201 33.6406C228.44 34.0753 228.559 34.5724 228.559 35.1321C228.559 35.7088 228.425 36.223 228.158 36.6747C227.894 37.1236 227.526 37.4773 227.055 37.7358C226.586 37.9915 226.043 38.1193 225.427 38.1193ZM233.089 38.1193C232.455 38.1193 231.893 38.0128 231.401 37.7997C230.913 37.5866 230.529 37.2955 230.251 36.9261C229.975 36.554 229.839 36.1321 229.842 35.6605C229.839 35.294 229.918 34.9574 230.08 34.6506C230.242 34.3438 230.461 34.0881 230.737 33.8835C231.015 33.6761 231.325 33.544 231.665 33.4872V33.4276C231.217 33.3281 230.853 33.0994 230.575 32.7415C230.299 32.3807 230.163 31.9645 230.165 31.4929C230.163 31.044 230.288 30.6435 230.54 30.2912C230.793 29.9389 231.14 29.6619 231.58 29.4602C232.021 29.2557 232.523 29.1534 233.089 29.1534C233.648 29.1534 234.147 29.2557 234.585 29.4602C235.025 29.6619 235.371 29.9389 235.624 30.2912C235.88 30.6435 236.008 31.044 236.008 31.4929C236.008 31.9645 235.867 32.3807 235.586 32.7415C235.308 33.0994 234.948 33.3281 234.508 33.4276V33.4872C234.849 33.544 235.156 33.6761 235.428 33.8835C235.704 34.0881 235.923 34.3438 236.085 34.6506C236.249 34.9574 236.332 35.294 236.332 35.6605C236.332 36.1321 236.192 36.554 235.914 36.9261C235.636 37.2955 235.252 37.5866 234.763 37.7997C234.278 38.0128 233.719 38.1193 233.089 38.1193ZM233.089 36.9006C233.415 36.9006 233.7 36.8452 233.941 36.7344C234.183 36.6207 234.37 36.4616 234.504 36.2571C234.637 36.0526 234.705 35.8168 234.708 35.5497C234.705 35.2713 234.633 35.0256 234.491 34.8125C234.352 34.5966 234.16 34.4276 233.915 34.3054C233.674 34.1832 233.398 34.1222 233.089 34.1222C232.776 34.1222 232.498 34.1832 232.254 34.3054C232.009 34.4276 231.816 34.5966 231.674 34.8125C231.535 35.0256 231.467 35.2713 231.469 35.5497C231.467 35.8168 231.532 36.0526 231.665 36.2571C231.799 36.4588 231.987 36.6165 232.228 36.7301C232.472 36.8437 232.759 36.9006 233.089 36.9006ZM233.089 32.9247C233.356 32.9247 233.592 32.8707 233.796 32.7628C234.004 32.6548 234.167 32.5043 234.286 32.3111C234.406 32.1179 234.467 31.8949 234.469 31.642C234.467 31.392 234.407 31.1733 234.29 30.9858C234.174 30.7955 234.012 30.6491 233.805 30.5469C233.597 30.4418 233.359 30.3892 233.089 30.3892C232.813 30.3892 232.57 30.4418 232.36 30.5469C232.153 30.6491 231.991 30.7955 231.874 30.9858C231.761 31.1733 231.705 31.392 231.708 31.642C231.705 31.8949 231.762 32.1179 231.879 32.3111C231.998 32.5014 232.161 32.652 232.369 32.7628C232.579 32.8707 232.819 32.9247 233.089 32.9247ZM239.303 36.8068L239.248 37.2756C239.208 37.6335 239.137 37.9972 239.034 38.3665C238.935 38.7386 238.83 39.081 238.719 39.3935C238.608 39.706 238.519 39.9517 238.451 40.1307H237.411C237.451 39.9574 237.505 39.7216 237.573 39.4233C237.644 39.125 237.712 38.7898 237.777 38.4176C237.843 38.0455 237.887 37.6676 237.909 37.2841L237.939 36.8068H239.303ZM241.014 38V36.858L244.044 33.8878C244.333 33.5952 244.575 33.3352 244.768 33.108C244.961 32.8807 245.106 32.6605 245.203 32.4474C245.299 32.2344 245.348 32.0071 245.348 31.7656C245.348 31.4901 245.285 31.2543 245.16 31.0582C245.035 30.8594 244.863 30.706 244.645 30.598C244.426 30.4901 244.177 30.4361 243.899 30.4361C243.612 30.4361 243.36 30.4957 243.145 30.6151C242.929 30.7315 242.761 30.8977 242.642 31.1136C242.525 31.3295 242.467 31.5866 242.467 31.8849H240.963C240.963 31.331 241.089 30.8494 241.342 30.4403C241.595 30.0312 241.943 29.7145 242.386 29.4901C242.832 29.2656 243.343 29.1534 243.92 29.1534C244.505 29.1534 245.02 29.2628 245.463 29.4815C245.906 29.7003 246.25 30 246.494 30.3807C246.741 30.7614 246.865 31.196 246.865 31.6847C246.865 32.0114 246.802 32.3324 246.677 32.6477C246.552 32.9631 246.332 33.3125 246.017 33.696C245.704 34.0795 245.265 34.544 244.7 35.0895L243.196 36.6193V36.679H246.997V38H241.014ZM252.017 29.2727V38H250.436V30.8111H250.385L248.343 32.1151V30.6662L250.512 29.2727H252.017ZM257.782 29.2727V38H256.201V30.8111H256.15L254.109 32.1151V30.6662L256.278 29.2727H257.782Z" fill="white"/>
<path d="M293 34C293 35.6569 291.657 37 290 37C288.343 37 287 35.6569 287 34C287 32.3431 288.343 31 290 31C291.657 31 293 32.3431 293 34Z" fill="#A8C5DA"/>
<path d="M299.057 38V29.2727H302.006C302.69 29.2727 303.25 29.3963 303.685 29.6435C304.122 29.8878 304.446 30.2188 304.656 30.6364C304.866 31.054 304.972 31.5199 304.972 32.0341C304.972 32.5483 304.866 33.0156 304.656 33.4361C304.449 33.8565 304.128 34.1918 303.693 34.4418C303.259 34.6889 302.702 34.8125 302.023 34.8125H299.909V33.875H301.989C302.457 33.875 302.834 33.794 303.118 33.6321C303.402 33.4702 303.608 33.2514 303.736 32.9759C303.866 32.6974 303.932 32.3835 303.932 32.0341C303.932 31.6847 303.866 31.3722 303.736 31.0966C303.608 30.821 303.401 30.6051 303.114 30.4489C302.827 30.2898 302.446 30.2102 301.972 30.2102H300.114V38H299.057ZM306.538 38V31.4545H307.509V32.4432H307.577C307.697 32.1193 307.913 31.8565 308.225 31.6548C308.538 31.4531 308.89 31.3523 309.282 31.3523C309.356 31.3523 309.448 31.3537 309.559 31.3565C309.67 31.3594 309.754 31.3636 309.81 31.3693V32.392C309.776 32.3835 309.698 32.3707 309.576 32.3537C309.457 32.3338 309.33 32.3239 309.197 32.3239C308.879 32.3239 308.594 32.3906 308.344 32.5241C308.097 32.6548 307.901 32.8366 307.756 33.0696C307.614 33.2997 307.543 33.5625 307.543 33.858V38H306.538ZM313.548 38.1364C312.917 38.1364 312.373 37.9972 311.915 37.7188C311.461 37.4375 311.11 37.0455 310.863 36.5426C310.619 36.0369 310.496 35.4489 310.496 34.7784C310.496 34.108 310.619 33.517 310.863 33.0057C311.11 32.4915 311.454 32.0909 311.894 31.804C312.337 31.5142 312.854 31.3693 313.445 31.3693C313.786 31.3693 314.123 31.4261 314.455 31.5398C314.788 31.6534 315.09 31.8381 315.363 32.0938C315.636 32.3466 315.853 32.6818 316.015 33.0994C316.177 33.517 316.258 34.0312 316.258 34.642V35.0682H311.212V34.1989H315.235C315.235 33.8295 315.161 33.5 315.013 33.2102C314.869 32.9205 314.661 32.6918 314.391 32.5241C314.124 32.3565 313.809 32.2727 313.445 32.2727C313.045 32.2727 312.698 32.3722 312.406 32.571C312.116 32.767 311.893 33.0227 311.737 33.3381C311.58 33.6534 311.502 33.9915 311.502 34.3523V34.9318C311.502 35.4261 311.587 35.8452 311.758 36.1889C311.931 36.5298 312.171 36.7898 312.478 36.9688C312.785 37.1449 313.141 37.233 313.548 37.233C313.812 37.233 314.05 37.196 314.263 37.1222C314.479 37.0455 314.665 36.9318 314.822 36.7812C314.978 36.6278 315.099 36.4375 315.184 36.2102L316.156 36.483C316.053 36.8125 315.881 37.1023 315.64 37.3523C315.398 37.5994 315.1 37.7926 314.745 37.9318C314.39 38.0682 313.991 38.1364 313.548 38.1364ZM322.941 31.4545L320.52 38H319.498L317.077 31.4545H318.168L319.975 36.6705H320.043L321.85 31.4545H322.941ZM324.268 38V31.4545H325.274V38H324.268ZM324.779 30.3636C324.583 30.3636 324.414 30.2969 324.272 30.1634C324.133 30.0298 324.064 29.8693 324.064 29.6818C324.064 29.4943 324.133 29.3338 324.272 29.2003C324.414 29.0668 324.583 29 324.779 29C324.975 29 325.143 29.0668 325.282 29.2003C325.424 29.3338 325.495 29.4943 325.495 29.6818C325.495 29.8693 325.424 30.0298 325.282 30.1634C325.143 30.2969 324.975 30.3636 324.779 30.3636ZM329.775 38.1364C329.184 38.1364 328.665 37.9957 328.219 37.7145C327.776 37.4332 327.43 37.0398 327.18 36.5341C326.933 36.0284 326.809 35.4375 326.809 34.7614C326.809 34.0795 326.933 33.4844 327.18 32.9759C327.43 32.4673 327.776 32.0724 328.219 31.7912C328.665 31.5099 329.184 31.3693 329.775 31.3693C330.366 31.3693 330.883 31.5099 331.326 31.7912C331.772 32.0724 332.119 32.4673 332.366 32.9759C332.616 33.4844 332.741 34.0795 332.741 34.7614C332.741 35.4375 332.616 36.0284 332.366 36.5341C332.119 37.0398 331.772 37.4332 331.326 37.7145C330.883 37.9957 330.366 38.1364 329.775 38.1364ZM329.775 37.233C330.224 37.233 330.593 37.1179 330.883 36.8878C331.173 36.6577 331.387 36.3551 331.526 35.9801C331.665 35.6051 331.735 35.1989 331.735 34.7614C331.735 34.3239 331.665 33.9162 331.526 33.5384C331.387 33.1605 331.173 32.8551 330.883 32.6222C330.593 32.3892 330.224 32.2727 329.775 32.2727C329.326 32.2727 328.957 32.3892 328.667 32.6222C328.377 32.8551 328.163 33.1605 328.023 33.5384C327.884 33.9162 327.815 34.3239 327.815 34.7614C327.815 35.1989 327.884 35.6051 328.023 35.9801C328.163 36.3551 328.377 36.6577 328.667 36.8878C328.957 37.1179 329.326 37.233 329.775 37.233ZM338.401 35.3239V31.4545H339.407V38H338.401V36.892H338.333C338.179 37.2244 337.941 37.5071 337.617 37.7401C337.293 37.9702 336.884 38.0852 336.39 38.0852C335.98 38.0852 335.617 37.9957 335.299 37.8168C334.98 37.6349 334.73 37.3622 334.549 36.9986C334.367 36.6321 334.276 36.1705 334.276 35.6136V31.4545H335.282V35.5455C335.282 36.0227 335.415 36.4034 335.682 36.6875C335.952 36.9716 336.296 37.1136 336.713 37.1136C336.963 37.1136 337.218 37.0497 337.476 36.9219C337.738 36.794 337.956 36.598 338.132 36.3338C338.311 36.0696 338.401 35.733 338.401 35.3239ZM345.885 32.9205L344.982 33.1761C344.925 33.0256 344.841 32.8793 344.73 32.7372C344.622 32.5923 344.474 32.473 344.287 32.3793C344.099 32.2855 343.859 32.2386 343.567 32.2386C343.166 32.2386 342.832 32.331 342.565 32.5156C342.301 32.6974 342.169 32.929 342.169 33.2102C342.169 33.4602 342.26 33.6577 342.442 33.8026C342.624 33.9474 342.908 34.0682 343.294 34.1648L344.266 34.4034C344.851 34.5455 345.287 34.7628 345.574 35.0554C345.861 35.3452 346.004 35.7187 346.004 36.1761C346.004 36.5511 345.896 36.8864 345.68 37.1818C345.467 37.4773 345.169 37.7102 344.786 37.8807C344.402 38.0511 343.956 38.1364 343.447 38.1364C342.78 38.1364 342.227 37.9915 341.79 37.7017C341.352 37.4119 341.075 36.9886 340.959 36.4318L341.913 36.1932C342.004 36.5455 342.176 36.8097 342.429 36.9858C342.685 37.1619 343.018 37.25 343.43 37.25C343.899 37.25 344.271 37.1506 344.547 36.9517C344.825 36.75 344.964 36.5085 344.964 36.2273C344.964 36 344.885 35.8097 344.726 35.6562C344.567 35.5 344.322 35.3835 343.993 35.3068L342.902 35.0511C342.303 34.9091 341.862 34.6889 341.581 34.3906C341.303 34.0895 341.163 33.7131 341.163 33.2614C341.163 32.892 341.267 32.5653 341.474 32.2812C341.685 31.9972 341.97 31.7741 342.331 31.6122C342.695 31.4503 343.107 31.3693 343.567 31.3693C344.214 31.3693 344.723 31.5114 345.092 31.7955C345.464 32.0795 345.729 32.4545 345.885 32.9205ZM352.615 38L350.228 29.2727H351.302L353.126 36.3807H353.211L355.069 29.2727H356.262L358.12 36.3807H358.206L360.029 29.2727H361.103L358.717 38H357.626L355.7 31.0455H355.632L353.706 38H352.615ZM364.419 38.1364C363.788 38.1364 363.244 37.9972 362.787 37.7188C362.332 37.4375 361.981 37.0455 361.734 36.5426C361.49 36.0369 361.368 35.4489 361.368 34.7784C361.368 34.108 361.49 33.517 361.734 33.0057C361.981 32.4915 362.325 32.0909 362.765 31.804C363.208 31.5142 363.725 31.3693 364.316 31.3693C364.657 31.3693 364.994 31.4261 365.326 31.5398C365.659 31.6534 365.961 31.8381 366.234 32.0938C366.507 32.3466 366.724 32.6818 366.886 33.0994C367.048 33.517 367.129 34.0312 367.129 34.642V35.0682H362.083V34.1989H366.106C366.106 33.8295 366.032 33.5 365.885 33.2102C365.74 32.9205 365.532 32.6918 365.262 32.5241C364.995 32.3565 364.68 32.2727 364.316 32.2727C363.916 32.2727 363.569 32.3722 363.277 32.571C362.987 32.767 362.764 33.0227 362.608 33.3381C362.451 33.6534 362.373 33.9915 362.373 34.3523V34.9318C362.373 35.4261 362.458 35.8452 362.629 36.1889C362.802 36.5298 363.042 36.7898 363.349 36.9688C363.656 37.1449 364.012 37.233 364.419 37.233C364.683 37.233 364.922 37.196 365.135 37.1222C365.35 37.0455 365.537 36.9318 365.693 36.7812C365.849 36.6278 365.97 36.4375 366.055 36.2102L367.027 36.483C366.924 36.8125 366.752 37.1023 366.511 37.3523C366.27 37.5994 365.971 37.7926 365.616 37.9318C365.261 38.0682 364.862 38.1364 364.419 38.1364ZM371.403 38.1364C370.772 38.1364 370.228 37.9972 369.771 37.7188C369.316 37.4375 368.966 37.0455 368.718 36.5426C368.474 36.0369 368.352 35.4489 368.352 34.7784C368.352 34.108 368.474 33.517 368.718 33.0057C368.966 32.4915 369.309 32.0909 369.75 31.804C370.193 31.5142 370.71 31.3693 371.301 31.3693C371.642 31.3693 371.978 31.4261 372.311 31.5398C372.643 31.6534 372.946 31.8381 373.218 32.0938C373.491 32.3466 373.708 32.6818 373.87 33.0994C374.032 33.517 374.113 34.0312 374.113 34.642V35.0682H369.068V34.1989H373.091C373.091 33.8295 373.017 33.5 372.869 33.2102C372.724 32.9205 372.517 32.6918 372.247 32.5241C371.98 32.3565 371.664 32.2727 371.301 32.2727C370.9 32.2727 370.554 32.3722 370.261 32.571C369.971 32.767 369.748 33.0227 369.592 33.3381C369.436 33.6534 369.358 33.9915 369.358 34.3523V34.9318C369.358 35.4261 369.443 35.8452 369.613 36.1889C369.787 36.5298 370.027 36.7898 370.333 36.9688C370.64 37.1449 370.997 37.233 371.403 37.233C371.667 37.233 371.906 37.196 372.119 37.1222C372.335 37.0455 372.521 36.9318 372.677 36.7812C372.833 36.6278 372.954 36.4375 373.039 36.2102L374.011 36.483C373.909 36.8125 373.737 37.1023 373.495 37.3523C373.254 37.5994 372.956 37.7926 372.6 37.9318C372.245 38.0682 371.846 38.1364 371.403 38.1364ZM376.581 35.6136L376.564 34.3693H376.768L379.632 31.4545H380.876L377.825 34.5398H377.74L376.581 35.6136ZM375.643 38V29.2727H376.649V38H375.643ZM379.802 38L377.245 34.7614L377.961 34.0625L381.081 38H379.802ZM388.213 39.0909V28.1818H388.912V39.0909H388.213ZM390.229 31.6719C390.189 31.2997 390.021 31.0099 389.726 30.8026C389.433 30.5952 389.053 30.4915 388.584 30.4915C388.254 30.4915 387.972 30.5412 387.736 30.6406C387.5 30.7401 387.32 30.875 387.195 31.0455C387.07 31.2159 387.006 31.4105 387.003 31.6293C387.003 31.8111 387.044 31.9687 387.126 32.1023C387.212 32.2358 387.327 32.3494 387.472 32.4432C387.616 32.5341 387.777 32.6108 387.953 32.6733C388.129 32.7358 388.307 32.7884 388.486 32.831L389.304 33.0355C389.634 33.1122 389.95 33.2159 390.254 33.3466C390.561 33.4773 390.835 33.642 391.077 33.8409C391.321 34.0398 391.514 34.2798 391.656 34.5611C391.798 34.8423 391.869 35.1719 391.869 35.5497C391.869 36.0611 391.739 36.5114 391.477 36.9006C391.216 37.2869 390.838 37.5895 390.344 37.8082C389.852 38.0241 389.257 38.1321 388.558 38.1321C387.879 38.1321 387.29 38.027 386.79 37.8168C386.293 37.6065 385.903 37.2997 385.622 36.8963C385.344 36.4929 385.193 36.0014 385.17 35.4219H386.726C386.749 35.7259 386.842 35.9787 387.007 36.1804C387.172 36.3821 387.386 36.5327 387.651 36.6321C387.918 36.7315 388.216 36.7812 388.545 36.7812C388.889 36.7812 389.19 36.7301 389.449 36.6278C389.71 36.5227 389.915 36.3778 390.062 36.1932C390.21 36.0057 390.286 35.7869 390.288 35.5369C390.286 35.3097 390.219 35.1222 390.088 34.9744C389.957 34.8239 389.774 34.6989 389.538 34.5994C389.305 34.4972 389.033 34.4062 388.72 34.3267L387.727 34.071C387.009 33.8864 386.44 33.6065 386.023 33.2315C385.608 32.8537 385.401 32.3523 385.401 31.7273C385.401 31.2131 385.54 30.7628 385.818 30.3764C386.099 29.9901 386.482 29.6903 386.964 29.4773C387.447 29.2614 387.994 29.1534 388.605 29.1534C389.224 29.1534 389.767 29.2614 390.233 29.4773C390.702 29.6903 391.07 29.9872 391.337 30.3679C391.604 30.7457 391.741 31.1804 391.75 31.6719H390.229ZM396.39 38.1193C395.972 38.1165 395.564 38.044 395.167 37.902C394.769 37.7571 394.411 37.5227 394.093 37.1989C393.775 36.8722 393.522 36.4389 393.334 35.8991C393.147 35.3565 393.054 34.6847 393.057 33.8835C393.057 33.1364 393.137 32.4702 393.296 31.8849C393.455 31.2997 393.684 30.8054 393.982 30.402C394.28 29.9957 394.64 29.6861 395.06 29.473C395.483 29.2599 395.956 29.1534 396.479 29.1534C397.027 29.1534 397.513 29.2614 397.936 29.4773C398.363 29.6932 398.706 29.9886 398.968 30.3636C399.229 30.7358 399.391 31.1562 399.453 31.625H397.898C397.819 31.2898 397.655 31.0227 397.408 30.8239C397.164 30.6222 396.854 30.5213 396.479 30.5213C395.874 30.5213 395.408 30.7841 395.081 31.3097C394.757 31.8352 394.594 32.5568 394.591 33.4744H394.651C394.79 33.2244 394.971 33.0099 395.192 32.831C395.414 32.652 395.664 32.5142 395.942 32.4176C396.223 32.3182 396.52 32.2685 396.833 32.2685C397.344 32.2685 397.803 32.3906 398.209 32.6349C398.618 32.8793 398.942 33.2159 399.181 33.6449C399.419 34.071 399.537 34.5597 399.534 35.1108C399.537 35.6847 399.407 36.2003 399.142 36.6577C398.878 37.1122 398.51 37.4702 398.039 37.7315C397.567 37.9929 397.017 38.1222 396.39 38.1193ZM396.381 36.8409C396.691 36.8409 396.968 36.7656 397.212 36.6151C397.456 36.4645 397.65 36.2614 397.792 36.0057C397.934 35.75 398.003 35.4631 398 35.1449C398.003 34.8324 397.935 34.5497 397.796 34.2969C397.659 34.044 397.471 33.8437 397.229 33.696C396.988 33.5483 396.712 33.4744 396.402 33.4744C396.172 33.4744 395.958 33.5185 395.759 33.6065C395.56 33.6946 395.387 33.8168 395.239 33.973C395.091 34.1264 394.975 34.3054 394.89 34.5099C394.807 34.7116 394.765 34.9276 394.762 35.1577C394.765 35.4616 394.836 35.7415 394.975 35.9972C395.114 36.2528 395.306 36.4574 395.55 36.6108C395.794 36.7642 396.071 36.8409 396.381 36.8409ZM404.077 38.1193C403.444 38.1193 402.881 38.0128 402.39 37.7997C401.901 37.5866 401.517 37.2955 401.239 36.9261C400.963 36.554 400.827 36.1321 400.83 35.6605C400.827 35.294 400.907 34.9574 401.069 34.6506C401.23 34.3438 401.449 34.0881 401.725 33.8835C402.003 33.6761 402.313 33.544 402.654 33.4872V33.4276C402.205 33.3281 401.841 33.0994 401.563 32.7415C401.287 32.3807 401.151 31.9645 401.154 31.4929C401.151 31.044 401.276 30.6435 401.529 30.2912C401.782 29.9389 402.128 29.6619 402.569 29.4602C403.009 29.2557 403.512 29.1534 404.077 29.1534C404.637 29.1534 405.135 29.2557 405.573 29.4602C406.013 29.6619 406.36 29.9389 406.613 30.2912C406.868 30.6435 406.996 31.044 406.996 31.4929C406.996 31.9645 406.855 32.3807 406.574 32.7415C406.296 33.0994 405.936 33.3281 405.496 33.4276V33.4872C405.837 33.544 406.144 33.6761 406.417 33.8835C406.692 34.0881 406.911 34.3438 407.073 34.6506C407.238 34.9574 407.32 35.294 407.32 35.6605C407.32 36.1321 407.181 36.554 406.902 36.9261C406.624 37.2955 406.24 37.5866 405.752 37.7997C405.266 38.0128 404.708 38.1193 404.077 38.1193ZM404.077 36.9006C404.404 36.9006 404.688 36.8452 404.929 36.7344C405.171 36.6207 405.358 36.4616 405.492 36.2571C405.625 36.0526 405.694 35.8168 405.696 35.5497C405.694 35.2713 405.621 35.0256 405.479 34.8125C405.34 34.5966 405.148 34.4276 404.904 34.3054C404.662 34.1832 404.387 34.1222 404.077 34.1222C403.765 34.1222 403.486 34.1832 403.242 34.3054C402.998 34.4276 402.804 34.5966 402.662 34.8125C402.523 35.0256 402.455 35.2713 402.458 35.5497C402.455 35.8168 402.52 36.0526 402.654 36.2571C402.787 36.4588 402.975 36.6165 403.216 36.7301C403.461 36.8437 403.748 36.9006 404.077 36.9006ZM404.077 32.9247C404.344 32.9247 404.58 32.8707 404.784 32.7628C404.992 32.6548 405.155 32.5043 405.275 32.3111C405.394 32.1179 405.455 31.8949 405.458 31.642C405.455 31.392 405.395 31.1733 405.279 30.9858C405.162 30.7955 405 30.6491 404.793 30.5469C404.586 30.4418 404.347 30.3892 404.077 30.3892C403.801 30.3892 403.559 30.4418 403.348 30.5469C403.141 30.6491 402.979 30.7955 402.863 30.9858C402.749 31.1733 402.694 31.392 402.696 31.642C402.694 31.8949 402.75 32.1179 402.867 32.3111C402.986 32.5014 403.15 32.652 403.357 32.7628C403.567 32.8707 403.807 32.9247 404.077 32.9247ZM410.291 36.8068L410.236 37.2756C410.196 37.6335 410.125 37.9972 410.023 38.3665C409.923 38.7386 409.818 39.081 409.707 39.3935C409.597 39.706 409.507 39.9517 409.439 40.1307H408.399C408.439 39.9574 408.493 39.7216 408.561 39.4233C408.632 39.125 408.7 38.7898 408.766 38.4176C408.831 38.0455 408.875 37.6676 408.898 37.2841L408.928 36.8068H410.291ZM412.04 38L415.752 30.6534V30.5938H411.444V29.2727H417.388V30.6236L413.681 38H412.04ZM421.772 38.1193C421.355 38.1165 420.947 38.044 420.549 37.902C420.152 37.7571 419.794 37.5227 419.475 37.1989C419.157 36.8722 418.904 36.4389 418.717 35.8991C418.529 35.3565 418.437 34.6847 418.44 33.8835C418.44 33.1364 418.52 32.4702 418.679 31.8849C418.838 31.2997 419.066 30.8054 419.365 30.402C419.663 29.9957 420.022 29.6861 420.443 29.473C420.866 29.2599 421.339 29.1534 421.862 29.1534C422.41 29.1534 422.896 29.2614 423.319 29.4773C423.745 29.6932 424.089 29.9886 424.35 30.3636C424.612 30.7358 424.774 31.1562 424.836 31.625H423.281C423.201 31.2898 423.038 31.0227 422.791 30.8239C422.547 30.6222 422.237 30.5213 421.862 30.5213C421.257 30.5213 420.791 30.7841 420.464 31.3097C420.14 31.8352 419.977 32.5568 419.974 33.4744H420.034C420.173 33.2244 420.353 33.0099 420.575 32.831C420.797 32.652 421.047 32.5142 421.325 32.4176C421.606 32.3182 421.903 32.2685 422.216 32.2685C422.727 32.2685 423.186 32.3906 423.592 32.6349C424.001 32.8793 424.325 33.2159 424.564 33.6449C424.802 34.071 424.92 34.5597 424.917 35.1108C424.92 35.6847 424.789 36.2003 424.525 36.6577C424.261 37.1122 423.893 37.4702 423.422 37.7315C422.95 37.9929 422.4 38.1222 421.772 38.1193ZM421.764 36.8409C422.074 36.8409 422.35 36.7656 422.595 36.6151C422.839 36.4645 423.032 36.2614 423.174 36.0057C423.316 35.75 423.386 35.4631 423.383 35.1449C423.386 34.8324 423.318 34.5497 423.179 34.2969C423.042 34.044 422.853 33.8437 422.612 33.696C422.37 33.5483 422.095 33.4744 421.785 33.4744C421.555 33.4744 421.341 33.5185 421.142 33.6065C420.943 33.6946 420.77 33.8168 420.622 33.973C420.474 34.1264 420.358 34.3054 420.272 34.5099C420.19 34.7116 420.147 34.9276 420.145 35.1577C420.147 35.4616 420.218 35.7415 420.358 35.9972C420.497 36.2528 420.689 36.4574 420.933 36.6108C421.177 36.7642 421.454 36.8409 421.764 36.8409ZM429.46 38.1193C428.826 38.1193 428.264 38.0128 427.772 37.7997C427.284 37.5866 426.9 37.2955 426.622 36.9261C426.346 36.554 426.21 36.1321 426.213 35.6605C426.21 35.294 426.289 34.9574 426.451 34.6506C426.613 34.3438 426.832 34.0881 427.108 33.8835C427.386 33.6761 427.696 33.544 428.037 33.4872V33.4276C427.588 33.3281 427.224 33.0994 426.946 32.7415C426.67 32.3807 426.534 31.9645 426.537 31.4929C426.534 31.044 426.659 30.6435 426.912 30.2912C427.164 29.9389 427.511 29.6619 427.951 29.4602C428.392 29.2557 428.895 29.1534 429.46 29.1534C430.02 29.1534 430.518 29.2557 430.956 29.4602C431.396 29.6619 431.743 29.9389 431.995 30.2912C432.251 30.6435 432.379 31.044 432.379 31.4929C432.379 31.9645 432.238 32.3807 431.957 32.7415C431.679 33.0994 431.319 33.3281 430.879 33.4276V33.4872C431.22 33.544 431.527 33.6761 431.799 33.8835C432.075 34.0881 432.294 34.3438 432.456 34.6506C432.62 34.9574 432.703 35.294 432.703 35.6605C432.703 36.1321 432.564 36.554 432.285 36.9261C432.007 37.2955 431.623 37.5866 431.135 37.7997C430.649 38.0128 430.091 38.1193 429.46 38.1193ZM429.46 36.9006C429.787 36.9006 430.071 36.8452 430.312 36.7344C430.554 36.6207 430.741 36.4616 430.875 36.2571C431.008 36.0526 431.076 35.8168 431.079 35.5497C431.076 35.2713 431.004 35.0256 430.862 34.8125C430.723 34.5966 430.531 34.4276 430.287 34.3054C430.045 34.1832 429.77 34.1222 429.46 34.1222C429.147 34.1222 428.869 34.1832 428.625 34.3054C428.38 34.4276 428.187 34.5966 428.045 34.8125C427.906 35.0256 427.838 35.2713 427.841 35.5497C427.838 35.8168 427.903 36.0526 428.037 36.2571C428.17 36.4588 428.358 36.6165 428.599 36.7301C428.843 36.8437 429.13 36.9006 429.46 36.9006ZM429.46 32.9247C429.727 32.9247 429.963 32.8707 430.167 32.7628C430.375 32.6548 430.538 32.5043 430.657 32.3111C430.777 32.1179 430.838 31.8949 430.841 31.642C430.838 31.392 430.778 31.1733 430.662 30.9858C430.545 30.7955 430.383 30.6491 430.176 30.5469C429.968 30.4418 429.73 30.3892 429.46 30.3892C429.184 30.3892 428.941 30.4418 428.731 30.5469C428.524 30.6491 428.362 30.7955 428.245 30.9858C428.132 31.1733 428.076 31.392 428.079 31.642C428.076 31.8949 428.133 32.1179 428.25 32.3111C428.369 32.5014 428.532 32.652 428.74 32.7628C428.95 32.8707 429.19 32.9247 429.46 32.9247Z" fill="white"/>
<path d="M27.8952 73.1193C27.3327 73.1193 26.8313 73.0227 26.391 72.8295C25.9535 72.6364 25.6055 72.3679 25.3469 72.0241C25.0913 71.6776 24.9521 71.2756 24.9293 70.8182H26.0032C26.0259 71.0994 26.1225 71.3423 26.293 71.5469C26.4634 71.7486 26.6864 71.9048 26.962 72.0156C27.2376 72.1264 27.543 72.1818 27.8782 72.1818C28.2532 72.1818 28.5856 72.1165 28.8754 71.9858C29.1651 71.8551 29.3924 71.6733 29.5572 71.4403C29.7219 71.2074 29.8043 70.9375 29.8043 70.6307C29.8043 70.3097 29.7248 70.027 29.5657 69.7827C29.4066 69.5355 29.1737 69.3423 28.8668 69.2031C28.56 69.0639 28.185 68.9943 27.7418 68.9943H27.043V68.0568H27.7418C28.0884 68.0568 28.3924 67.9943 28.6538 67.8693C28.918 67.7443 29.1239 67.5682 29.2717 67.3409C29.4222 67.1136 29.4975 66.8466 29.4975 66.5398C29.4975 66.2443 29.4322 65.9872 29.3015 65.7685C29.1708 65.5497 28.9862 65.3793 28.7475 65.2571C28.5117 65.1349 28.2333 65.0739 27.9123 65.0739C27.6112 65.0739 27.3271 65.1293 27.06 65.2401C26.7958 65.348 26.5799 65.5057 26.4123 65.7131C26.2447 65.9176 26.1538 66.1648 26.1396 66.4545H25.1168C25.1339 65.9972 25.2717 65.5966 25.5302 65.2528C25.7887 64.9062 26.1268 64.6364 26.5444 64.4432C26.9648 64.25 27.4265 64.1534 27.9293 64.1534C28.4691 64.1534 28.9322 64.2628 29.3185 64.4815C29.7049 64.6974 30.0018 64.983 30.2092 65.3381C30.4165 65.6932 30.5202 66.0767 30.5202 66.4886C30.5202 66.9801 30.391 67.3991 30.1325 67.7457C29.8768 68.0923 29.5288 68.3324 29.0884 68.4659V68.5341C29.6396 68.625 30.07 68.8594 30.3796 69.2372C30.6893 69.6122 30.8441 70.0767 30.8441 70.6307C30.8441 71.1051 30.7148 71.5312 30.4563 71.9091C30.2006 72.2841 29.8512 72.5795 29.408 72.7955C28.9648 73.0114 28.4606 73.1193 27.8952 73.1193ZM35.4847 73.1193C35.1268 73.1136 34.7688 73.0455 34.4109 72.9148C34.0529 72.7841 33.7262 72.5639 33.4308 72.2543C33.1353 71.9418 32.8981 71.5199 32.7191 70.9886C32.5401 70.4545 32.4506 69.7841 32.4506 68.9773C32.4506 68.2045 32.5231 67.5199 32.668 66.9233C32.8129 66.3239 33.0231 65.8196 33.2987 65.4105C33.5742 64.9986 33.9066 64.6861 34.2958 64.473C34.6879 64.2599 35.1296 64.1534 35.6211 64.1534C36.1097 64.1534 36.5444 64.2514 36.9251 64.4474C37.3086 64.6406 37.6211 64.9105 37.8626 65.2571C38.104 65.6037 38.2603 66.0028 38.3313 66.4545H37.2915C37.195 66.0625 37.0075 65.7372 36.729 65.4787C36.4506 65.2202 36.0813 65.0909 35.6211 65.0909C34.945 65.0909 34.4123 65.3849 34.0231 65.973C33.6367 66.5611 33.4421 67.3864 33.4393 68.4489H33.5075C33.6665 68.2074 33.8555 68.0014 34.0742 67.831C34.2958 67.6577 34.5401 67.5241 34.8072 67.4304C35.0742 67.3366 35.3569 67.2898 35.6552 67.2898C36.1552 67.2898 36.6126 67.4148 37.0273 67.6648C37.4421 67.9119 37.7745 68.2543 38.0245 68.6918C38.2745 69.1264 38.3995 69.625 38.3995 70.1875C38.3995 70.7273 38.2788 71.2216 38.0373 71.6705C37.7958 72.1165 37.4563 72.4716 37.0188 72.7358C36.5842 72.9972 36.0728 73.125 35.4847 73.1193ZM35.4847 72.1818C35.8427 72.1818 36.1637 72.0923 36.4478 71.9134C36.7347 71.7344 36.9606 71.4943 37.1254 71.1932C37.293 70.892 37.3768 70.5568 37.3768 70.1875C37.3768 69.8267 37.2958 69.4986 37.1339 69.2031C36.9748 68.9048 36.7546 68.6676 36.4734 68.4915C36.195 68.3153 35.8768 68.2273 35.5188 68.2273C35.2489 68.2273 34.9975 68.2812 34.7646 68.3892C34.5316 68.4943 34.3271 68.6392 34.1509 68.8239C33.9776 69.0085 33.8413 69.2202 33.7418 69.4588C33.6424 69.6946 33.5927 69.9432 33.5927 70.2045C33.5927 70.5511 33.6737 70.875 33.8356 71.1761C34.0004 71.4773 34.2248 71.7202 34.5089 71.9048C34.7958 72.0895 35.1211 72.1818 35.4847 72.1818ZM40.2287 73V64.2727H41.2855V68.6023H41.3878L45.3082 64.2727H46.6889L43.0241 68.2102L46.6889 73H45.4105L42.3764 68.9432L41.2855 70.1705V73H40.2287Z" fill="white" fill-opacity="0.4"/>
<path d="M25.9542 120V119.233L28.8349 116.08C29.1729 115.71 29.4513 115.389 29.6701 115.116C29.8888 114.841 30.0508 114.582 30.1559 114.341C30.2638 114.097 30.3178 113.841 30.3178 113.574C30.3178 113.267 30.244 113.001 30.0962 112.777C29.9513 112.553 29.7525 112.379 29.4996 112.257C29.2468 112.135 28.9627 112.074 28.6474 112.074C28.3121 112.074 28.0195 112.143 27.7695 112.283C27.5224 112.419 27.3306 112.611 27.1942 112.858C27.0607 113.105 26.994 113.395 26.994 113.727H25.9883C25.9883 113.216 26.1062 112.767 26.342 112.381C26.5778 111.994 26.8988 111.693 27.305 111.477C27.7141 111.261 28.1729 111.153 28.6815 111.153C29.1928 111.153 29.646 111.261 30.0408 111.477C30.4357 111.693 30.7454 111.984 30.9698 112.351C31.1942 112.717 31.3065 113.125 31.3065 113.574C31.3065 113.895 31.2482 114.209 31.1317 114.516C31.0181 114.82 30.8192 115.159 30.5352 115.534C30.2539 115.906 29.8633 116.361 29.3633 116.898L27.4031 118.994V119.062H31.4599V120H25.9542ZM33.4925 120L37.396 112.278V112.21H32.896V111.273H38.4869V112.261L34.6005 120H33.4925ZM40.2287 120V111.273H41.2855V115.602H41.3878L45.3082 111.273H46.6889L43.0241 115.21L46.6889 120H45.4105L42.3764 115.943L41.2855 117.17V120H40.2287Z" fill="white" fill-opacity="0.4"/>
<path d="M30.1708 158.273V167H29.114V159.381H29.0629L26.9322 160.795V159.722L29.114 158.273H30.1708ZM35.4762 167.119C34.891 167.119 34.3739 167.016 33.9251 166.808C33.479 166.598 33.131 166.31 32.881 165.943C32.631 165.574 32.5075 165.153 32.5103 164.682C32.5075 164.312 32.5799 163.972 32.7276 163.659C32.8754 163.344 33.0771 163.081 33.3327 162.871C33.5913 162.658 33.8796 162.523 34.1978 162.466V162.415C33.7802 162.307 33.4478 162.072 33.2006 161.712C32.9535 161.348 32.8313 160.935 32.8342 160.472C32.8313 160.028 32.9435 159.632 33.1708 159.283C33.3981 158.933 33.7106 158.658 34.1083 158.456C34.5089 158.254 34.9648 158.153 35.4762 158.153C35.9819 158.153 36.4336 158.254 36.8313 158.456C37.229 158.658 37.5415 158.933 37.7688 159.283C37.9989 159.632 38.1154 160.028 38.1183 160.472C38.1154 160.935 37.989 161.348 37.739 161.712C37.4918 162.072 37.1637 162.307 36.7546 162.415V162.466C37.07 162.523 37.354 162.658 37.6069 162.871C37.8597 163.081 38.0614 163.344 38.212 163.659C38.3626 163.972 38.4393 164.312 38.4421 164.682C38.4393 165.153 38.3114 165.574 38.0586 165.943C37.8086 166.31 37.4606 166.598 37.0146 166.808C36.5714 167.016 36.0586 167.119 35.4762 167.119ZM35.4762 166.182C35.8711 166.182 36.212 166.118 36.4989 165.99C36.7859 165.862 37.0075 165.682 37.1637 165.449C37.32 165.216 37.3995 164.943 37.4023 164.631C37.3995 164.301 37.3143 164.01 37.1467 163.757C36.979 163.504 36.7504 163.305 36.4606 163.161C36.1737 163.016 35.8455 162.943 35.4762 162.943C35.104 162.943 34.7717 163.016 34.479 163.161C34.1893 163.305 33.9606 163.504 33.793 163.757C33.6282 164.01 33.5472 164.301 33.5501 164.631C33.5472 164.943 33.6225 165.216 33.7759 165.449C33.9322 165.682 34.1552 165.862 34.445 165.99C34.7347 166.118 35.0785 166.182 35.4762 166.182ZM35.4762 162.04C35.7887 162.04 36.0657 161.977 36.3072 161.852C36.5515 161.727 36.7433 161.553 36.8825 161.328C37.0217 161.104 37.0927 160.841 37.0955 160.54C37.0927 160.244 37.0231 159.987 36.8867 159.768C36.7504 159.547 36.5614 159.376 36.32 159.257C36.0785 159.135 35.7972 159.074 35.4762 159.074C35.1495 159.074 34.864 159.135 34.6197 159.257C34.3754 159.376 34.1864 159.547 34.0529 159.768C33.9194 159.987 33.854 160.244 33.8569 160.54C33.854 160.841 33.9208 161.104 34.0572 161.328C34.1964 161.553 34.3881 161.727 34.6325 161.852C34.8768 161.977 35.158 162.04 35.4762 162.04ZM40.2287 167V158.273H41.2855V162.602H41.3878L45.3082 158.273H46.6889L43.0241 162.21L46.6889 167H45.4105L42.3764 162.943L41.2855 164.17V167H40.2287Z" fill="white" fill-opacity="0.4"/>
<path d="M35.3654 205.153C35.7234 205.156 36.0813 205.224 36.4393 205.358C36.7972 205.491 37.1239 205.713 37.4194 206.023C37.7148 206.33 37.9521 206.749 38.131 207.28C38.31 207.811 38.3995 208.477 38.3995 209.278C38.3995 210.054 38.3256 210.743 38.1779 211.345C38.033 211.945 37.8228 212.45 37.5472 212.862C37.2745 213.274 36.9421 213.587 36.5501 213.8C36.1609 214.013 35.7205 214.119 35.229 214.119C34.7404 214.119 34.3043 214.023 33.9208 213.83C33.5401 213.634 33.2276 213.362 32.9833 213.016C32.7418 212.666 32.587 212.261 32.5188 211.801H33.5586C33.6523 212.202 33.8384 212.533 34.1168 212.794C34.3981 213.053 34.7688 213.182 35.229 213.182C35.9023 213.182 36.4336 212.888 36.8228 212.3C37.2148 211.712 37.4109 210.881 37.4109 209.807H37.3427C37.1836 210.045 36.9947 210.251 36.7759 210.425C36.5572 210.598 36.3143 210.732 36.0472 210.825C35.7802 210.919 35.4961 210.966 35.195 210.966C34.695 210.966 34.2362 210.842 33.8185 210.595C33.4038 210.345 33.0714 210.003 32.8214 209.568C32.5742 209.131 32.4506 208.631 32.4506 208.068C32.4506 207.534 32.57 207.045 32.8086 206.602C33.0501 206.156 33.3881 205.801 33.8228 205.537C34.2603 205.273 34.7745 205.145 35.3654 205.153ZM35.3654 206.091C35.0075 206.091 34.685 206.18 34.3981 206.359C34.114 206.536 33.8881 206.774 33.7205 207.075C33.5558 207.374 33.4734 207.705 33.4734 208.068C33.4734 208.432 33.5529 208.763 33.712 209.061C33.8739 209.357 34.0941 209.592 34.3725 209.768C34.6538 209.942 34.9734 210.028 35.3313 210.028C35.6012 210.028 35.8526 209.976 36.0856 209.871C36.3185 209.763 36.5217 209.616 36.695 209.432C36.8711 209.244 37.0089 209.033 37.1083 208.797C37.2077 208.558 37.2575 208.31 37.2575 208.051C37.2575 207.71 37.1751 207.391 37.0103 207.092C36.8484 206.794 36.6239 206.553 36.337 206.368C36.0529 206.183 35.729 206.091 35.3654 206.091ZM40.2287 214V205.273H41.2855V209.602H41.3878L45.3082 205.273H46.6889L43.0241 209.21L46.6889 214H45.4105L42.3764 209.943L41.2855 211.17V214H40.2287Z" fill="white" fill-opacity="0.4"/>
<path d="M43.25 261.119C42.608 261.119 42.0611 260.945 41.6094 260.595C41.1577 260.243 40.8125 259.733 40.5739 259.065C40.3352 258.395 40.2159 257.585 40.2159 256.636C40.2159 255.693 40.3352 254.888 40.5739 254.22C40.8153 253.55 41.1619 253.038 41.6136 252.686C42.0682 252.331 42.6136 252.153 43.25 252.153C43.8864 252.153 44.4304 252.331 44.8821 252.686C45.3366 253.038 45.6832 253.55 45.9219 254.22C46.1634 254.888 46.2841 255.693 46.2841 256.636C46.2841 257.585 46.1648 258.395 45.9261 259.065C45.6875 259.733 45.3423 260.243 44.8906 260.595C44.4389 260.945 43.892 261.119 43.25 261.119ZM43.25 260.182C43.8864 260.182 44.3807 259.875 44.733 259.261C45.0852 258.648 45.2614 257.773 45.2614 256.636C45.2614 255.881 45.1804 255.237 45.0185 254.706C44.8594 254.175 44.6293 253.77 44.3281 253.491C44.0298 253.213 43.6705 253.074 43.25 253.074C42.6193 253.074 42.1264 253.385 41.7713 254.007C41.4162 254.626 41.2386 255.503 41.2386 256.636C41.2386 257.392 41.3182 258.034 41.4773 258.562C41.6364 259.091 41.8651 259.493 42.1634 259.768C42.4645 260.044 42.8267 260.182 43.25 260.182Z" fill="white" fill-opacity="0.4"/>
<line x1="63.5" y1="75.5" x2="637.5" y2="75.5" stroke="white" stroke-opacity="0.05" stroke-linecap="round"/>
<line x1="63.5" y1="123" x2="637.5" y2="123" stroke="white" stroke-opacity="0.05" stroke-linecap="round"/>
<line x1="63.5" y1="170.5" x2="637.5" y2="170.5" stroke="white" stroke-opacity="0.05" stroke-linecap="round"/>
<line x1="63.5" y1="218" x2="637.5" y2="218" stroke="white" stroke-opacity="0.05" stroke-linecap="round"/>
<line x1="63.5" y1="265.5" x2="637.5" y2="265.5" stroke="white" stroke-opacity="0.2" stroke-linecap="round"/>
<path d="M85 217C90.3165 210.386 102.445 197.323 108.426 197.984C115.902 198.811 122.382 208.732 130.855 208.732C139.328 208.732 146.495 183.102 156.773 189.717C178.885 203.947 173.719 181.449 193.656 189.717C209.606 196.331 224.558 188.063 230.041 183.102C236.354 178.693 253.666 170.37 272.407 172.354C295.833 174.835 314.773 172.354 324.741 156.646C327.994 151.521 342.685 133.496 360.628 140.11C378.571 146.724 398.009 115.307 401 112" stroke="#C6C7F8" stroke-width="3" stroke-linecap="round" stroke-linejoin="round"/>
<path d="M85 217C90.3165 210.386 102.445 197.323 108.426 197.984C115.902 198.811 122.382 208.732 130.855 208.732C139.328 208.732 146.495 183.102 156.773 189.717C178.885 203.947 173.719 181.449 193.656 189.717C209.606 196.331 224.558 188.063 230.041 183.102C236.354 178.693 253.666 170.37 272.407 172.354C295.833 174.835 314.773 172.354 324.741 156.646C327.994 151.521 342.685 133.496 360.628 140.11C378.571 146.724 398.009 115.307 401 112" stroke="url(#paint1_linear_1506_11321)" stroke-width="3" stroke-linecap="round" stroke-linejoin="round"/>
<path d="M79 205.786C83.266 197.631 96.0642 181.92 113.128 184.317C134.458 187.312 141.687 202.648 146.952 205.786C165.54 216.862 162.492 205.786 181.08 176.328C207.942 133.759 213.685 176.328 228.616 176.328C238.976 176.328 242.472 143.398 272.495 155.359C286.512 160.943 299.006 160.352 305.405 147.371C311.804 134.39 331.61 124.404 345.323 130.395C359.035 136.387 369.154 130.842 372.442 127.4C383.412 115.916 391.64 124.903 402 134.39" stroke="#A8C5DA" stroke-width="3" stroke-linecap="round" stroke-linejoin="round"/>
<path d="M79 205.786C83.266 197.631 96.0642 181.92 113.128 184.317C134.458 187.312 141.687 202.648 146.952 205.786C165.54 216.862 162.492 205.786 181.08 176.328C207.942 133.759 213.685 176.328 228.616 176.328C238.976 176.328 242.472 143.398 272.495 155.359C286.512 160.943 299.006 160.352 305.405 147.371C311.804 134.39 331.61 124.404 345.323 130.395C359.035 136.387 369.154 130.842 372.442 127.4C383.412 115.916 391.64 124.903 402 134.39" stroke="url(#paint2_linear_1506_11321)" stroke-width="3" stroke-linecap="round" stroke-linejoin="round"/>
</g>
</g>
<defs>
<filter id="filter0_di_1506_11321" x="-50.3704" y="-25.1852" width="762.741" height="420.741" filterUnits="userSpaceOnUse" color-interpolation-filters="sRGB">
<feFlood flood-opacity="0" result="BackgroundImageFix"/>
<feColorMatrix in="SourceAlpha" type="matrix" values="0 0 0 0 0 0 0 0 0 0 0 0 0 0 0 0 0 0 127 0" result="hardAlpha"/>
<feOffset dy="25.1852"/>
<feGaussianBlur stdDeviation="25.1852"/>
<feComposite in2="hardAlpha" operator="out"/>
<feColorMatrix type="matrix" values="0 0 0 0 0 0 0 0 0 0 0 0 0 0 0 0 0 0 0.5 0"/>
<feBlend mode="normal" in2="BackgroundImageFix" result="effect1_dropShadow_1506_11321"/>
<feBlend mode="normal" in="SourceGraphic" in2="effect1_dropShadow_1506_11321" result="shape"/>
<feColorMatrix in="SourceAlpha" type="matrix" values="0 0 0 0 0 0 0 0 0 0 0 0 0 0 0 0 0 0 127 0" result="hardAlpha"/>
<feOffset dy="1.25926"/>
<feGaussianBlur stdDeviation="1.25926"/>
<feComposite in2="hardAlpha" operator="arithmetic" k2="-1" k3="1"/>
<feColorMatrix type="matrix" values="0 0 0 0 1 0 0 0 0 1 0 0 0 0 1 0 0 0 0.1 0"/>
<feBlend mode="normal" in2="shape" result="effect2_innerShadow_1506_11321"/>
</filter>
<linearGradient id="paint0_linear_1506_11321" x1="0" y1="0" x2="228.199" y2="557.076" gradientUnits="userSpaceOnUse">
<stop stop-color="#2D2D2F"/>
<stop offset="1" stop-color="#2B2B2E" stop-opacity="0.17"/>
</linearGradient>
<linearGradient id="paint1_linear_1506_11321" x1="300.055" y1="107.882" x2="300.055" y2="217" gradientUnits="userSpaceOnUse">
<stop stop-color="#FF51D7"/>
<stop offset="0.500654" stop-color="#C300FF"/>
<stop offset="1" stop-color="#1E43FF"/>
</linearGradient>
<linearGradient id="paint2_linear_1506_11321" x1="84.5465" y1="197.399" x2="381.012" y2="156.218" gradientUnits="userSpaceOnUse">
<stop stop-color="#3DE85D"/>
<stop offset="0.494792" stop-color="#03F6F4"/>
<stop offset="1" stop-color="#6A54FF"/>
</linearGradient>
<clipPath id="clip0_1506_11321">
<path d="M0 21C0 9.40202 9.40202 0 21 0H361V252C361 263.598 351.598 273 340 273H0V21Z" fill="white"/>
</clipPath>
</defs>
</svg>
