<svg width="352" height="269" viewBox="0 0 352 269" fill="none" xmlns="http://www.w3.org/2000/svg">
<g filter="url(#filter0_i_1506_11221)">
<rect width="544" height="317.333" rx="25.1852" fill="url(#paint0_linear_1506_11221)"/>
<path d="M31.4868 49.2222V36.4006H36.2949C37.2799 36.4006 38.1063 36.5843 38.774 36.9515C39.446 37.3188 39.9531 37.8238 40.2953 38.4666C40.6418 39.1052 40.815 39.8314 40.815 40.6453C40.815 41.4675 40.6418 42.1979 40.2953 42.8364C39.9489 43.475 39.4377 43.9779 38.7615 44.3452C38.0854 44.7083 37.2527 44.8899 36.2636 44.8899H33.077V42.9804H35.9505C36.5265 42.9804 36.9981 42.8803 37.3654 42.6799C37.7327 42.4796 38.004 42.2041 38.1793 41.8535C38.3588 41.5029 38.4485 41.1002 38.4485 40.6453C38.4485 40.1903 38.3588 39.7896 38.1793 39.4432C38.004 39.0968 37.7306 38.8276 37.3592 38.6356C36.9919 38.4395 36.5182 38.3414 35.938 38.3414H33.8094V49.2222H31.4868ZM42.7323 49.2222V39.606H44.9297V41.2087H45.0299C45.2052 40.6536 45.5057 40.2258 45.9314 39.9253C46.3613 39.6206 46.8517 39.4683 47.4026 39.4683C47.5278 39.4683 47.6676 39.4745 47.8221 39.4871C47.9807 39.4954 48.1121 39.51 48.2165 39.5309V41.6156C48.1205 41.5822 47.9681 41.553 47.7595 41.528C47.5549 41.4988 47.3567 41.4842 47.1647 41.4842C46.7515 41.4842 46.3801 41.5739 46.0503 41.7534C45.7248 41.9287 45.4681 42.1728 45.2803 42.4858C45.0925 42.7989 44.9986 43.1599 44.9986 43.5689V49.2222H42.7323ZM53.5207 49.41C52.5816 49.41 51.7678 49.2034 51.0791 48.7902C50.3904 48.377 49.8562 47.7989 49.4764 47.056C49.1008 46.3131 48.913 45.445 48.913 44.4517C48.913 43.4583 49.1008 42.5881 49.4764 41.841C49.8562 41.0939 50.3904 40.5138 51.0791 40.1006C51.7678 39.6874 52.5816 39.4808 53.5207 39.4808C54.4598 39.4808 55.2736 39.6874 55.9623 40.1006C56.651 40.5138 57.1831 41.0939 57.5587 41.841C57.9385 42.5881 58.1284 43.4583 58.1284 44.4517C58.1284 45.445 57.9385 46.3131 57.5587 47.056C57.1831 47.7989 56.651 48.377 55.9623 48.7902C55.2736 49.2034 54.4598 49.41 53.5207 49.41ZM53.5332 47.5944C54.0424 47.5944 54.4681 47.4546 54.8104 47.175C55.1526 46.8912 55.4072 46.5114 55.5742 46.0356C55.7453 45.5598 55.8308 45.0297 55.8308 44.4454C55.8308 43.8569 55.7453 43.3248 55.5742 42.849C55.4072 42.369 55.1526 41.9871 54.8104 41.7033C54.4681 41.4195 54.0424 41.2776 53.5332 41.2776C53.0115 41.2776 52.5774 41.4195 52.231 41.7033C51.8888 41.9871 51.6321 42.369 51.461 42.849C51.294 43.3248 51.2106 43.8569 51.2106 44.4454C51.2106 45.0297 51.294 45.5598 51.461 46.0356C51.6321 46.5114 51.8888 46.8912 52.231 47.175C52.5774 47.4546 53.0115 47.5944 53.5332 47.5944ZM60.052 39.606H62.3183V49.7731C62.3183 50.4659 62.1868 51.0377 61.9239 51.4885C61.6609 51.9392 61.2811 52.2752 60.7845 52.4964C60.2878 52.7176 59.6847 52.8282 58.9752 52.8282C58.8917 52.8282 58.8145 52.8261 58.7435 52.822C58.6726 52.822 58.5954 52.8199 58.5119 52.8157V50.9689C58.5745 50.973 58.6308 50.9751 58.6809 50.9751C58.731 50.9793 58.7832 50.9814 58.8374 50.9814C59.2715 50.9814 59.5824 50.8749 59.7703 50.6621C59.9581 50.4534 60.052 50.1466 60.052 49.7418V39.606ZM61.1789 38.2412C60.8158 38.2412 60.5048 38.1223 60.2461 37.8844C59.9915 37.6423 59.8642 37.3522 59.8642 37.0142C59.8642 36.6719 59.9915 36.3818 60.2461 36.1439C60.5048 35.9019 60.8158 35.7808 61.1789 35.7808C61.5378 35.7808 61.8446 35.9019 62.0992 36.1439C62.3579 36.3818 62.4873 36.6719 62.4873 37.0142C62.4873 37.3522 62.3579 37.6423 62.0992 37.8844C61.8446 38.1223 61.5378 38.2412 61.1789 38.2412ZM68.9059 49.41C67.9418 49.41 67.1092 49.2096 66.408 48.809C65.711 48.4041 65.1747 47.8323 64.799 47.0936C64.4234 46.3507 64.2356 45.4763 64.2356 44.4704C64.2356 43.4813 64.4234 42.6131 64.799 41.8661C65.1788 41.1148 65.7089 40.5305 66.3892 40.1131C67.0695 39.6916 67.8688 39.4808 68.787 39.4808C69.3796 39.4808 69.9389 39.5768 70.4648 39.7688C70.9949 39.9566 71.4623 40.2488 71.8672 40.6453C72.2762 41.0418 72.5976 41.5468 72.8313 42.1603C73.065 42.7697 73.1819 43.4959 73.1819 44.339V45.0339H65.2999V43.5063H71.0095C71.0053 43.0722 70.9114 42.6862 70.7277 42.3481C70.5441 42.0059 70.2874 41.7367 69.9577 41.5405C69.6322 41.3443 69.2523 41.2463 68.8183 41.2463C68.355 41.2463 67.9481 41.359 67.5975 41.5843C67.2469 41.8055 66.9735 42.0977 66.7774 42.4608C66.5854 42.8197 66.4873 43.2142 66.4831 43.644V44.9775C66.4831 45.5368 66.5854 46.0168 66.7899 46.4175C66.9944 46.814 67.2803 47.1186 67.6476 47.3315C68.0149 47.5402 68.4447 47.6445 68.9372 47.6445C69.267 47.6445 69.5654 47.5986 69.8325 47.5068C70.0996 47.4108 70.3312 47.271 70.5274 47.0873C70.7236 46.9037 70.8717 46.6762 70.9719 46.4049L73.088 46.6428C72.9544 47.2021 72.6998 47.6904 72.3242 48.1078C71.9527 48.521 71.4769 48.8424 70.8968 49.0719C70.3166 49.2973 69.653 49.41 68.9059 49.41ZM79.2937 49.41C78.3338 49.41 77.5095 49.1992 76.8208 48.7777C76.1363 48.3561 75.6083 47.7739 75.2369 47.031C74.8696 46.2839 74.686 45.4241 74.686 44.4517C74.686 43.475 74.8738 42.6131 75.2494 41.8661C75.625 41.1148 76.1551 40.5305 76.8396 40.1131C77.5282 39.6916 78.3421 39.4808 79.2812 39.4808C80.0617 39.4808 80.7524 39.6248 81.3534 39.9128C81.9586 40.1966 82.4407 40.5993 82.7996 41.1211C83.1585 41.6386 83.363 42.2438 83.4131 42.9366H81.247C81.1593 42.4733 80.9507 42.0873 80.6209 41.7784C80.2954 41.4654 79.8592 41.3089 79.3125 41.3089C78.8492 41.3089 78.4423 41.4341 78.0917 41.6845C77.7411 41.9307 77.4677 42.2855 77.2716 42.7488C77.0796 43.2121 76.9836 43.7672 76.9836 44.4141C76.9836 45.0694 77.0796 45.6328 77.2716 46.1044C77.4635 46.5719 77.7327 46.9329 78.0792 47.1875C78.4298 47.4379 78.8409 47.5631 79.3125 47.5631C79.6464 47.5631 79.9448 47.5005 80.2077 47.3753C80.4749 47.2459 80.6981 47.0602 80.8776 46.8181C81.0571 46.5761 81.1802 46.2818 81.247 45.9354H83.4131C83.3589 46.6157 83.1585 47.2188 82.8121 47.7447C82.4657 48.2664 81.9941 48.6754 81.3972 48.9717C80.8004 49.2639 80.0992 49.41 79.2937 49.41ZM90.0759 39.606V41.359H84.5478V39.606H90.0759ZM85.9126 37.3021H88.1789V46.3298C88.1789 46.6345 88.2249 46.8682 88.3167 47.031C88.4127 47.1896 88.5379 47.2981 88.6923 47.3565C88.8467 47.415 89.0179 47.4442 89.2057 47.4442C89.3476 47.4442 89.477 47.4337 89.5938 47.4129C89.7149 47.392 89.8067 47.3732 89.8693 47.3565L90.2512 49.1283C90.1301 49.17 89.9569 49.2159 89.7316 49.266C89.5104 49.3161 89.2391 49.3453 88.9177 49.3536C88.3501 49.3703 87.8388 49.2848 87.3839 49.097C86.9289 48.905 86.5679 48.6086 86.3008 48.208C86.0378 47.8073 85.9085 47.3064 85.9126 46.7054V37.3021ZM91.9713 49.2222V39.606H94.2376V49.2222H91.9713ZM93.1107 38.2412C92.7517 38.2412 92.4429 38.1223 92.1841 37.8844C91.9253 37.6423 91.796 37.3522 91.796 37.0142C91.796 36.6719 91.9253 36.3818 92.1841 36.1439C92.4429 35.9019 92.7517 35.7808 93.1107 35.7808C93.4738 35.7808 93.7826 35.9019 94.0372 36.1439C94.296 36.3818 94.4254 36.6719 94.4254 37.0142C94.4254 37.3522 94.296 37.6423 94.0372 37.8844C93.7826 38.1223 93.4738 38.2412 93.1107 38.2412ZM100.763 49.41C99.8235 49.41 99.0096 49.2034 98.321 48.7902C97.6323 48.377 97.0981 47.7989 96.7183 47.056C96.3427 46.3131 96.1548 45.445 96.1548 44.4517C96.1548 43.4583 96.3427 42.5881 96.7183 41.841C97.0981 41.0939 97.6323 40.5138 98.321 40.1006C99.0096 39.6874 99.8235 39.4808 100.763 39.4808C101.702 39.4808 102.516 39.6874 103.204 40.1006C103.893 40.5138 104.425 41.0939 104.801 41.841C105.18 42.5881 105.37 43.4583 105.37 44.4517C105.37 45.445 105.18 46.3131 104.801 47.056C104.425 47.7989 103.893 48.377 103.204 48.7902C102.516 49.2034 101.702 49.41 100.763 49.41ZM100.775 47.5944C101.284 47.5944 101.71 47.4546 102.052 47.175C102.395 46.8912 102.649 46.5114 102.816 46.0356C102.987 45.5598 103.073 45.0297 103.073 44.4454C103.073 43.8569 102.987 43.3248 102.816 42.849C102.649 42.369 102.395 41.9871 102.052 41.7033C101.71 41.4195 101.284 41.2776 100.775 41.2776C100.253 41.2776 99.8193 41.4195 99.4729 41.7033C99.1307 41.9871 98.874 42.369 98.7029 42.849C98.5359 43.3248 98.4525 43.8569 98.4525 44.4454C98.4525 45.0297 98.5359 45.5598 98.7029 46.0356C98.874 46.5114 99.1307 46.8912 99.4729 47.175C99.8193 47.4546 100.253 47.5944 100.775 47.5944ZM109.56 43.5877V49.2222H107.294V39.606H109.46V41.24H109.573C109.794 40.7016 110.147 40.2738 110.631 39.9566C111.119 39.6394 111.722 39.4808 112.44 39.4808C113.104 39.4808 113.682 39.6227 114.174 39.9065C114.671 40.1903 115.055 40.6014 115.326 41.1398C115.602 41.6782 115.737 42.3314 115.733 43.0994V49.2222H113.467V43.45C113.467 42.8072 113.3 42.3043 112.966 41.9412C112.636 41.5781 112.179 41.3965 111.595 41.3965C111.198 41.3965 110.846 41.4842 110.537 41.6595C110.232 41.8306 109.992 42.0789 109.817 42.4045C109.646 42.73 109.56 43.1244 109.56 43.5877ZM125.637 42.1478L123.571 42.3732C123.513 42.1645 123.411 41.9683 123.264 41.7847C123.123 41.601 122.931 41.4529 122.689 41.3402C122.446 41.2275 122.15 41.1711 121.8 41.1711C121.328 41.1711 120.931 41.2734 120.61 41.4779C120.293 41.6824 120.136 41.9474 120.14 42.273C120.136 42.5526 120.239 42.7801 120.447 42.9554C120.66 43.1307 121.011 43.2747 121.499 43.3874L123.139 43.738C124.049 43.9341 124.725 44.2451 125.168 44.6708C125.614 45.0965 125.84 45.6537 125.844 46.3423C125.84 46.9475 125.662 47.4817 125.312 47.945C124.965 48.4041 124.483 48.7631 123.865 49.0218C123.248 49.2806 122.538 49.41 121.737 49.41C120.56 49.41 119.613 49.1637 118.895 48.6712C118.177 48.1746 117.749 47.4838 117.611 46.599L119.821 46.3862C119.921 46.8202 120.134 47.1478 120.46 47.3691C120.785 47.5903 121.209 47.7009 121.731 47.7009C122.269 47.7009 122.701 47.5903 123.027 47.3691C123.356 47.1478 123.521 46.8745 123.521 46.5489C123.521 46.2735 123.415 46.046 123.202 45.8665C122.993 45.6871 122.668 45.5493 122.225 45.4533L120.585 45.109C119.663 44.917 118.98 44.5936 118.538 44.1386C118.095 43.6795 117.876 43.0994 117.88 42.3982C117.876 41.8055 118.037 41.2922 118.362 40.8581C118.692 40.4199 119.149 40.0818 119.734 39.8439C120.322 39.6018 121 39.4808 121.768 39.4808C122.895 39.4808 123.782 39.7208 124.429 40.2008C125.08 40.6807 125.483 41.3297 125.637 42.1478ZM140.675 39.606L137.25 49.2222H134.746L131.322 39.606H133.738L135.948 46.7493H136.048L138.265 39.606H140.675ZM149.844 42.1478L147.778 42.3732C147.719 42.1645 147.617 41.9683 147.471 41.7847C147.329 41.601 147.137 41.4529 146.895 41.3402C146.653 41.2275 146.356 41.1711 146.006 41.1711C145.534 41.1711 145.138 41.2734 144.816 41.4779C144.499 41.6824 144.343 41.9474 144.347 42.273C144.343 42.5526 144.445 42.7801 144.654 42.9554C144.866 43.1307 145.217 43.2747 145.705 43.3874L147.346 43.738C148.255 43.9341 148.932 44.2451 149.374 44.6708C149.821 45.0965 150.046 45.6537 150.05 46.3423C150.046 46.9475 149.869 47.4817 149.518 47.945C149.172 48.4041 148.689 48.7631 148.072 49.0218C147.454 49.2806 146.745 49.41 145.943 49.41C144.766 49.41 143.819 49.1637 143.101 48.6712C142.383 48.1746 141.955 47.4838 141.818 46.599L144.027 46.3862C144.128 46.8202 144.341 47.1478 144.666 47.3691C144.992 47.5903 145.415 47.7009 145.937 47.7009C146.475 47.7009 146.907 47.5903 147.233 47.3691C147.563 47.1478 147.727 46.8745 147.727 46.5489C147.727 46.2735 147.621 46.046 147.408 45.8665C147.199 45.6871 146.874 45.5493 146.432 45.4533L144.791 45.109C143.869 44.917 143.186 44.5936 142.744 44.1386C142.302 43.6795 142.083 43.0994 142.087 42.3982C142.083 41.8055 142.243 41.2922 142.569 40.8581C142.899 40.4199 143.356 40.0818 143.94 39.8439C144.528 39.6018 145.207 39.4808 145.975 39.4808C147.101 39.4808 147.988 39.7208 148.635 40.2008C149.286 40.6807 149.689 41.3297 149.844 42.1478ZM158.039 49.2222H155.559L160.073 36.4006H162.941L167.461 49.2222H164.981L161.557 39.03H161.457L158.039 49.2222ZM158.12 44.195H164.881V46.0606H158.12V44.195ZM172.951 49.41C171.991 49.41 171.167 49.1992 170.478 48.7777C169.794 48.3561 169.266 47.7739 168.894 47.031C168.527 46.2839 168.343 45.4241 168.343 44.4517C168.343 43.475 168.531 42.6131 168.907 41.8661C169.282 41.1148 169.813 40.5305 170.497 40.1131C171.186 39.6916 172 39.4808 172.939 39.4808C173.719 39.4808 174.41 39.6248 175.011 39.9128C175.616 40.1966 176.098 40.5993 176.457 41.1211C176.816 41.6386 177.02 42.2438 177.071 42.9366H174.904C174.817 42.4733 174.608 42.0873 174.278 41.7784C173.953 41.4654 173.517 41.3089 172.97 41.3089C172.507 41.3089 172.1 41.4341 171.749 41.6845C171.398 41.9307 171.125 42.2855 170.929 42.7488C170.737 43.2121 170.641 43.7672 170.641 44.4141C170.641 45.0694 170.737 45.6328 170.929 46.1044C171.121 46.5719 171.39 46.9329 171.737 47.1875C172.087 47.4379 172.498 47.5631 172.97 47.5631C173.304 47.5631 173.602 47.5005 173.865 47.3753C174.132 47.2459 174.356 47.0602 174.535 46.8181C174.714 46.5761 174.838 46.2818 174.904 45.9354H177.071C177.016 46.6157 176.816 47.2188 176.47 47.7447C176.123 48.2664 175.651 48.6754 175.055 48.9717C174.458 49.2639 173.757 49.41 172.951 49.41ZM183.733 39.606V41.359H178.205V39.606H183.733ZM179.57 37.3021H181.836V46.3298C181.836 46.6345 181.882 46.8682 181.974 47.031C182.07 47.1896 182.195 47.2981 182.35 47.3565C182.504 47.415 182.675 47.4442 182.863 47.4442C183.005 47.4442 183.134 47.4337 183.251 47.4129C183.372 47.392 183.464 47.3732 183.527 47.3565L183.909 49.1283C183.788 49.17 183.614 49.2159 183.389 49.266C183.168 49.3161 182.896 49.3453 182.575 49.3536C182.007 49.3703 181.496 49.2848 181.041 49.097C180.586 48.905 180.225 48.6086 179.958 48.208C179.695 47.8073 179.566 47.3064 179.57 46.7054V37.3021ZM191.758 45.1779V39.606H194.024V49.2222H191.827V47.513H191.726C191.509 48.0515 191.153 48.4918 190.656 48.834C190.163 49.1763 189.556 49.3474 188.834 49.3474C188.204 49.3474 187.647 49.2076 187.162 48.9279C186.683 48.6441 186.307 48.233 186.036 47.6946C185.764 47.152 185.629 46.4968 185.629 45.7288V39.606H187.895V45.3782C187.895 45.9876 188.062 46.4717 188.396 46.8306C188.73 47.1896 189.168 47.3691 189.711 47.3691C190.044 47.3691 190.368 47.2877 190.681 47.1249C190.994 46.9621 191.251 46.72 191.451 46.3987C191.655 46.0731 191.758 45.6662 191.758 45.1779ZM199.122 49.4162C198.512 49.4162 197.963 49.3077 197.475 49.0907C196.991 48.8695 196.607 48.5439 196.323 48.1141C196.044 47.6842 195.904 47.1541 195.904 46.5239C195.904 45.9813 196.004 45.5326 196.204 45.1779C196.405 44.8231 196.678 44.5393 197.024 44.3264C197.371 44.1136 197.761 43.9529 198.195 43.8444C198.633 43.7317 199.086 43.6503 199.554 43.6002C200.117 43.5418 200.574 43.4896 200.925 43.4437C201.275 43.3936 201.53 43.3185 201.688 43.2183C201.851 43.114 201.933 42.9533 201.933 42.7363V42.6987C201.933 42.2271 201.793 41.8619 201.513 41.6031C201.234 41.3443 200.831 41.215 200.305 41.215C199.75 41.215 199.309 41.336 198.984 41.5781C198.663 41.8201 198.446 42.106 198.333 42.4358L196.217 42.1353C196.384 41.5509 196.659 41.0626 197.043 40.6703C197.427 40.2738 197.897 39.9775 198.452 39.7813C199.007 39.581 199.62 39.4808 200.292 39.4808C200.756 39.4808 201.217 39.5351 201.676 39.6436C202.135 39.7521 202.555 39.9316 202.934 40.182C203.314 40.4282 203.619 40.7642 203.848 41.1899C204.082 41.6156 204.199 42.1478 204.199 42.7864V49.2222H202.02V47.9012H201.945C201.807 48.1683 201.613 48.4187 201.363 48.6525C201.117 48.882 200.806 49.0677 200.43 49.2096C200.059 49.3474 199.622 49.4162 199.122 49.4162ZM199.71 47.7509C200.165 47.7509 200.559 47.6612 200.893 47.4817C201.227 47.2981 201.484 47.056 201.663 46.7555C201.847 46.455 201.939 46.1274 201.939 45.7726V44.6395C201.868 44.6979 201.747 44.7522 201.576 44.8022C201.409 44.8523 201.221 44.8961 201.012 44.9337C200.804 44.9713 200.597 45.0047 200.393 45.0339C200.188 45.0631 200.011 45.0881 199.86 45.109C199.522 45.1549 199.22 45.23 198.953 45.3344C198.686 45.4387 198.475 45.5848 198.32 45.7726C198.166 45.9563 198.089 46.1942 198.089 46.4863C198.089 46.9037 198.241 47.2188 198.546 47.4317C198.85 47.6445 199.239 47.7509 199.71 47.7509ZM208.744 36.4006V49.2222H206.478V36.4006H208.744ZM218.675 42.1478L216.609 42.3732C216.55 42.1645 216.448 41.9683 216.302 41.7847C216.16 41.601 215.968 41.4529 215.726 41.3402C215.484 41.2275 215.188 41.1711 214.837 41.1711C214.365 41.1711 213.969 41.2734 213.648 41.4779C213.33 41.6824 213.174 41.9474 213.178 42.273C213.174 42.5526 213.276 42.7801 213.485 42.9554C213.698 43.1307 214.048 43.2747 214.537 43.3874L216.177 43.738C217.087 43.9341 217.763 44.2451 218.205 44.6708C218.652 45.0965 218.877 45.6537 218.881 46.3423C218.877 46.9475 218.7 47.4817 218.349 47.945C218.003 48.4041 217.521 48.7631 216.903 49.0218C216.285 49.2806 215.576 49.41 214.775 49.41C213.598 49.41 212.65 49.1637 211.932 48.6712C211.214 48.1746 210.787 47.4838 210.649 46.599L212.859 46.3862C212.959 46.8202 213.172 47.1478 213.497 47.3691C213.823 47.5903 214.247 47.7009 214.768 47.7009C215.307 47.7009 215.739 47.5903 216.064 47.3691C216.394 47.1478 216.559 46.8745 216.559 46.5489C216.559 46.2735 216.452 46.046 216.239 45.8665C216.031 45.6871 215.705 45.5493 215.263 45.4533L213.623 45.109C212.7 44.917 212.018 44.5936 211.575 44.1386C211.133 43.6795 210.914 43.0994 210.918 42.3982C210.914 41.8055 211.075 41.2922 211.4 40.8581C211.73 40.4199 212.187 40.0818 212.771 39.8439C213.36 39.6018 214.038 39.4808 214.806 39.4808C215.933 39.4808 216.82 39.7208 217.467 40.2008C218.118 40.6807 218.52 41.3297 218.675 42.1478Z" fill="white"/>
<path d="M36.4515 93.0948C35.7432 93.0948 35.1118 92.9732 34.5573 92.7299C34.0064 92.4867 33.5681 92.1486 33.2426 91.7157C32.9206 91.2793 32.7453 90.7731 32.7167 90.1971H34.069C34.0976 90.5513 34.2192 90.8571 34.4339 91.1147C34.6485 91.3687 34.9293 91.5655 35.2764 91.705C35.6234 91.8445 36.0079 91.9143 36.4301 91.9143C36.9023 91.9143 37.3209 91.832 37.6858 91.6674C38.0507 91.5029 38.3369 91.2739 38.5443 90.9806C38.7518 90.6872 38.8556 90.3474 38.8556 89.961C38.8556 89.5567 38.7554 89.2008 38.5551 88.8931C38.3547 88.5819 38.0614 88.3386 37.675 88.1633C37.2887 87.988 36.8164 87.9004 36.2584 87.9004H35.3783V86.7198H36.2584C36.6948 86.7198 37.0776 86.6411 37.4067 86.4837C37.7394 86.3263 37.9988 86.1045 38.1848 85.8183C38.3744 85.5321 38.4692 85.1958 38.4692 84.8095C38.4692 84.4374 38.3869 84.1137 38.2224 83.8382C38.0578 83.5627 37.8253 83.3481 37.5248 83.1943C37.2278 83.0404 36.8773 82.9635 36.473 82.9635C36.0938 82.9635 35.7361 83.0333 35.3998 83.1728C35.0671 83.3087 34.7952 83.5073 34.5841 83.7684C34.373 84.026 34.2586 84.3373 34.2407 84.7022H32.9528C32.9743 84.1262 33.1478 83.6218 33.4733 83.1889C33.7989 82.7525 34.2246 82.4126 34.7505 82.1693C35.2799 81.9261 35.8613 81.8044 36.4945 81.8044C37.1742 81.8044 37.7573 81.9422 38.2438 82.2176C38.7304 82.4895 39.1042 82.849 39.3654 83.2962C39.6265 83.7434 39.7571 84.2264 39.7571 84.7451C39.7571 85.364 39.5943 85.8917 39.2688 86.3281C38.9468 86.7646 38.5086 87.0668 37.9541 87.235V87.3208C38.6481 87.4353 39.1901 87.7305 39.58 88.2063C39.97 88.6785 40.1649 89.2634 40.1649 89.961C40.1649 90.5584 40.0022 91.095 39.6766 91.5708C39.3546 92.0431 38.9146 92.4151 38.3565 92.687C37.7984 92.9589 37.1635 93.0948 36.4515 93.0948ZM45.9443 93.0948C45.1358 93.0948 44.4471 92.8748 43.8783 92.4348C43.3095 91.9912 42.8748 91.349 42.5743 90.5083C42.2738 89.6641 42.1236 88.6445 42.1236 87.4496C42.1236 86.2619 42.2738 85.2477 42.5743 84.407C42.8784 83.5627 43.3149 82.9188 43.8837 82.4752C44.4561 82.028 45.1429 81.8044 45.9443 81.8044C46.7456 81.8044 47.4307 82.028 47.9995 82.4752C48.5719 82.9188 49.0084 83.5627 49.3089 84.407C49.6129 85.2477 49.765 86.2619 49.765 87.4496C49.765 88.6445 49.6147 89.6641 49.3142 90.5083C49.0137 91.349 48.5791 91.9912 48.0103 92.4348C47.4414 92.8748 46.7528 93.0948 45.9443 93.0948ZM45.9443 91.9143C46.7456 91.9143 47.3681 91.5279 47.8117 90.7552C48.2553 89.9825 48.4771 88.8806 48.4771 87.4496C48.4771 86.498 48.3752 85.6877 48.1712 85.0188C47.9709 84.3498 47.6811 83.84 47.3019 83.4894C46.9263 83.1388 46.4737 82.9635 45.9443 82.9635C45.1501 82.9635 44.5294 83.3552 44.0822 84.1387C43.635 84.9186 43.4115 86.0222 43.4115 87.4496C43.4115 88.4012 43.5116 89.2097 43.712 89.8751C43.9123 90.5405 44.2003 91.0467 44.5759 91.3938C44.9551 91.7408 45.4112 91.9143 45.9443 91.9143Z" fill="white" fill-opacity="0.4"/>
<path d="M33.2104 143.093V142.127L36.8379 138.156C37.2636 137.691 37.6142 137.287 37.8897 136.943C38.1651 136.596 38.3691 136.271 38.5014 135.967C38.6374 135.659 38.7053 135.337 38.7053 135.001C38.7053 134.614 38.6123 134.28 38.4263 133.997C38.2438 133.715 37.9934 133.496 37.675 133.342C37.3566 133.189 36.9989 133.112 36.6018 133.112C36.1797 133.112 35.8112 133.199 35.4964 133.375C35.1851 133.546 34.9437 133.788 34.7719 134.099C34.6038 134.41 34.5197 134.775 34.5197 135.194H33.2533C33.2533 134.55 33.4018 133.985 33.6987 133.498C33.9956 133.012 34.3999 132.632 34.9115 132.36C35.4266 132.089 36.0044 131.953 36.6447 131.953C37.2887 131.953 37.8593 132.089 38.3565 132.36C38.8538 132.632 39.2437 132.999 39.5264 133.461C39.809 133.922 39.9503 134.435 39.9503 135.001C39.9503 135.405 39.8769 135.8 39.7303 136.187C39.5872 136.569 39.3367 136.997 38.979 137.469C38.6248 137.938 38.1329 138.51 37.5033 139.186L35.0349 141.826V141.912H40.1435V143.093H33.2104ZM45.9443 143.243C45.1358 143.243 44.4471 143.023 43.8783 142.583C43.3095 142.139 42.8748 141.497 42.5743 140.657C42.2738 139.812 42.1236 138.793 42.1236 137.598C42.1236 136.41 42.2738 135.396 42.5743 134.555C42.8784 133.711 43.3149 133.067 43.8837 132.623C44.4561 132.176 45.1429 131.953 45.9443 131.953C46.7456 131.953 47.4307 132.176 47.9995 132.623C48.5719 133.067 49.0084 133.711 49.3089 134.555C49.6129 135.396 49.765 136.41 49.765 137.598C49.765 138.793 49.6147 139.812 49.3142 140.657C49.0137 141.497 48.5791 142.139 48.0103 142.583C47.4414 143.023 46.7528 143.243 45.9443 143.243ZM45.9443 142.062C46.7456 142.062 47.3681 141.676 47.8117 140.903C48.2553 140.131 48.4771 139.029 48.4771 137.598C48.4771 136.646 48.3752 135.836 48.1712 135.167C47.9709 134.498 47.6811 133.988 47.3019 133.638C46.9263 133.287 46.4737 133.112 45.9443 133.112C45.1501 133.112 44.5294 133.503 44.0822 134.287C43.635 135.067 43.4115 136.17 43.4115 137.598C43.4115 138.549 43.5116 139.358 43.712 140.023C43.9123 140.689 44.2003 141.195 44.5759 141.542C44.9551 141.889 45.4112 142.062 45.9443 142.062Z" fill="white" fill-opacity="0.4"/>
<path d="M39.199 182.251V193.241H37.8682V183.646H37.8038L35.1207 185.428V184.076L37.8682 182.251H39.199ZM45.9443 193.391C45.1358 193.391 44.4471 193.171 43.8783 192.731C43.3095 192.288 42.8748 191.645 42.5743 190.805C42.2738 189.96 42.1236 188.941 42.1236 187.746C42.1236 186.558 42.2738 185.544 42.5743 184.703C42.8784 183.859 43.3149 183.215 43.8837 182.772C44.4561 182.324 45.1429 182.101 45.9443 182.101C46.7456 182.101 47.4307 182.324 47.9995 182.772C48.5719 183.215 49.0084 183.859 49.3089 184.703C49.6129 185.544 49.765 186.558 49.765 187.746C49.765 188.941 49.6147 189.96 49.3142 190.805C49.0137 191.645 48.5791 192.288 48.0103 192.731C47.4414 193.171 46.7528 193.391 45.9443 193.391ZM45.9443 192.211C46.7456 192.211 47.3681 191.824 47.8117 191.052C48.2553 190.279 48.4771 189.177 48.4771 187.746C48.4771 186.794 48.3752 185.984 48.1712 185.315C47.9709 184.646 47.6811 184.136 47.3019 183.786C46.9263 183.435 46.4737 183.26 45.9443 183.26C45.1501 183.26 44.5294 183.652 44.0822 184.435C43.635 185.215 43.4115 186.319 43.4115 187.746C43.4115 188.698 43.5116 189.506 43.712 190.172C43.9123 190.837 44.2003 191.343 44.5759 191.69C44.9551 192.037 45.4112 192.211 45.9443 192.211Z" fill="white" fill-opacity="0.4"/>
<path d="M45.9443 243.539C45.1358 243.539 44.4471 243.319 43.8783 242.879C43.3095 242.436 42.8748 241.793 42.5743 240.953C42.2738 240.108 42.1236 239.089 42.1236 237.894C42.1236 236.706 42.2738 235.692 42.5743 234.851C42.8784 234.007 43.3149 233.363 43.8837 232.92C44.4561 232.472 45.1429 232.249 45.9443 232.249C46.7456 232.249 47.4307 232.472 47.9995 232.92C48.5719 233.363 49.0084 234.007 49.3089 234.851C49.6129 235.692 49.765 236.706 49.765 237.894C49.765 239.089 49.6147 240.108 49.3142 240.953C49.0137 241.793 48.5791 242.436 48.0103 242.879C47.4414 243.319 46.7528 243.539 45.9443 243.539ZM45.9443 242.359C46.7456 242.359 47.3681 241.972 47.8117 241.2C48.2553 240.427 48.4771 239.325 48.4771 237.894C48.4771 236.942 48.3752 236.132 48.1712 235.463C47.9709 234.794 47.6811 234.284 47.3019 233.934C46.9263 233.583 46.4737 233.408 45.9443 233.408C45.1501 233.408 44.5294 233.8 44.0822 234.583C43.635 235.363 43.4115 236.467 43.4115 237.894C43.4115 238.846 43.5116 239.654 43.712 240.319C43.9123 240.985 44.2003 241.491 44.5759 241.838C44.9551 242.185 45.4112 242.359 45.9443 242.359Z" fill="white" fill-opacity="0.4"/>
<line x1="71.4441" y1="95.4631" x2="513.592" y2="95.4631" stroke="white" stroke-opacity="0.05" stroke-width="1.25926" stroke-linecap="round"/>
<line x1="71.4441" y1="146.673" x2="513.592" y2="146.673" stroke="white" stroke-opacity="0.05" stroke-width="1.25926" stroke-linecap="round"/>
<line x1="71.4441" y1="197.883" x2="513.592" y2="197.883" stroke="white" stroke-opacity="0.05" stroke-width="1.25926" stroke-linecap="round"/>
<line x1="71.4441" y1="249.093" x2="513.592" y2="249.093" stroke="white" stroke-opacity="0.2" stroke-width="1.25926" stroke-linecap="round"/>
<g opacity="0.5">
<path d="M96.1851 167.481C96.1851 164.699 98.4402 162.444 101.222 162.444H113.815C116.597 162.444 118.852 164.699 118.852 167.481V248.074H96.1851V167.481Z" fill="#FB4BDB" fill-opacity="0.7"/>
<path d="M170.062 151.111C170.062 148.329 172.317 146.074 175.099 146.074H187.691C190.473 146.074 192.728 148.329 192.728 151.111V248.074H170.062V151.111Z" fill="#FB4BDB" fill-opacity="0.7"/>
<path d="M243.938 163.704C243.938 160.922 246.193 158.667 248.975 158.667H261.568C264.35 158.667 266.605 160.922 266.605 163.704V248.074H243.938V163.704Z" fill="#FB4BDB" fill-opacity="0.7"/>
<path d="M317.814 102C317.814 99.218 320.07 96.9629 322.851 96.9629H335.444C338.226 96.9629 340.481 99.218 340.481 102V248.074H317.814V102Z" fill="#FB4BDB" fill-opacity="0.7"/>
</g>
<path d="M96.1851 183.852H118.852V248.074H96.1851V183.852Z" fill="url(#paint1_linear_1506_11221)"/>
<rect x="170.062" y="166.222" width="22.6667" height="81.8519" fill="url(#paint2_linear_1506_11221)"/>
<rect x="243.938" y="178.815" width="22.6667" height="69.2593" fill="url(#paint3_linear_1506_11221)"/>
<rect x="317.814" y="118.37" width="22.6667" height="129.704" fill="url(#paint4_linear_1506_11221)"/>
</g>
<defs>
<filter id="filter0_i_1506_11221" x="0" y="0" width="544" height="318.593" filterUnits="userSpaceOnUse" color-interpolation-filters="sRGB">
<feFlood flood-opacity="0" result="BackgroundImageFix"/>
<feBlend mode="normal" in="SourceGraphic" in2="BackgroundImageFix" result="shape"/>
<feColorMatrix in="SourceAlpha" type="matrix" values="0 0 0 0 0 0 0 0 0 0 0 0 0 0 0 0 0 0 127 0" result="hardAlpha"/>
<feOffset dy="1.25926"/>
<feGaussianBlur stdDeviation="1.25926"/>
<feComposite in2="hardAlpha" operator="arithmetic" k2="-1" k3="1"/>
<feColorMatrix type="matrix" values="0 0 0 0 1 0 0 0 0 1 0 0 0 0 1 0 0 0 0.1 0"/>
<feBlend mode="normal" in2="shape" result="effect1_innerShadow_1506_11221"/>
</filter>
<linearGradient id="paint0_linear_1506_11221" x1="0" y1="0" x2="256.286" y2="518.441" gradientUnits="userSpaceOnUse">
<stop stop-color="#2D2D2F"/>
<stop offset="1" stop-color="#2B2B2E" stop-opacity="0.17"/>
</linearGradient>
<linearGradient id="paint1_linear_1506_11221" x1="96.5743" y1="238.878" x2="117.777" y2="238.595" gradientUnits="userSpaceOnUse">
<stop stop-color="#3DE85D"/>
<stop offset="1" stop-color="#03F6F4"/>
</linearGradient>
<linearGradient id="paint2_linear_1506_11221" x1="170.451" y1="236.353" x2="191.654" y2="236.131" gradientUnits="userSpaceOnUse">
<stop stop-color="#3DE85D"/>
<stop offset="1" stop-color="#03F6F4"/>
</linearGradient>
<linearGradient id="paint3_linear_1506_11221" x1="244.327" y1="238.157" x2="265.53" y2="237.894" gradientUnits="userSpaceOnUse">
<stop stop-color="#3DE85D"/>
<stop offset="1" stop-color="#03F6F4"/>
</linearGradient>
<linearGradient id="paint4_linear_1506_11221" x1="318.204" y1="229.501" x2="339.409" y2="229.361" gradientUnits="userSpaceOnUse">
<stop stop-color="#3DE85D"/>
<stop offset="1" stop-color="#03F6F4"/>
</linearGradient>
</defs>
</svg>
