<svg width="106" height="106" viewBox="0 0 106 106" fill="none" xmlns="http://www.w3.org/2000/svg">
<path fill-rule="evenodd" clip-rule="evenodd" d="M46.9889 18.1475C46.4163 17.6951 45.6839 17.4954 44.9606 17.5941C44.2376 17.6927 43.5853 18.0813 43.1545 18.6705C38.0772 25.6134 35.5871 34.3795 36.6346 43.3309C33.9207 42.2924 31.3869 40.8201 29.14 38.9748C28.5219 38.4672 27.7097 38.2612 26.9244 38.413C26.1391 38.5648 25.4622 39.0584 25.0777 39.7598C21.2269 46.7844 19.9704 55.2542 22.2082 63.6058C26.818 80.8099 44.502 91.0199 61.7062 86.41C78.9107 81.8001 89.1202 64.1161 84.5104 46.912C81.1151 34.2406 70.6297 25.3691 58.4765 23.4099C54.1351 22.5644 50.2418 20.715 46.9889 18.1475ZM67.7304 56.9739C69.6512 64.1425 65.3972 71.5106 58.2286 73.4314C51.0602 75.3522 43.6919 71.0983 41.7711 63.9297C41.3915 62.513 41.2531 61.0885 41.3307 59.6995C43.9369 60.7247 46.7571 61.2486 49.6434 61.1849C49.0915 56.1361 50.3649 51.1915 53.0159 47.1253C59.5995 46.2598 65.9652 50.3862 67.7304 56.9739Z" fill="url(#paint0_linear_1507_14235)"/>
<defs>
<linearGradient id="paint0_linear_1507_14235" x1="12.2239" y1="26.3437" x2="112.476" y2="64.6554" gradientUnits="userSpaceOnUse">
<stop stop-color="#C1D3FF" stop-opacity="0.13"/>
<stop offset="1" stop-color="#B5C9FF"/>
</linearGradient>
</defs>
</svg>
