<svg width="88" height="88" viewBox="0 0 88 88" fill="none" xmlns="http://www.w3.org/2000/svg">
<path d="M71.5 77C77.5753 77 82.5 72.0753 82.5 66V49.5C82.5 43.4247 77.5753 38.5 71.5 38.5H16.5C10.4249 38.5 5.5 43.4247 5.5 49.5V66C5.5 72.0753 10.4249 77 16.5 77H71.5Z" fill="url(#paint0_linear_1507_14241)"/>
<path d="M5.5 37.2013V22C5.5 15.9249 10.4249 11 16.5 11H36.2218C38.4098 11 40.5082 11.8692 42.0556 13.4164L49.8337 21.1945C50.3492 21.7103 51.0488 22 51.7781 22H71.5C77.5753 22 82.5 26.9249 82.5 33V37.2013C79.581 34.5887 75.7258 33 71.5 33H16.5C12.2741 33 8.41914 34.5887 5.5 37.2013Z" fill="url(#paint1_linear_1507_14241)"/>
<defs>
<linearGradient id="paint0_linear_1507_14241" x1="5.5" y1="11" x2="90.5103" y2="89.8773" gradientUnits="userSpaceOnUse">
<stop stop-color="#C1D3FF" stop-opacity="0.13"/>
<stop offset="1" stop-color="#B5C9FF"/>
</linearGradient>
<linearGradient id="paint1_linear_1507_14241" x1="5.5" y1="11" x2="90.5103" y2="89.8773" gradientUnits="userSpaceOnUse">
<stop stop-color="#C1D3FF" stop-opacity="0.13"/>
<stop offset="1" stop-color="#B5C9FF"/>
</linearGradient>
</defs>
</svg>
