<svg width="1386" height="882" viewBox="0 0 1386 882" fill="none" xmlns="http://www.w3.org/2000/svg">
<path d="M1052.08 353.616C1058.37 356.682 1065.25 358.356 1072.25 358.519C1072.64 358.475 1073.02 358.353 1073.37 358.162C1073.71 357.97 1074.02 357.713 1074.26 357.404C1074.5 357.095 1074.68 356.742 1074.79 356.364C1074.89 355.986 1074.92 355.591 1074.87 355.202C1074.29 350.659 1069.12 354.553 1054.78 347.991L1055.51 342.655C1055.87 341.14 1054.05 338.689 1052.08 339.41C1050.12 340.131 1049.61 342.438 1049.03 346.621C1048.44 350.803 1048.15 351.669 1052.08 353.616ZM292.265 374.096C301.025 371.736 309.251 367.747 316.506 362.341C319.345 360.178 318.398 355.13 317.598 352.246C317.37 351.497 316.871 350.859 316.197 350.452C315.523 350.046 314.721 349.9 313.945 350.043C313.17 350.186 312.475 350.608 311.993 351.227C311.512 351.846 311.278 352.62 311.337 353.399C311.476 354.962 311.768 356.508 312.211 358.015C294.959 370.49 288.262 367.389 289.281 372.437C289.507 373.013 289.929 373.494 290.473 373.796C291.017 374.099 291.651 374.205 292.265 374.096ZM272.466 360.755C287.024 360.755 282.074 352.246 278.143 353.544L272.538 354.409C267.734 331.838 271.592 327.078 267.443 326.934C266.817 326.894 266.2 327.098 265.724 327.502C265.248 327.906 264.951 328.479 264.895 329.098C264.381 338.014 265.042 346.959 266.86 355.707C267.661 359.601 269.117 360.755 272.466 360.755ZM695.178 348.352C699.327 348.352 721.165 343.664 724.877 343.087C730.337 342.15 736.816 340.491 737.252 334.65C737.252 331.045 734.632 326.862 731.647 329.026C731.026 329.457 730.568 330.081 730.344 330.799C730.12 331.517 730.143 332.288 730.41 332.992C731.502 335.804 729.172 335.588 694.013 343.16C693.367 343.357 692.819 343.789 692.479 344.369C692.14 344.948 692.033 345.633 692.179 346.287C692.326 346.942 692.716 347.517 693.272 347.9C693.827 348.282 694.508 348.443 695.178 348.352ZM216.414 171.821C218.016 173.624 221.947 171.821 220.782 169.08C213.503 151.485 200.109 131.871 191.665 112.544C190.354 109.444 187.734 104.179 185.186 103.891C184.867 103.847 184.542 103.89 184.246 104.018C183.951 104.145 183.697 104.351 183.512 104.612C181.91 106.776 184.24 112.761 185.332 115.285C188.68 122.424 204.913 158.768 216.414 171.821ZM452.411 141.389C452.548 141.952 452.83 142.47 453.231 142.891C453.633 143.313 454.138 143.622 454.697 143.79C455.257 143.958 455.851 143.978 456.42 143.847C456.99 143.717 457.515 143.442 457.944 143.048C463.954 137.627 469.415 131.637 474.249 125.164C496.087 194.392 496.087 196.844 499.509 196.844C499.999 196.83 500.481 196.712 500.921 196.498C501.362 196.284 501.75 195.978 502.061 195.602C502.372 195.226 502.597 194.788 502.722 194.318C502.847 193.848 502.868 193.356 502.784 192.878C494.631 167.35 486.042 142.399 478.617 116.943C478.45 116.311 478.099 115.741 477.607 115.305C477.115 114.87 476.503 114.588 475.85 114.496C475.197 114.403 474.53 114.504 473.935 114.786C473.339 115.067 472.841 115.517 472.502 116.078C468.322 122.592 463.441 128.636 457.944 134.106C453.576 114.347 443.385 69.205 443.385 69.205C443.201 68.4782 442.734 67.8534 442.086 67.468C441.437 67.0826 440.661 66.9681 439.927 67.1498C439.194 67.3315 438.563 67.7945 438.174 68.4368C437.785 69.0792 437.669 69.8484 437.852 70.5751C440.327 81.7525 450.883 136.414 452.411 141.389ZM73.2295 516.517C49.79 505.412 28.8982 494.018 4.87636 481.471C0.217575 479.019 -2.98534 487.456 4.29402 489.403C25.267 502.372 47.6307 512.989 70.9729 521.061C73.8847 521.854 75.9229 518.104 73.2295 516.517ZM91.8647 350.01C92.3651 350.449 92.9889 350.725 93.6525 350.803C94.3161 350.88 94.9876 350.754 95.5771 350.443C100.382 348.135 94.1941 342.438 96.5235 308.185C155.559 378.783 152.283 376.98 154.758 376.98C155.271 377.012 155.782 376.898 156.231 376.651C156.68 376.405 157.049 376.036 157.294 375.589C157.538 375.142 157.649 374.635 157.613 374.128C157.576 373.62 157.394 373.134 157.088 372.726C147.843 361.188 107.37 311.358 96.5963 297.801C96.1911 297.292 95.6473 296.91 95.0293 296.698C94.4113 296.486 93.745 296.454 93.1092 296.606C92.4735 296.758 91.8949 297.087 91.4421 297.554C90.9893 298.021 90.6813 298.608 90.5544 299.243C89.0745 312.413 88.8309 325.69 89.8265 338.905C67.9884 319.507 47.0966 298.955 25.0402 280.061C24.3724 279.53 23.5372 279.25 22.6812 279.269C21.8253 279.287 21.0034 279.605 20.3602 280.164C19.7169 280.724 19.2935 281.491 19.1642 282.329C19.0349 283.167 19.2082 284.024 19.6535 284.749C28.2431 297.945 76.7236 336.381 91.8647 350.01ZM666.06 82.5458C666.06 83.2534 666.344 83.9321 666.849 84.4324C667.354 84.9328 668.039 85.2139 668.754 85.2139C669.468 85.2139 670.153 84.9328 670.658 84.4324C671.163 83.9321 671.447 83.2534 671.447 82.5458C672.695 56.0585 671.574 29.5138 668.098 3.22226C668.024 2.52856 667.747 1.87128 667.303 1.33011C666.858 0.788936 666.265 0.387108 665.595 0.173371C664.924 -0.040366 664.206 -0.0568331 663.526 0.125946C662.846 0.308726 662.235 0.682908 661.765 1.20313C658.49 5.38564 666.351 18.5822 666.06 82.5458ZM863.04 207.805C918.436 115.213 915.451 119.828 915.014 118.169C913.777 113.987 910.283 116.006 882.257 124.371C889.537 98.771 898.636 71.4405 904.678 45.5522C904.803 44.715 904.608 43.8617 904.13 43.16C903.653 42.4582 902.928 41.9587 902.097 41.7599C901.267 41.561 900.392 41.6771 899.643 42.0853C898.895 42.4935 898.328 43.1642 898.053 43.9657C889.828 72.8106 881.675 101.007 873.813 128.698C873.686 129.27 873.708 129.865 873.876 130.427C874.045 130.989 874.355 131.499 874.777 131.91C875.199 132.32 875.719 132.618 876.289 132.775C876.859 132.933 877.46 132.944 878.035 132.808C878.035 132.808 897.325 126.895 905.114 124.371L858.599 205.353C858.324 205.932 858.281 206.592 858.479 207.201C858.677 207.809 859.1 208.321 859.664 208.632C860.228 208.944 860.89 209.031 861.517 208.878C862.143 208.724 862.688 208.341 863.04 207.805ZM1383.51 419.31C1379.73 417.507 1309.7 460.63 1308.97 461.135C1306.43 462.938 1308.97 467.409 1311.59 466.039C1315.82 464.164 1382.71 427.315 1384.97 423.348C1385.14 422.989 1385.24 422.599 1385.26 422.201C1385.28 421.803 1385.22 421.405 1385.09 421.03C1384.95 420.655 1384.74 420.31 1384.47 420.015C1384.2 419.72 1383.88 419.48 1383.51 419.31ZM1198.18 336.886C1198.18 336.886 1268.35 283.883 1281.46 273.788C1284.3 271.552 1281.46 266.576 1278.11 266.937C1264.9 267.249 1251.75 268.721 1238.8 271.336C1257.59 251.478 1274.23 229.726 1288.45 206.435C1290.85 202.541 1285.02 198.502 1282.69 202.468C1266.66 228.385 1247.57 252.325 1225.84 273.788C1223.51 276.023 1224.97 281.504 1228.75 280.999C1241.6 277.758 1254.7 275.587 1267.92 274.509C1267.92 274.509 1212.3 318.858 1195.12 332.92C1194.84 333.379 1194.69 333.916 1194.72 334.457C1194.75 334.998 1194.94 335.518 1195.27 335.948C1195.6 336.379 1196.06 336.699 1196.58 336.867C1197.1 337.034 1197.66 337.041 1198.18 336.886ZM1097.8 128.121C1142.49 51.8259 1150.28 40.7207 1142.79 38.8457C1139.58 38.0525 1139.73 38.341 1092.78 125.38C1092.56 126.022 1092.57 126.72 1092.82 127.352C1093.06 127.984 1093.53 128.509 1094.13 128.836C1094.73 129.163 1095.42 129.271 1096.09 129.14C1096.77 129.009 1097.37 128.648 1097.8 128.121Z" fill="#2FDC18"/>
<path d="M1304.1 598.799C1274.4 505.99 1199.35 434.599 1098.02 403.014C1097.95 401.176 1097.76 399.345 1097.44 397.534C1125.1 385.563 1131.29 344.387 1125.17 308.547C1130.49 299.966 1144.61 255.833 1134.2 261.89L1115.2 272.996C1112.51 265.784 1109.38 259.078 1106.03 252.444C1106.75 240.906 1096.13 220.281 1077.42 206.796C1060.24 194.393 1030.69 183.288 987.592 201.028C953.961 214.873 916.035 245.449 910.285 289.87C903.005 347.56 922.296 375.539 886.263 429.119C846.448 411.26 804.008 399.818 760.548 395.226C760.55 391.994 760.331 388.766 759.893 385.563C778.456 376.26 782.387 345.973 783.187 336.094C805.025 317.345 807.573 279.99 790.467 279.125C794.863 252.365 796.545 225.235 795.489 198.143C794.543 181.341 787.264 177.591 783.915 176.87C781.552 176.427 779.111 176.652 776.871 177.52C774.631 178.387 772.683 179.861 771.249 181.773C765.79 170.74 755.307 172.11 749.411 180.475C748.832 177.507 747.326 174.793 745.105 172.718C742.884 170.644 740.062 169.313 737.036 168.915C734.01 168.516 730.934 169.07 728.243 170.497C725.553 171.925 723.383 174.154 722.041 176.87C720.629 173.893 718.357 171.399 715.511 169.704C712.665 168.01 709.376 167.192 706.06 167.354C702.744 167.517 699.551 168.652 696.888 170.616C694.225 172.58 692.211 175.284 691.103 178.384C683.824 162.736 665.262 166.342 661.112 182.206C655.653 170.019 640.73 170.091 635.562 184.225C621.95 174.274 611.249 184.225 609.065 200.595C607.743 228.43 608.912 256.326 612.559 283.957C587.882 278.476 607.1 335.733 621.804 337.103C624.352 358.737 633.378 382.534 650.921 388.303C650.921 391.188 650.485 394.144 650.485 397.029C603.418 404.475 558.124 420.385 516.836 443.974C494.124 428.109 443.605 406.548 395.052 410.514C386.255 392.101 379.635 372.743 375.325 352.824C372.122 335.445 380.348 328.594 380.275 313.595C389.7 294.779 392.048 273.252 386.899 252.876C363.969 180.764 225.443 208.167 229.374 287.346C229.883 296.36 230.684 305.374 231.485 312.369C214.378 317.489 216.926 318.715 221.658 339.339C224.205 350.588 227.117 359.891 239.055 357.439C244.515 380.876 258.273 418.302 290.739 418.302C292.704 418.302 290.739 417.076 292.559 429.191C211.103 464.309 108.828 530.148 82.3308 645.528C75.9249 673.363 72.0669 712.881 90.4109 742.735C110.575 775.979 146.244 778.07 171.867 776.411C165.869 809.058 163.938 842.309 166.116 875.422C166.129 875.884 166.271 876.334 166.525 876.723C166.779 877.111 167.136 877.423 167.556 877.624C167.977 877.825 168.446 877.907 168.911 877.862C169.376 877.817 169.819 877.647 170.193 877.369C174.123 875.061 166.407 872.609 178.709 775.907C247.281 769.633 312.65 740.427 373.068 709.708C383.041 716.919 392.941 724.13 403.205 730.62C411.643 747.523 424.575 761.827 440.608 771.992C456.641 782.157 475.168 787.799 494.197 788.31C492.377 818.667 492.377 849.103 494.197 879.46C494.224 879.827 494.325 880.185 494.495 880.512C494.665 880.839 494.899 881.129 495.185 881.365C495.47 881.6 495.8 881.776 496.156 881.883C496.511 881.989 496.885 882.024 497.254 881.984C503.514 881.407 495.434 878.306 500.384 788.238C560.948 788.238 610.666 749.081 660.53 719.154C719.202 745.764 863.042 795.305 939.111 781.027C942.605 811.746 942.096 840.88 945.08 870.59C945.176 871.123 945.459 871.606 945.878 871.953C946.297 872.301 946.826 872.491 947.373 872.491C947.92 872.491 948.449 872.301 948.868 871.953C949.287 871.606 949.57 871.123 949.666 870.59C951.577 840.233 950.333 809.762 945.954 779.657C998.729 767.253 1031.12 730.404 1039.71 673.147C1043.21 670.839 1046.99 668.243 1050.92 665.286C1095.98 683.098 1189.23 726.438 1234.8 728.024C1232.69 761.556 1229.7 796.963 1229.19 831.722C1229.29 832.309 1229.6 832.842 1230.06 833.226C1230.52 833.61 1231.1 833.82 1231.7 833.82C1232.31 833.82 1232.89 833.61 1233.35 833.226C1233.81 832.842 1234.11 832.309 1234.22 831.722C1235.24 822.131 1241.86 740.283 1241.5 727.808C1314.43 726.149 1325.94 667.017 1304.1 598.799ZM784.643 290.591C786.609 287.995 787.7 284.966 790.539 285.832C800.73 288.788 792.578 313.883 784.061 325.061C784.789 313.595 785.007 301.985 784.643 290.591ZM610.885 290.591C613.214 290.591 612.923 291.601 618.164 292.61L621.076 328.234C610.303 318.354 602.514 290.735 610.885 290.735V290.591ZM1116.65 283.38C1116.96 282.366 1117.67 281.516 1118.61 281.015C1119.55 280.515 1120.65 280.406 1121.68 280.712C1122.7 281.018 1123.56 281.714 1124.06 282.647C1124.57 283.58 1124.68 284.674 1124.37 285.687C1121.82 294.629 1119.86 301.119 1118.18 307.321C1117.75 308.093 1117.15 308.755 1116.41 309.255C1115.68 309.756 1114.84 310.081 1113.96 310.206C1107.56 310.422 1114.4 289.87 1116.65 283.235V283.38ZM994.143 312.225C998.292 309.124 1003.31 313.09 1004.12 313.162C1010.96 317.489 1018.67 311.215 1016.71 309.412L1015.25 308.258C1009.87 304.076 998.802 295.422 1001.13 289.509C1002.88 285.038 1010.01 285.687 1014.67 285.471C1014.84 285.466 1015 285.424 1015.14 285.348C1015.29 285.272 1015.42 285.163 1015.52 285.031C1015.62 284.899 1015.68 284.747 1015.71 284.586C1015.74 284.425 1015.73 284.259 1015.69 284.101C1014.96 281.793 1014.09 279.486 1013.21 276.89C1040.72 263.373 1070.89 255.989 1101.59 255.256C1104.72 262.467 1107.41 269.318 1109.81 276.096C1100.71 281.216 1090.38 286.841 1087.97 297.081C1085.81 296.815 1083.62 297.033 1081.55 297.719C1079.48 298.406 1077.6 299.543 1076.04 301.047C1064.61 287.418 1017.29 288.572 1007.76 288.932C995.453 289.437 1027.92 314.027 1036.87 320.95C1066.94 344.098 1086.59 328.161 1079.09 307.033C1080.14 305.756 1081.53 304.786 1083.09 304.227C1084.65 303.668 1086.34 303.541 1087.97 303.86C1088.25 305.23 1088.69 306.562 1089.28 307.826C1088.92 307.648 1088.52 307.555 1088.12 307.555C1087.72 307.555 1087.32 307.648 1086.95 307.826C1083.97 309.701 1086.95 312.225 1093.8 324.267C1092.95 325.118 1092.05 325.913 1091.1 326.647C1088.34 328.666 1090.74 337.464 1099.98 326.647C1101.37 324.989 1098.75 320.157 1095.84 315.902C1099.35 318.275 1103.56 319.421 1107.8 319.16C1112.05 318.899 1116.08 317.245 1119.28 314.46C1122.46 333.821 1120.65 353.663 1114.03 372.15C1106.75 389.817 1088.48 390.827 1092.2 397.534C1093.16 421.309 1091.2 445.111 1086.37 468.42C1067.66 464.382 1030.83 419.167 1016.13 398.182C1017.65 380.648 1015.37 362.994 1009.43 346.406C1004.55 338.041 994.871 334.219 992.323 324.772C991.329 322.666 990.972 320.319 991.295 318.015C991.618 315.712 992.607 313.55 994.143 311.792V312.225ZM1104.5 300.182C1103.7 302.562 1103.19 305.879 1100.57 305.879C1097.95 305.879 1096.64 302.85 1096.93 300.254C1097.22 297.658 1097.95 291.673 1100.71 290.086C1101.24 289.826 1101.83 289.69 1102.42 289.69C1103.02 289.69 1103.6 289.826 1104.13 290.086C1107.56 291.024 1105.74 296.071 1104.5 299.749V300.182ZM1065.26 316.768C1064.46 318.715 1063.66 322.248 1061.33 323.33C1060.92 323.527 1060.48 323.63 1060.02 323.63C1059.57 323.63 1059.12 323.527 1058.71 323.33C1054.34 321.743 1059.15 305.662 1063.08 302.562C1063.42 302.216 1063.85 301.961 1064.32 301.821C1064.78 301.681 1065.28 301.66 1065.76 301.761C1066.24 301.862 1066.68 302.08 1067.06 302.397C1067.43 302.713 1067.71 303.117 1067.88 303.571C1069.41 306.888 1065.7 315.253 1065.26 316.335V316.768ZM1049.32 309.773C1048.37 311.648 1047.94 313.378 1045.46 313.378C1044.88 313.418 1044.3 313.316 1043.76 313.081C1043.23 312.846 1042.76 312.484 1042.41 312.029C1042.05 311.573 1041.8 311.037 1041.7 310.468C1041.6 309.898 1041.64 309.313 1041.82 308.763C1042.62 306.384 1043.5 300.975 1046.41 299.533C1046.87 299.322 1047.37 299.207 1047.88 299.195C1048.39 299.183 1048.89 299.274 1049.36 299.464C1049.83 299.653 1050.26 299.936 1050.62 300.295C1050.97 300.654 1051.25 301.082 1051.43 301.552C1052.45 303.932 1050.78 307.177 1049.32 309.773ZM1012.92 402.221C1033.6 437.556 1088.05 488.756 1092.27 471.593C1097.03 451.219 1099.23 430.341 1098.82 409.432C1198.55 444.334 1266.25 508.298 1295.73 594.616C1274.39 584.527 1250.94 579.584 1227.3 580.194C1226.28 556.469 1193.45 510.606 1180.86 496.832C1178.31 494.02 1173.58 497.625 1176.35 500.438C1195.23 521.618 1209.68 546.301 1218.86 573.055C1183.19 546.445 1111.34 509.308 1012.85 539.883C987.299 496.677 949.99 461.466 905.189 438.277C937.428 417.391 974.504 404.982 1012.92 402.221ZM633.305 239.535C677.08 227.699 723.075 226.389 767.464 235.714C766.717 247.934 767.107 260.197 768.629 272.347H767.318C761.276 244.8 722.55 236.29 709.52 265.135C702.864 262.899 695.649 262.899 688.992 265.135C676.399 239.175 639.929 247.54 633.232 273.212H631.849C633.38 262.055 633.867 250.781 633.305 239.535ZM732.305 298.884C733.615 295.206 745.407 267.948 753.051 267.154C753.687 267.147 754.316 267.289 754.885 267.57C755.455 267.85 755.948 268.262 756.326 268.769C756.703 269.277 756.952 269.866 757.054 270.488C757.155 271.11 757.105 271.747 756.909 272.347C750.411 281.517 744.619 291.159 739.584 301.191C737.764 305.662 730.63 303.932 732.305 298.884ZM721.749 288.788C720.876 290.952 716.945 292.25 715.562 289.726C714.179 287.202 717.527 277.611 726.991 263.549C729.393 260.015 731.649 258.285 733.615 258.573C734.254 258.754 734.84 259.087 735.319 259.544C735.799 260 736.159 260.566 736.367 261.192C736.575 261.818 736.626 262.485 736.514 263.134C736.402 263.784 736.132 264.397 735.726 264.919C730.186 272.336 725.498 280.342 721.749 288.788ZM658.419 300.759C661.549 293.98 665.043 287.13 668.392 280.423C668.749 279.776 669.276 279.237 669.916 278.861C670.556 278.485 671.287 278.286 672.031 278.286C672.776 278.286 673.507 278.485 674.147 278.861C674.787 279.237 675.314 279.776 675.671 280.423C676.128 281.108 676.372 281.91 676.372 282.731C676.372 283.551 676.128 284.354 675.671 285.038C672.468 291.312 669.193 297.874 665.698 304.22C662.932 307.826 656.235 305.086 658.419 300.759ZM649.611 291.673L649.174 292.177C646.918 295.423 641.24 293.331 642.768 289.221C646.971 278.141 652.339 267.53 658.783 257.564C661.913 253.814 668.246 257.059 666.062 261.458C660.894 271.698 654.561 281.288 649.611 291.673ZM623.624 292.322C628.283 290.375 629.593 285.11 630.903 280.567L632.432 280.135C632.05 285.137 632.671 290.166 634.257 294.93C635.844 299.695 638.365 304.102 641.677 307.898C645.603 311.717 650.523 314.381 655.888 315.592C661.253 316.804 666.853 316.514 672.062 314.757C677.27 312.999 681.884 309.843 685.388 305.639C688.892 301.436 691.148 296.351 691.904 290.951C691.152 297.896 690.835 304.881 690.958 311.864C690.958 316.191 689.939 321.599 695.325 321.96H702.605C706.39 321.96 707.409 315.47 703.042 315.398H697.655C697.23 302.549 697.937 289.689 699.766 276.962C700.275 273.428 695.107 272.923 694.379 276.241C691.176 291.745 694.379 282.875 691.54 271.409C696.623 269.604 702.181 269.604 707.264 271.409C705.661 277.19 705.345 283.248 706.338 289.162C707.331 295.076 709.609 300.706 713.014 305.662C715.608 308.991 718.894 311.729 722.65 313.691C726.405 315.652 730.542 316.791 734.78 317.03C739.019 317.269 743.26 316.604 747.216 315.078C751.172 313.552 754.75 311.202 757.71 308.186C764.861 300.281 768.666 289.952 768.337 279.341H769.72C770.594 285.615 771.904 294.269 778.601 293.764C777.873 318.426 780.057 360.684 760.33 376.116C757.782 378.135 754.871 380.443 754.507 382.75C753.596 390.392 753.596 398.113 754.507 405.754C756.618 425.729 721.313 465.247 703.042 482.121C667.809 434.671 657.691 429.984 657.764 388.375C657.764 384.193 657.254 383.544 654.343 382.101C624.861 367.967 627.555 327.224 623.624 292.322ZM650.849 403.375C651.649 425.513 669.193 455.44 700.13 487.674C706.39 495.75 761.713 428.47 760.621 413.903V401.716C909.63 419.095 1016.42 504.043 1033.45 618.558C971.577 606.515 893.397 620.649 880.148 623.173C874.467 587.309 863.76 552.407 848.337 519.475C848.077 518.835 847.57 518.323 846.928 518.052C846.287 517.782 845.563 517.775 844.916 518.033C844.269 518.291 843.753 518.793 843.48 519.429C843.207 520.065 843.2 520.782 843.46 521.422C856.845 553.925 866.609 587.778 872.578 622.38C834.288 582.429 776.053 564.69 694.889 568.295C646.035 570.539 597.507 577.372 549.957 588.703C553.76 566.712 562.82 545.943 576.381 528.129C576.678 527.592 576.768 526.966 576.634 526.368C576.5 525.77 576.151 525.241 575.652 524.879C575.153 524.517 574.538 524.348 573.922 524.401C573.306 524.455 572.731 524.729 572.304 525.172C557.009 543.895 546.966 566.28 543.187 590.073C490.41 602.615 439.157 620.773 390.32 644.23C397.017 502.962 528.847 427.244 650.849 403.375ZM335.143 269.823C335.068 276.67 335.482 283.513 336.38 290.303C310.175 290.952 268.537 301.047 237.527 310.566C236.726 304.22 234.906 292.682 234.833 285.832C266.036 271.1 300.849 265.544 335.143 269.823ZM311.994 308.547C297.436 333.065 300.566 337.392 295.689 337.392C295.141 337.425 294.594 337.327 294.093 337.107C293.592 336.887 293.152 336.55 292.809 336.126C292.467 335.702 292.232 335.203 292.125 334.67C292.018 334.137 292.042 333.587 292.195 333.065C298.819 308.258 305.152 303.643 308.355 303.066C309.053 302.926 309.778 302.995 310.436 303.266C311.094 303.537 311.655 303.997 312.046 304.587C312.438 305.176 312.642 305.869 312.633 306.575C312.624 307.281 312.401 307.967 311.994 308.547ZM289.501 313.955C286.808 318.354 286.153 324.484 282.222 323.546C278.291 322.609 281.13 313.811 283.459 309.124C285.789 304.437 287.827 304.364 289.21 304.725C289.99 304.935 290.683 305.382 291.192 306.003C291.701 306.624 292.001 307.388 292.049 308.186C291.764 310.308 290.881 312.308 289.501 313.955ZM235.343 328.378C234.542 330.253 234.469 336.022 230.538 336.022C229.774 336.051 229.021 335.826 228.4 335.381C227.78 334.937 227.328 334.299 227.117 333.57C226.732 328.525 228.351 323.531 231.63 319.652C232.307 319.054 233.157 318.682 234.059 318.592C234.961 318.501 235.869 318.695 236.653 319.147C238.4 320.301 238.036 323.33 235.343 328.161V328.378ZM238.036 345.18C244.66 321.599 248.446 318.138 250.702 317.633C251.166 317.527 251.651 317.552 252.101 317.705C252.551 317.858 252.949 318.133 253.25 318.498C254.24 319.635 254.737 321.112 254.633 322.609L245.024 347.199C244.725 348.117 244.07 348.88 243.203 349.319C242.336 349.759 241.329 349.839 240.402 349.543C239.475 349.246 238.705 348.597 238.262 347.739C237.818 346.88 237.737 345.882 238.036 344.964V345.18ZM245.316 356.069C259.292 352.031 263.805 353.184 262.276 332.128C261.767 326.142 260.602 312.513 266.717 312.729C271.667 312.729 271.812 335.517 279.165 342.584C286.517 349.651 296.053 344.675 304.06 342.584C325.898 336.671 321.094 327.44 319.492 298.812L337.836 297.369C346.062 339.627 357.126 307.97 364.551 303.211C369.283 300.254 373.359 306.744 374.233 311.72C375.907 322.392 366.954 334.075 368.846 349.723C373.136 372.372 380.481 394.347 390.684 415.057C374.743 445.056 328.955 472.747 308.573 483.708C299.984 452.844 299.256 412.317 294.014 412.461C269.847 412.605 253.978 394.505 245.024 355.853L245.316 356.069ZM293.214 436.114C294.524 447.003 299.911 493.803 307.772 489.909C327.572 480.679 387.845 441.45 396.435 416.211C409.174 419.095 448.919 411.451 510.648 448.301C465.096 475.255 428.544 514.875 405.534 562.238C346.644 555.027 273.778 546.013 212.558 578.031C231.266 534.331 242.477 530.004 237.163 526.542C236.888 526.356 236.577 526.226 236.25 526.162C235.924 526.097 235.587 526.098 235.261 526.166C234.934 526.233 234.625 526.365 234.352 526.554C234.078 526.742 233.846 526.984 233.669 527.263C231.776 530.076 205.206 573.56 204.551 582.429C194.287 588.631 172.376 604.496 165.825 616.971C139.064 617.488 112.986 625.433 90.5565 639.903C112.686 555.027 182.64 484.573 292.923 435.897L293.214 436.114ZM104.46 751.028C76.6529 722.183 82.6219 673.94 88.3726 647.475C159.419 601.251 253.323 621.009 367.609 706.318C329.174 722.616 161.239 809.367 104.46 751.028ZM173.177 616.827C230.975 553.44 314.542 557.479 402.55 568.223C379.984 619.784 378.018 674.228 396.872 718.649C331.358 670.046 253.978 616.611 173.177 616.611V616.827ZM499.875 782.685C428.173 782.685 389.665 720.308 390.684 651.08C492.595 605.722 581.622 582.501 679.165 575.795C768.265 569.665 828.246 585.747 867.555 626.274C675.526 668.892 596.253 782.469 499.875 782.469V782.685ZM940.13 774.753C868.865 790.69 750.867 749.009 667.009 715.765C800.658 637.595 920.913 608.101 1034.4 625.625C1043.35 706.174 1009.87 759.104 940.13 774.753ZM1041.09 665.575C1044.87 623.877 1035.98 582.012 1015.54 545.364C1093.72 525.316 1159.75 536.999 1217.11 580.987C1141.77 586.54 1065.84 644.806 1041.02 665.575H1041.09ZM1239.09 721.606C1194.54 721.606 1100.79 678.339 1057.62 660.888C1103.77 626.274 1158.44 589.569 1224.24 586.972C1249.95 585.4 1275.59 590.969 1298.27 603.054C1317.78 668.243 1308.03 721.173 1239.02 721.606H1239.09Z" fill="#2FDC18"/>
</svg>
