<svg width="1210" height="1210" viewBox="0 0 1210 1210" fill="none" xmlns="http://www.w3.org/2000/svg">
<path fill-rule="evenodd" clip-rule="evenodd" d="M575.961 193.602C578.139 194.268 587.396 198.442 588.908 198.442C589.507 198.349 590.053 198.045 590.447 197.584C590.841 197.124 591.058 196.538 591.058 195.931C591.058 195.325 590.841 194.739 590.447 194.279C590.053 193.818 589.507 193.514 588.908 193.421C588.182 193.421 585.278 192.029 583.342 191.243C575.961 188.157 575.175 187.855 573.783 189.428C573.456 189.813 573.251 190.287 573.195 190.79C573.138 191.292 573.233 191.8 573.467 192.248C573.701 192.696 574.063 193.065 574.507 193.306C574.952 193.547 575.458 193.65 575.961 193.602ZM641.301 248.052C637.273 251.923 632.279 254.639 626.842 255.917C626.842 255.917 621.276 256.885 624.966 258.458C627.632 259.674 630.662 259.825 633.436 258.882C640.273 256.885 643.903 251.198 643.298 248.113C642.269 246.54 642.753 246.54 641.301 248.052ZM711.542 1049.01C713.366 1054.7 715.842 1060.16 718.923 1065.29C734.895 1094.93 748.447 1114.35 747.781 1114.35H749.838C750.201 1107.88 715.898 1048.35 711.542 1049.01ZM758.429 1037.09C756.796 1037.09 754.981 1034.61 760.365 1045.68C767.807 1060.87 783.96 1089.97 795.152 1102.55C804.167 1109.45 767.867 1049.92 758.429 1037.09ZM896.248 1070.37C894.252 1070.91 894.07 1070.37 894.796 1072.3C901.604 1091.87 910.573 1110.62 921.537 1128.21C926.559 1134.26 911.071 1094.08 896.248 1070.37ZM1003.21 1040.12C1000.73 1039.57 1000.19 1038.73 1006.24 1052.22C1012.29 1065.71 1029.71 1096.87 1032.19 1096.81C1032.68 1096.81 1032.92 1096.5 1033.1 1095.96C1025.03 1076.39 1015.01 1057.69 1003.21 1040.12ZM934.545 223.247C935.15 223.247 1129.35 214.354 1132.26 212.902C1135.53 210.482 1134.74 214.112 1135.65 133.042C1135.65 116.707 1136.55 58.5057 1136.07 55.8437C1134.74 51.5482 1130.44 51.6087 1125.06 51.4272C1085.13 50.2777 940.05 59.8972 908.106 61.2282C906.533 61.2282 904.839 61.2282 904.839 63.4667C904.174 63.4667 916.939 219.98 916.939 220.767C918.573 225.062 921.719 223.852 934.545 223.247ZM1126.63 61.1072C1126.63 67.8227 1124.7 203.766 1124.64 203.887C1124.58 204.008 925.409 214.475 924.986 215.08C924.986 213.809 913.249 103.578 909.135 65.2817C938.417 65.1607 1100.19 59.7157 1126.63 61.1072Z" fill="#2FDC18"/>
<path fill-rule="evenodd" clip-rule="evenodd" d="M1019 145.204C1020.51 147.08 1025.48 142.603 1033.7 136.976C1047.26 127.72 1071.64 110.719 1084.77 100.676C1093.9 85.3092 1068.85 103.459 1066.01 105.637C1054.52 114.591 1023.66 139.275 1020.09 142.361C1014.04 136.795 957.836 98.3772 957.231 97.7722C951.726 96.6832 950.213 99.8292 953.057 103.822C969.997 115.378 1018.03 143.873 1019 145.204ZM1075.02 369.054C1018.03 369.054 978.225 398.881 972.477 460.772C967.819 510.987 993.108 543.657 1025.6 557.028C1054.58 569.128 1087.85 572.092 1118.04 558.722C1135.75 550.706 1151.4 538.744 1163.78 523.753C1203.95 472.449 1166.2 369.054 1075.02 369.054ZM1128.81 529.803C1079.26 567.918 1010.89 542.931 996.435 497.556C987.542 469.726 995.709 425.985 1017.01 406.322C1038.3 386.66 1080.11 380.489 1107.33 390.774C1151.74 407.532 1187.37 484.73 1128.81 529.803ZM649.407 196.932C654.099 194.376 659.13 192.501 664.351 191.366C665.001 191.229 665.57 190.84 665.933 190.284C666.296 189.728 666.423 189.051 666.287 188.401C666.15 187.751 665.761 187.182 665.205 186.819C664.65 186.456 663.972 186.329 663.322 186.465C663.322 186.465 644.386 191.124 645.172 195.601C645.264 196.044 645.472 196.455 645.776 196.79C646.079 197.126 646.467 197.375 646.899 197.51C647.331 197.646 647.791 197.664 648.232 197.562C648.673 197.46 649.079 197.243 649.407 196.932Z" fill="#2FDC18"/>
<path fill-rule="evenodd" clip-rule="evenodd" d="M1084.34 416.663C1077.75 413.215 1085.67 430.699 1079.99 470.145C1025.54 470.145 1034.55 467.544 1029.29 470.145C1024.2 475.772 1027.11 481.398 1034.61 481.761C1039.69 481.761 1081.56 481.761 1086.04 479.886C1090.51 478.01 1090.03 471.839 1090.15 466.576C1090.02 452.397 1088.88 438.245 1086.76 424.226C1086.04 419.386 1085.85 417.752 1084.34 416.663ZM1071.45 1021C1065.28 1017.21 1058.68 1014.17 1051.79 1011.92C1039.73 1007.67 1027.12 1005.18 1014.34 1004.54C951.423 1002.06 928.917 1049.01 866.239 1038.66C829.939 1032.61 795.454 1012.23 773.674 1006.54C740.157 997.705 711.419 1010.29 680.201 1026.2C666.165 1033.34 639.848 1055.85 638.335 1050.4C631.741 1038.66 630.168 974.715 631.015 889.955C664.108 892.98 731.626 882.574 785.108 856.256C811.602 842.862 833.242 821.518 847 795.212C851.745 786.906 855.502 778.073 858.192 768.894C879.367 695.145 874.648 662.777 875.798 628.595C916.938 580.558 918.148 438.504 849.117 347.633C833.569 326.7 793.639 301.35 780.45 296.45C782.345 295.184 783.892 293.463 784.949 291.444C786.006 289.425 786.539 287.173 786.5 284.894C787.165 274.367 785.048 271.221 794.909 265.534C798.718 263.745 802.132 261.215 804.952 258.093C807.756 253.998 810.033 249.567 811.728 244.904C819.472 219.796 794.667 220.159 801.322 178.838C802.358 173.009 802.643 167.072 802.169 161.172C801.975 156.124 800.173 151.27 797.027 147.317C793.426 143.223 790.356 138.69 787.891 133.826C783.475 119.487 785.048 106.843 779.058 94.8032C774.937 86.8725 769.945 79.4255 764.175 72.5997C748.869 55.0547 731.203 59.2292 710.451 49.5492C703.214 45.7155 695.713 42.3999 688.006 39.6272C671.446 35.9405 654.365 35.2032 637.549 37.4492C618.491 40.5952 586.85 58.6847 568.7 82.8242C564.824 87.8376 561.364 93.1591 558.354 98.7357C549.862 115.709 544.123 133.925 541.354 152.702C540.023 162.745 543.35 161.595 539.962 171.517C533.307 172.183 533.126 172.485 532.884 173.756C533.638 176.863 534.713 179.884 536.09 182.77C534.154 188.518 532.218 194.265 531.674 196.262C529.435 208.362 536.393 220.462 530.585 230.263C525.805 238.249 513.282 242.363 510.68 252.406C507.171 265.655 514.431 278.3 523.99 288.343C524.83 289.459 525.931 290.353 527.197 290.944C492.107 304.254 470.932 332.024 471.113 333.778L437.717 329.422C435.6 329.422 438.322 326.397 435.116 377.157C433.985 376.098 432.491 375.513 430.941 375.523C419.991 375.523 416.24 400.086 415.272 410.976C413.82 426.706 413.759 441.226 426.827 450.422C427.866 451.148 428.982 451.757 430.155 452.237C428.461 476.982 426.646 504.691 424.77 534.275C398.62 527.808 371.788 524.497 344.85 524.414C321.418 524.029 298.129 528.136 276.243 536.514C221.793 555.753 180.411 587.273 147.62 646.261C147.257 646.866 127.957 682.561 122.452 695.871C114.405 715.11 111.441 735.317 131.708 740.096C137.344 741.251 143.189 740.811 148.588 738.826C140.662 774.4 117.128 912.763 117.067 913.55C107.508 910.343 41.8054 890.257 32.6699 894.129C31.6979 894.556 30.9285 895.342 30.5226 896.323C30.1167 897.304 30.1057 898.404 30.4919 899.393C35.0294 913.55 118.156 965.096 137.456 974.05C145.926 977.922 145.805 976.167 148.648 971.327C173.272 929.824 211.568 833.629 238.188 790.674C230.142 879.246 260.694 1002.42 286.588 1087.79C274.488 1095.29 234.558 1114.47 221.067 1127.96C220.522 1128.57 201.949 1141.88 214.291 1147.44C218.344 1149.68 233.893 1148.89 252.285 1146.96C260.15 1146.05 335.049 1137.4 338.8 1131.35C341.704 1127.54 337.711 1108.84 336.561 1102.67C333.157 1081.35 331.759 1059.76 332.387 1038.18C334.141 960.256 368.687 871.623 394.218 835.807C401.354 843.77 406.642 853.211 409.706 863.456C408.012 956.928 410.19 1036.61 419.991 1074.42C426.294 1102.26 443.172 1126.56 467.06 1142.18C530.161 1183.92 645.232 1178.9 715.11 1158.21C743.242 1149.86 777.727 1134.56 809.127 1137.34C833.024 1139.4 848.754 1151.44 889.531 1158.94C948.398 1169.71 968.181 1149.5 1001.76 1134.74C1038.06 1118.95 1063.53 1110.96 1100.86 1124.63C1113.79 1130 1126.2 1136.55 1137.94 1144.18C1144.42 1148.65 1143.99 1149.8 1146.41 1149.68C1146.89 1149.63 1147.33 1149.44 1147.69 1149.12C1148.05 1148.81 1148.3 1148.39 1148.41 1147.93C1148.41 1146.23 1153.43 1155.55 1071.45 1021ZM238.551 786.5C216.227 820.259 183.678 892.012 161.172 937.75C147.991 930.302 134.761 922.941 121.484 915.667C123.42 906.653 150.161 744.15 151.25 738.1C171.275 730.598 192.027 712.145 221.551 733.018C229.476 738.644 237.341 747.296 245.751 754.677C243.201 759.701 241.523 765.122 240.79 770.709C239.882 775.67 239.096 780.873 238.491 786.258L238.551 786.5ZM329.301 1082.34C316.63 1082.86 304.033 1084.54 291.67 1087.37C270.495 1012.41 225.423 863.093 243.754 769.802C244.722 764.72 245.569 761.513 246.174 759.396C247.566 755.1 247.566 756.068 250.046 757.944C276.424 778.09 291.852 764.72 315.81 773.311C322.872 775.937 329.469 779.674 335.351 784.382C342.938 791.169 348.576 799.857 351.686 809.55C353.039 813.603 355.566 817.162 358.946 819.775C372.196 831.391 382.541 826.127 393.129 834.718C392.161 834.9 316.838 945.312 328.999 1082.16L329.301 1082.34ZM799.749 842.583C776.638 859.039 720.555 881.485 657.332 886.809C642.691 888.079 634.403 887.898 631.317 888.563C631.317 879.246 631.317 869.687 631.741 859.947C639.303 859.342 658.421 856.317 661.265 855.833C695.024 849.783 744.997 837.683 770.165 814.269C776.215 819.593 776.215 819.956 777.849 819.533C785.523 812.821 792.331 805.18 798.116 796.785C818.807 767.624 833.327 731.021 836.352 677.116C836.352 676.632 837.017 662.777 836.896 657.937C851.13 652.016 863.802 642.885 873.922 631.257C869.808 706.942 865.15 795.514 799.447 842.402L799.749 842.583ZM630.349 453.508C623.195 450.981 616.305 447.759 609.779 443.888C609.114 443.277 608.684 442.453 608.562 441.558C608.441 440.663 608.636 439.754 609.114 438.988C613.772 434.39 625.146 437.717 631.196 440.258C632.225 440.682 633.858 441.408 634.705 439.351C635.552 437.294 634.705 437.415 628.655 433.664C626.719 432.454 621.879 429.368 618.552 426.888C616.376 425.591 614.662 423.644 613.651 421.322C613.228 419.325 615.103 416.482 619.701 416.663C628.194 418.286 636.129 422.056 642.752 427.614C642.962 427.847 643.218 428.033 643.505 428.161C643.792 428.289 644.102 428.355 644.416 428.355C644.729 428.355 645.04 428.289 645.326 428.161C645.613 428.033 645.87 427.847 646.079 427.614C647.592 425.496 647.168 412.852 651.524 404.14C652.371 402.869 653.037 401.296 654.368 401.236C659.813 401.236 660.055 415.272 659.934 420.414C659.934 436.084 656.969 434.571 661.023 438.988C665.776 443.544 670.987 447.599 676.571 451.088C674.696 453.568 679.838 447.034 651.161 482.427C647.894 479.16 643.599 468.451 640.332 469.54C631.317 474.078 605.847 465.547 606.815 458.166C607.48 452.903 618.915 454.96 624.602 455.807C630.289 456.654 629.744 456.714 630.652 455.807C630.802 455.624 630.912 455.413 630.975 455.185C631.038 454.958 631.053 454.72 631.019 454.486C630.985 454.253 630.902 454.029 630.777 453.829C630.651 453.629 630.485 453.458 630.289 453.326L630.349 453.508ZM602.761 239.217C606.984 241.45 611.575 242.905 616.313 243.512C617.584 242.302 617.523 242.786 616.313 241.516C612.141 240.137 608.219 238.094 604.697 235.466C605.242 231.957 613.833 209.33 615.89 202.433C617.16 198.198 617.523 197.109 618.552 193.237C621.655 193.056 624.766 193.056 627.869 193.237C627.913 199.29 628.85 205.304 630.652 211.084C635.855 219.736 659.45 220.28 669.493 219.857C679.536 219.433 683.589 218.949 687.643 213.202C682.864 230.981 680.144 249.251 679.536 267.652C676.666 272.984 672.686 277.638 667.864 281.302C663.042 284.965 657.491 287.552 651.585 288.887C621.758 293.606 606.028 287.072 589.088 263.477C580.533 251.512 575.03 237.639 573.056 223.063C583.957 223.597 594.847 221.803 605 217.8C598.526 235.163 599.313 237.099 602.761 239.217ZM633.011 174.361C640.271 172.969 678.265 174.724 698.956 175.147C696.597 181.197 693.451 191.18 690.305 202.614C688.557 207.361 686.021 211.779 682.803 215.682C678.326 218.223 649.467 217.679 638.214 211.568C632.83 208.725 632.83 208.301 632.83 174.361H633.011ZM662.172 290.4L661.628 291.186C656.259 300.161 650.19 308.697 643.478 316.717C641.239 313.39 631.378 298.567 629.018 294.332C636.661 295.089 644.369 294.845 651.948 293.606C655.503 293.079 658.953 291.997 662.172 290.4ZM589.572 302.016C591.024 318.368 593.899 334.563 598.163 350.416C590.448 348.503 582.631 347.029 574.75 345.999C577.775 338.134 588.483 304.436 589.451 301.895L589.572 302.016ZM593.686 292.759C597.937 290.986 601.992 288.776 605.786 286.165C611.942 290.354 618.981 293.066 626.356 294.09C629.823 302.829 634.118 311.216 639.182 319.137C606.573 349.871 605.121 351.807 608.267 351.323C614.317 350.053 637.367 327.728 641.602 323.614C646.745 328.817 668.585 357.131 672.76 361.85C674.877 363.544 676.148 361.427 678.205 359.491C686.856 351.384 690.97 347.814 693.148 346.12C642.631 487.872 671.792 422.895 660.902 401.901C660.296 400.227 659.082 398.843 657.501 398.024C655.92 397.206 654.088 397.013 652.371 397.485C650.897 398.261 649.598 399.333 648.557 400.634C647.516 401.936 646.755 403.438 646.321 405.047C647.229 379.516 647.713 362.697 647.41 357.918C647.41 356.708 651.161 357.131 600.099 350.537C600.16 349.811 593.686 293.243 593.565 292.638L593.686 292.759ZM650.072 484.423C647.834 487.448 645.837 490.473 644.022 492.651C644.022 486.964 644.627 481.882 644.93 477.526C646.194 480.061 647.894 482.355 649.951 484.302L650.072 484.423ZM643.296 509.712C676.692 607.42 723.217 691.212 822.134 662.959C826.43 661.749 830.604 660.357 834.779 658.724C834.779 714.565 817.899 777.304 777.062 815.419C733.714 774.898 686.385 738.858 635.794 707.85C637.125 644.869 640.453 561.742 643.175 509.591L643.296 509.712ZM734.046 300.14C741.926 301.214 749.685 303.038 757.218 305.585C760.1 306.694 763.29 306.694 766.172 305.585C769.595 304.326 772.815 302.573 775.731 300.382C786.318 301.35 822.255 325.913 838.046 341.462C856.196 359.612 876.826 396.819 888.987 439.411C905.322 498.943 909.375 597.498 858.132 639.061C829.757 662.051 784.322 669.311 754.253 658.361C694.903 637.367 665.621 559.806 645.353 500.274C647.108 493.256 682.379 450.906 686.735 445.824C728.238 444.735 808.098 504.933 818.323 527.499L820.138 526.652C811.063 506.445 749.413 456.533 704.825 444.554C706.216 432.817 708.636 399.421 708.636 398.816C722.793 397.787 738.281 399.844 738.886 395.851C739.249 388.773 726.786 315.205 724.245 301.955C727.256 300.63 730.516 299.97 733.804 300.019L734.046 300.14ZM713.053 306.735C716.201 305.622 719.29 304.35 722.309 302.923C722.309 303.528 733.502 392.887 733.562 393.673C702.042 394.883 703.917 391.616 703.615 403.716C703.615 404.261 702.768 439.169 702.647 444.372C699.682 443.646 686.735 441.105 684.497 442.739C683.529 443.707 681.532 445.945 678.87 448.789C676.208 446.792 670.34 442.739 666.347 439.048C670.703 429.55 659.994 454.173 712.811 306.614L713.053 306.735ZM694.903 342.551C687.959 346.896 681.347 351.749 675.119 357.071C670.037 350.174 654.247 329.422 646.624 321.255C653.597 313.791 659.117 305.091 662.898 295.603C663.833 293.7 664.446 291.656 664.713 289.553C670.649 286.227 675.839 281.717 679.959 276.303C681.472 295.24 688.732 309.276 707.305 308.066C704.28 314.963 700.348 325.853 694.479 342.43L694.903 342.551ZM567.853 148.951C571.664 155.424 571.483 156.513 575.173 158.449C579.367 160.417 583.977 161.331 588.604 161.111C597.074 160.022 602.519 151.734 610.566 150.766C612.139 150.766 630.349 163.229 640.816 159.901C651.282 156.574 656.667 148.467 664.229 152.157C671.792 155.848 675.18 166.012 691.515 160.627C696.657 158.392 701.545 155.613 706.095 152.339C704.957 158.688 703.256 164.924 701.013 170.973C686.856 170.005 646.563 168.553 635.371 169.339C629.986 169.702 627.264 169.339 627.687 183.073C622.905 182.686 618.094 182.848 613.349 183.557C613.41 181.01 613.289 178.463 612.986 175.934C612.26 170.973 610.989 170.428 607.904 169.884C604.818 169.339 585.64 169.884 567.066 170.186C566.042 163.057 566.123 155.813 567.308 148.709L567.853 148.951ZM608.025 175.087C609.117 187.328 608.547 199.661 606.331 211.75C599.555 220.038 562.408 223.003 557.447 218.647C551.76 211.024 541.233 183.678 538.692 176.297C549.763 175.934 607.48 173.151 607.48 174.845L608.025 175.087ZM529.435 291.852C547.736 298.039 567.32 299.414 586.305 295.845C582.373 306.674 575.234 332.145 569.789 344.971C569.486 345.818 478.131 333.597 476.921 332.871C519.211 288.222 522.115 298.083 529.435 291.852ZM427.493 448.789C416.663 440.984 416.482 427.735 417.934 414.425C418.39 407.896 419.505 401.43 421.261 395.125C422.342 390.039 424.555 385.263 427.735 381.15C429.308 379.395 431.667 378.669 432.817 380.424C432.817 381.029 434.329 380.847 434.45 388.047C434.45 402.567 430.699 407.709 434.45 408.254C435.116 408.254 461.433 397.606 466.273 406.197C468.451 410.916 462.099 412.852 455.081 415.151C442.013 419.446 440.379 418.478 440.682 421.201C440.984 423.923 444.312 421.201 455.867 422.532C460.768 423.076 468.391 425.859 465.668 430.034C464.216 432.998 451.632 434.208 447.518 434.692C441.468 435.418 439.956 434.995 439.835 437.233C439.714 439.472 442.618 439.23 448.184 439.835C463.006 441.468 462.946 444.614 463.188 445.219C464.64 453.75 436.628 455.444 427.493 448.789ZM652.855 1165.47C620.589 1170.1 587.843 1170.35 555.511 1166.2C490.897 1158.76 441.105 1135.34 424.226 1073.15C398.332 977.982 425.133 578.864 432.756 453.145C442.678 456.351 457.985 456.17 464.156 450.846C465.239 450.023 466.014 448.858 466.354 447.541C466.694 446.224 466.581 444.83 466.031 443.586C465.113 442.162 463.906 440.947 462.489 440.02C461.072 439.092 459.475 438.473 457.803 438.201C453.75 437.112 456.351 438.201 463.853 436.205C473.17 433.664 473.654 422.411 460.707 419.265C457.38 418.478 457.138 419.265 459.316 418.236C464.458 416.421 470.992 414.122 471.416 408.617C471.51 407.161 471.218 405.707 470.57 404.4C469.922 403.094 468.941 401.981 467.725 401.175C460.707 395.972 445.703 400.026 437.475 402.869C437.475 400.389 440.137 387.2 437.475 380.061C438.927 354.227 439.593 336.985 439.169 331.661C653.339 360.882 646.14 359.43 644.869 359.43C644.869 373.224 643.901 394.883 642.812 422.29C635.552 417.45 621.819 409.524 614.014 413.457C612.664 414.096 611.513 415.091 610.686 416.335C609.858 417.578 609.384 419.024 609.316 420.517C609.248 422.009 609.587 423.492 610.297 424.806C611.008 426.12 612.063 427.216 613.349 427.977C619.399 433.543 621.637 432.877 618.128 432.635C607.662 431.909 603.548 437.596 605.06 442.981C605.665 444.38 606.552 445.64 607.666 446.681C608.78 447.722 610.097 448.522 611.534 449.031C619.52 453.084 618.31 450.846 611.534 451.693C603.064 452.721 600.644 460.465 609.779 466.273C614.384 469.098 619.509 470.971 624.85 471.782C630.191 472.592 635.641 472.324 640.876 470.992C640.876 471.597 632.709 595.199 629.744 760.122C625.267 906.471 623.694 1038.42 634.826 1053.55C639.908 1090.88 677.176 1144.3 718.558 1152.1C697.116 1158.57 675.122 1163.05 652.855 1165.47ZM1135.1 1136.79C1110.17 1121.67 1089.3 1111.87 1058.51 1112.59C995.467 1114.77 971.993 1167.04 893.827 1154.28C835.807 1144.96 824.857 1123.3 770.891 1135.46C753.104 1139.46 740.157 1145.02 722.854 1150.53C686.554 1144.05 646.987 1092.93 637.609 1055.36C637.609 1055.36 690.426 1025.6 705.006 1019.06C765.99 993.107 780.329 1017.85 840.042 1036.61C891.467 1052.82 908.347 1043.93 953.056 1023.6C978.648 1011.92 998.492 1005.81 1026.68 1010.23C1040.94 1012.39 1054.75 1016.91 1067.52 1023.6C1143.03 1147.87 1138.31 1138.79 1135.1 1136.79ZM248.05 138.484C236.434 163.713 234.074 201.828 247.082 224.455C252.225 233.149 258.837 240.887 266.623 247.324C278.494 255.927 292.091 261.848 306.475 264.679C320.859 267.51 335.687 267.182 349.932 263.719C367.983 258.574 384.241 248.496 396.88 234.619C404.263 226.911 409.747 217.588 412.897 207.391C416.048 197.193 416.778 186.402 415.03 175.873C410.069 137.153 379.153 95.8922 325.853 95.7107C293.425 95.5897 262.086 108.9 248.05 138.484ZM389.015 236.736C363.605 259.726 335.412 268.136 300.624 258.819C292.096 256.803 283.932 253.476 276.424 248.957C264.095 241.361 254.286 230.289 248.231 217.134C235.647 188.76 242.907 144.534 262.751 122.694C309.034 71.7527 407.104 100.672 412.065 176.176C414.122 206.063 404.019 223.245 389.015 236.736Z" fill="#2FDC18"/>
<path fill-rule="evenodd" clip-rule="evenodd" d="M259.667 101.042C244.176 112.771 233.161 129.443 228.449 148.292C211.327 204.194 233.228 249.509 272.311 268.143C300.014 281.566 331.781 283.966 361.186 274.858C384.357 266.691 410.433 247.331 421.686 226.458C439.352 193.244 434.814 139.822 394.461 103.583C365.542 77.9913 305.707 68.0088 259.667 101.042ZM399.664 245.758C370.321 272.015 336.562 282.058 296.088 271.289C282.024 267.95 268.881 261.522 257.61 252.473C209.21 211.757 214.171 101.647 306.01 86.6428C390.71 72.6673 428.885 142 427.01 190.945C426.599 201.498 423.948 211.843 419.233 221.293C414.518 230.743 407.848 239.083 399.664 245.758Z" fill="#2FDC18"/>
<path d="M356.536 231.138C357.674 231.302 358.991 232.461 360.487 234.614C361.982 236.766 362.593 238.791 362.319 240.688C361.679 245.113 358.81 248.442 353.711 250.674C348.756 252.797 342.549 253.32 335.089 252.241C331.043 251.656 327.025 249.978 323.037 247.207C319.193 244.327 315.929 241.015 313.243 237.27C309.081 241.058 305.156 243.653 301.467 245.056C297.797 246.332 293.054 246.55 287.238 245.709C284.835 245.362 282.407 244.301 279.953 242.526C277.643 240.643 275.777 238.372 274.354 235.714C272.931 233.055 272.403 230.461 272.768 227.932C273.262 224.518 274.116 221.737 275.33 219.589C276.671 217.46 277.983 215.971 279.268 215.124C280.57 214.151 282.569 212.826 285.264 211.15C290.255 208.774 295.162 207.87 299.985 208.438C302.64 208.822 305.213 209.775 307.704 211.297C309.951 207.362 311.276 204.004 311.678 201.222C311.806 200.337 311.106 198.041 309.576 194.334C306.813 193.806 303.344 193.24 299.172 192.636C298.413 192.527 296.264 192.216 292.723 191.704C289.183 191.192 286.817 190.14 285.628 188.548C284.438 186.956 284.053 184.706 284.474 181.798C284.766 179.774 286.033 178.602 288.274 178.281C290.66 177.851 294.508 178.02 299.819 178.788L302.664 179.2C298.47 169.815 296.803 162.151 297.662 156.209C298.448 150.771 300.887 145.96 304.977 141.776C309.068 137.591 314.096 134.51 320.062 132.532C326.154 130.573 332.361 130.051 338.683 130.965C344.374 131.788 349.438 133.811 353.877 137.035C358.443 140.277 361.906 144.005 364.266 148.219C366.644 152.306 367.586 156.057 367.092 159.471C366.763 161.747 365.604 163.516 363.614 164.777C361.751 166.057 359.681 166.532 357.405 166.203C353.612 165.654 350.995 163.662 349.556 160.227C348.134 156.665 347.009 154.179 346.181 152.768C345.352 151.357 344.161 150.217 342.609 149.347C341.183 148.495 339.016 147.859 336.108 147.439C331.05 146.707 326.64 147.296 322.879 149.205C320.655 150.303 319.089 151.755 318.183 153.56C317.295 155.239 316.576 157.975 316.028 161.769C315.717 163.918 316.02 166.286 316.937 168.871C317.981 171.475 319.141 174.16 320.42 176.926C321.842 179.585 322.752 181.33 323.148 182.162L347.046 185.617C350.839 186.166 353.413 187.119 354.765 188.476C356.245 189.852 356.756 192.12 356.299 195.281C355.969 197.557 353.844 198.864 349.923 199.2C346.002 199.537 342.207 199.44 338.54 198.91L328.867 197.511C329.621 200.331 329.797 203.132 329.395 205.914C328.463 212.362 326.23 218.43 322.697 224.115C324.321 225.382 325.863 226.767 327.324 228.269C329.687 230.677 331.798 232.595 333.656 234.026C335.66 235.348 337.989 236.201 340.644 236.585C343.173 236.951 346.5 235.819 350.624 233.188C352.795 231.565 354.765 230.882 356.536 231.138ZM304.073 227.037C303.856 226.748 303.351 226.223 302.558 225.463C301.782 224.576 300.745 223.716 299.445 222.883C298.272 222.068 297.054 221.569 295.789 221.386C293.766 221.093 291.94 221.668 290.312 223.111C288.701 224.427 287.796 225.781 287.594 227.172C287.375 228.689 287.562 230.072 288.157 231.319C288.895 232.459 290.023 233.138 291.541 233.358C294.576 233.797 298.065 232.429 302.009 229.256L304.073 227.037Z" fill="#2FDC18"/>
</svg>
