<svg width="1396" height="1396" viewBox="0 0 1396 1396" fill="none" xmlns="http://www.w3.org/2000/svg">
<path d="M1264.01 521.762C1261.85 499.915 1250.89 376.578 1249.42 370.645C1246.7 359.477 1237.97 357.104 1228.13 353.823C1144.37 325.904 1099.28 313.968 1099.28 311.315C1099.28 297.355 1101.59 273.484 1102.35 259.105C1102.91 248.705 1086.86 238.165 1079.67 231.185C971.059 126.834 893.651 84.6049 852.818 52.6365C835.159 38.6765 835.508 33.8603 824.898 34.9771C769.058 40.8403 596.861 68.4113 495.093 98.8441C491.184 100.031 484.134 100.45 482.11 104.428C481.116 109.604 480.951 114.905 481.622 120.133C480.924 131.301 480.295 142.469 479.807 153.637C437.159 144.354 354.167 128.509 353.399 128.649C348.932 129.556 347.396 135.21 345.93 138.84C324.383 193.321 297.569 245.57 265.87 294.843C262.45 300.008 257.005 305.033 256.307 311.455C256.42 314.546 256.888 317.615 257.703 320.599C258.611 327.579 279.271 492.027 280.249 496.704C393.674 520.646 413.985 526.648 420.547 528.463C401.683 549.675 387.127 574.354 377.689 601.125C357.866 662.27 375.595 688.863 427.945 725.09C448.33 739.161 471.143 749.337 495.233 755.104C479.109 780.72 459.146 816.388 463.194 847.519C463.194 848.426 465.358 850.799 465.149 851.428C464.939 852.056 460.751 854.429 460.053 854.918C395.139 900.706 297.001 1067.04 170.453 1046.52C168.499 1046.17 165.637 1045.47 164.799 1047.91C164.371 1049.15 164.112 1050.45 164.032 1051.75C164.032 1050.57 159.215 1049.87 158.378 1049.66C143.092 1045.89 136.74 1067.11 133.669 1077.93C131.714 1084.91 121.105 1116.46 136.461 1113.6C146.302 1111.71 154.469 1093.42 159.704 1085.68C173.664 1098.94 205.702 1108.57 211.565 1109.97C245.822 1118.17 281.196 1120.67 316.265 1117.37C397.513 1109.97 471.989 1071.51 508.355 1034.51C514.009 1028.72 520.849 1016.99 529.295 1015.46C536.275 1014.41 540.952 1020.97 545 1025.09C605.726 1086.79 614.8 1108.22 614.381 1107.52C651.972 1174.11 676.559 1247.23 686.834 1323C687.322 1326.77 686.834 1330.74 689.975 1332.7C692.138 1333.96 697.373 1331.51 697.513 1333.89C698.071 1342.54 695.279 1349.66 701.282 1356.36C708.821 1364.88 733.39 1359.57 743.162 1358.39C750.142 1357.55 761.31 1356.99 765.987 1351.41C770.663 1345.82 764.381 1340.38 759.007 1338.35C752.027 1335.84 729.202 1336.82 725.642 1330.74C734.577 1329.63 737.369 1330.33 741.068 1321.39C764.032 1266.88 766.196 1198.12 762.008 1139.91C756.005 1058.25 720.128 989.213 667.29 928.278C679.365 919.483 686.066 905.662 692.767 892.68C708.47 862.361 718.836 829.564 723.409 795.727C739.891 795.918 756.37 795.126 772.757 793.354C804.307 788.747 836.904 779.883 860.356 756.569C882.292 733.672 894.759 703.328 895.256 671.623C933.716 684.536 1078.62 734.443 1083.72 736.397C1086.16 737.609 1088.74 738.522 1091.39 739.12C1097.33 737.863 1106.12 722.926 1110.17 718.18C1155.7 664.563 1205.9 615.091 1260.17 570.343C1270.36 561.618 1268.69 569.785 1264.01 521.762ZM162.636 1063.62C161.1 1074.65 160.332 1083.79 152.724 1092.87C149.234 1096.98 133.04 1120.79 131.784 1104.1C130.807 1091.33 139.671 1070.6 145.325 1059.36C148.676 1052.38 150.002 1050.5 158.238 1052.38C166.475 1054.27 163.613 1056.85 162.636 1063.62ZM725.154 1332.7C732.134 1338.07 745.466 1337.17 753.702 1339.68C756.703 1340.59 764.451 1342.19 764.87 1346.66C765.428 1351.96 753.702 1353.64 750.352 1353.64C742.454 1355.02 734.484 1355.96 726.48 1356.43C720.966 1356.43 709.03 1358.8 704.284 1355.45C699.537 1352.1 701.003 1338.91 700.235 1332.63C706.238 1332.42 721.036 1329.35 725.154 1332.7ZM834.112 45.1679C920.974 104.777 1003.8 170.066 1082.04 240.608C1086.91 244.468 1091.53 248.641 1095.86 253.102C1100.26 258.407 1098.72 250.38 1094.74 310.617C915.568 255.615 818.058 233.837 815.545 233.279C816.662 225.95 827.83 120.761 834.112 45.1679ZM487.206 106.662C594.467 74.602 704.558 52.9111 815.964 41.8873C817.848 41.8873 825.526 39.7933 826.992 40.8403C828.458 41.8873 827.411 49.2861 826.992 53.0553C822.455 100.38 815.475 174.856 812.543 232.162C740.719 214.223 485.112 154.684 483.785 154.335C484.065 146.587 484.902 110.082 487.206 106.662ZM530.482 886.467C514.146 878.269 498.402 868.94 483.367 858.547C474.013 851.567 466.824 846.891 468.569 834.257C473.595 793.633 497.327 753.359 523.99 721.181C527.829 716.574 535.926 708.198 534.6 707.221C532.157 705.197 504.027 738.072 497.885 750.985C460.811 740.74 426.698 721.841 398.35 695.844C376.852 673.926 371.268 657.384 377.899 621.855C386.554 575.787 418.802 536.49 452.096 503.614C459.844 496.006 467.033 487.839 478.55 487.141C484.483 487.141 502.352 488.607 506.47 494.121C508.983 497.332 506.47 508.081 506.47 511.92C505.563 521.204 504.167 530.348 502.631 539.84C499.527 562.088 493.689 583.867 485.251 604.685C484.204 606.988 480.016 613.27 480.226 615.434C480.226 619.343 482.738 618.365 486.089 619.133C518.197 626.462 557.075 635.048 583.111 656.337C592.115 663.735 605.168 678.393 615.289 676.16C617.705 675.297 619.836 673.785 621.449 671.791C623.062 669.796 624.094 667.395 624.432 664.852C634.123 670.598 644.925 674.215 656.122 675.462C652.981 695.006 661.217 715.388 662.124 735.001C665.056 803.196 623.595 921.158 611.101 922.763C588.555 914.387 592.324 918.854 530.482 886.467ZM472.548 464.457C471.152 458.942 474.991 463.061 477.294 464.945C479.597 466.83 483.785 471.925 485.251 469.203C486.717 466.481 477.154 460.967 479.667 457.058C483.436 457.058 487.415 461.734 490.137 464.038C491.114 464.875 496.14 471.018 497.117 471.018C501.096 471.018 497.676 467.877 497.117 465.434C495.791 457.058 498.094 456.639 502.492 463.828C503.329 465.713 504.516 467.388 505.354 469.273C507.76 474.902 508.511 481.101 507.517 487.141V488.189C503.624 486.441 499.639 484.904 495.582 483.582C490.277 482.116 481.203 482.953 476.945 480.58C475.479 479.812 471.152 476.043 471.152 474.089C471.152 469.691 476.596 474.089 479.039 475.206C481.482 476.323 473.246 467.039 472.548 464.457ZM666.871 673.857C659.417 673.991 651.978 673.146 644.744 671.344C637.743 669.59 630.989 666.963 624.642 663.526C625.063 661.73 625.389 659.912 625.619 658.082C626.806 658.082 628.551 658.5 629.598 657.663C633.357 651.373 634.674 643.92 633.297 636.723C632.39 635.327 627.853 634.768 626.317 633.861C614.94 626.881 619.337 611.316 628.551 615.155C631.971 616.551 640.068 629.813 645.721 625.555C649.63 622.623 640.207 607.477 638.741 603.568C639.907 604.9 641.331 605.983 642.926 606.751C644.522 607.518 646.256 607.955 648.025 608.035C644.245 603.638 641.927 598.174 641.394 592.4C654.097 603.149 671.059 598.472 686.066 599.729C692.491 599.858 698.807 601.408 704.563 604.266C709.379 607.686 708.332 618.226 708.681 624.438C709.449 638.398 710.217 658.5 696.885 666.318C684.809 673.298 668.267 669.529 667.359 669.878C666.452 670.227 666.871 673.857 666.871 673.857ZM669.314 672.321C690.254 678.184 706.657 667.575 710.356 652.986C712.997 639.151 712.997 624.941 710.356 611.106L750.561 624.019C756.424 625.904 786.368 632.186 787.206 637.979C788.866 648.852 791.339 659.585 794.605 670.087C781.109 667.847 767.337 667.847 753.842 670.087C738.271 671.119 722.814 673.453 707.634 677.067C695.988 679.98 684.521 683.569 673.292 687.816C670.291 687.816 669.942 683.559 669.663 681.465C669.593 680.627 669.314 672.321 669.314 672.321ZM709.937 600.287C711.605 602.035 713.145 603.901 714.544 605.871C709.728 604.126 712.311 605.732 709.937 600.287ZM680.482 567.9C655.982 574.391 631.622 580.324 606.773 584.792C622.39 575.518 638.49 567.084 655.005 559.524C678.946 548.496 689.137 542.493 707.425 548.984C737.718 559.803 698.839 562.805 680.482 567.691V567.9ZM676.015 547.588C618.918 565.457 613.195 575.508 592.813 585.141C592.324 582.279 592.045 579.347 591.836 576.416C590.733 565.05 593.495 553.645 599.676 544.044C605.857 534.443 615.096 527.208 625.898 523.507C637.276 520.087 646.838 517.365 658.216 522.181C669.907 527.201 680.506 534.457 689.416 543.54C687.113 545.913 679.435 546.332 676.015 547.379V547.588ZM619.197 651.451C620.942 654.033 622.269 658.431 624.502 658.431C617.522 697.24 594.139 657.733 569.919 643.982C543.584 629.792 515.212 619.762 485.81 614.247C495.551 594.216 502.391 572.899 506.121 550.939C506.121 550.939 550.724 564.27 554.981 565.527C565.8 568.668 576.899 570.622 587.787 574.182C588.834 630.581 610.821 638.887 619.197 651.451ZM889.323 672.879C887.858 710.85 871.245 747.426 838.998 768.645C805.633 790.562 763.055 791.051 724.246 790.981C726.479 772.901 727.157 754.663 726.271 736.467C726.271 733.954 724.037 733.466 724.107 736.048C725.596 782.074 716.348 827.814 697.094 869.645C689.277 886.607 680.552 908.036 666.033 920.32C651.515 932.605 631.622 927.928 614.87 923.671C628.83 908.315 635.81 884.234 642.79 863.014C649.912 840.95 655.716 818.481 660.17 795.727C674.688 718.04 651.375 702.265 658.076 675.602C661.048 675.866 664.038 675.866 667.01 675.602C667.848 687.049 671.338 699.543 686.973 693.61C684.792 694.221 682.496 694.306 680.275 693.857C678.055 693.408 675.972 692.438 674.2 691.027C705.47 675.951 739.393 672.181 773.665 671.693C781.108 671.901 788.526 672.647 795.861 673.926C796.699 675.043 800.608 677.835 799.979 671.972C798.735 666.823 797.15 661.763 795.233 656.825C788.253 628.207 780.784 559.594 799.63 537.048C808.355 526.578 824.34 529.65 834.53 535.932C857.774 550.31 891.836 609.78 889.323 672.879ZM818.686 511.641C818.686 512.618 824.898 509.477 825.666 509.198C838.439 502.986 844.302 506.546 839.626 509.896L833.065 514.294C831.389 515.41 834.251 516.108 835.089 516.108C835.926 516.108 846.047 511.362 847.234 512.898C849.537 515.969 837.183 519.878 836.694 520.576C832.995 525.113 839.626 520.994 842.627 522.67C845.629 524.345 840.882 525.252 838.369 526.439C832.436 529.231 830.273 526.439 824.409 525.531C818.002 523.639 811.134 524.059 805.005 526.718C805.475 522.205 806.979 517.862 809.401 514.024C811.822 510.187 815.094 506.959 818.965 504.591C822.455 502.079 834.181 496.914 825.456 505.15C822.944 506.755 818.127 508.64 818.686 511.641ZM1104.87 721.041C1102 724.392 1096.84 733.047 1092.93 735.001C1089.02 736.956 1091.39 735.909 1087.63 735.001C1078.53 732.639 1069.61 729.606 1060.96 725.927C895.117 666.039 895.326 667.365 895.187 665.48C894.628 658.5 893.511 650.753 893.093 644.959C891.797 625.161 886.901 605.764 878.644 587.723C869.57 566.783 856.378 541.306 835.228 530.069C839.277 529.44 851.771 521.623 840.882 521.134C848.77 518.063 852.399 507.593 840.882 511.641C852.26 501.032 833.065 503.754 827.481 505.499C831.599 504.242 830.622 495.727 823.083 498.519C817.455 501.019 812.537 504.88 808.772 509.754C805.007 514.628 802.513 520.361 801.515 526.439C800.677 531.953 796.699 531.674 793.488 536.001C790.104 541.059 787.734 546.724 786.508 552.684C783.634 565.105 782.344 577.84 782.669 590.585C783.047 603.338 784.118 616.06 785.88 628.696C775.968 624.089 718.034 608.384 718.244 606.639C719.466 598.963 719.466 591.142 718.244 583.465C717.895 581.511 712.799 565.527 710.426 566.085C716.08 564.759 725.293 562.526 723.688 554.708C721.664 545.076 700.096 544.726 695.14 543.4C690.184 542.074 688.16 539.212 683.693 535.234C658.844 511.571 643.907 506.965 612.497 526.439C605.56 530.999 599.75 537.076 595.506 544.21C591.262 551.344 588.694 559.349 587.997 567.621C564.404 561.06 540.812 554.568 517.15 548.356C515.107 547.994 513.098 547.456 511.147 546.751C510.24 546.262 507.587 546.751 507.099 545.704C507.375 541.976 508.006 538.283 508.983 534.675C510.309 526.788 511.566 518.9 512.334 510.943C513.755 504.765 513.755 498.345 512.334 492.167C512.334 491.05 509.332 489.235 508.564 488.537C510.348 481.757 509.882 474.58 507.238 468.086C506.121 464.736 503.399 456.918 499.211 456.22C493.837 455.243 493.976 461.246 494.953 464.945C491.952 462.014 471.361 446.308 478.062 462.083C469.476 454.266 468.15 464.666 474.293 470.878C464.172 467.179 470.803 479.533 475.898 481.348C452.515 484.14 429.202 516.667 424.316 523.577C403.795 517.295 292.184 495.308 285.204 494.47C281.714 476.602 280.318 462.781 264.264 313.549C600.282 369.947 931.901 467.667 1263.38 563.224C1206.06 611.241 1152.91 664.036 1104.52 721.041H1104.87ZM264.264 309.221C295.88 259.604 323.179 207.365 345.861 153.079C347.815 148.402 350.537 136.815 356.47 135.489C362.403 134.163 376.293 139.398 383.134 140.724C620.035 187.281 763.265 212.758 1226.53 360.175C1231.02 361.086 1235.33 362.712 1239.3 364.992C1245.65 370.017 1244.75 381.534 1245.65 389.003C1247.05 401.008 1264.78 556.523 1265.2 560.292C935.81 461.525 608.309 360.873 263.915 309.082L264.264 309.221Z" fill="#2FDC18"/>
<path d="M314.104 288.765C346.287 298.759 379.877 303.474 413.569 302.725L314.104 288.765ZM377.273 278.714C358.137 274.202 338.743 270.869 319.199 268.732C337.626 276.154 357.425 279.557 377.273 278.714ZM1218.78 377.9C1218.01 372.595 1137.25 353.539 1133 353.679C1128.74 353.819 1129.72 358.216 1129.16 360.659C1125.81 374.619 1123.09 384.321 1121.76 393.116C1121.41 395.419 1119.74 404.005 1123.5 404.633C1150.94 409.449 1217.66 432.553 1219.41 432.553C1221.15 432.553 1219.34 381.18 1218.78 377.9ZM1133.97 401.911C1126.99 400.026 1126.58 400.654 1126.99 393.325C1127.7 380.948 1130.05 368.72 1133.97 356.96C1136.63 357.378 1213.2 379.645 1213.97 380.692C1216.41 384.182 1215.78 418.384 1216.9 427.737C1198.68 420.478 1170.2 411.822 1133.97 401.911ZM844.165 181.482C863.43 194.535 880.461 199.63 933.09 233.134C935.184 234.461 941.605 240.114 943.56 240.114C948.097 239.277 947.12 233.134 947.818 228.807C950.4 211.985 951.936 195.024 952.843 178.062C953.89 157.96 949.912 154.051 934.974 143.162C920.037 132.273 880.251 104.423 863.499 95.1398C861.126 93.8136 855.682 88.788 854.635 93.8136C849.819 117.476 847.655 135.275 843.257 164.591C842.629 168.5 840.047 178.83 844.165 181.482ZM847.236 165.079C851.284 135.414 854.216 110.915 856.519 93.6042C856.519 93.6042 856.519 92.9062 857.078 92.976C866.501 99.956 931.136 147.909 937.627 152.934C947.05 160.333 947.05 166.196 946.771 177.504C946.212 196.908 944.816 216.243 942.932 235.508C905.938 214.568 879.274 197.257 860.289 185.112C856.938 182.948 848.702 180.086 846.328 176.457C843.955 172.827 846.817 168.43 847.236 165.219V165.079ZM678.878 610.752C675.877 609.356 668.618 611.869 668.408 615.778C671.694 613.706 675.207 612.02 678.878 610.752ZM704.984 609.286C704.538 608.519 703.926 607.86 703.193 607.36C702.46 606.86 701.624 606.531 700.746 606.397C699.869 606.263 698.972 606.328 698.123 606.586C697.274 606.845 696.494 607.29 695.84 607.89C698.938 607.923 702.016 608.393 704.984 609.286ZM694.793 641.255L690.814 641.743C708.055 648.723 696.677 622.828 692.699 617.662C693.815 622.199 701.912 639.789 694.793 641.255ZM674.551 624.363C675.458 628.132 676.924 621.711 676.575 620.385C675.807 616.825 674.202 622.618 674.551 624.363ZM701.843 617.662C703.588 621.222 704.076 615.638 703.448 613.893C702.401 611.101 700.447 614.661 701.843 617.662ZM693.257 651.725C688.202 651.999 683.225 650.382 679.297 647.188C678.529 652.702 688.511 656.122 693.257 651.725ZM712.592 739.882C705.612 741.139 698.632 742.535 692.071 744.349C698.283 743.931 704.565 743.163 710.777 742.325C708.125 747.351 705.193 752.167 702.122 756.913C697.894 753.171 694.164 748.902 691.024 744.21C693.048 748.956 699.051 761.101 704.425 757.402C706.31 755.936 714.755 739.184 712.592 739.882Z" fill="#2FDC18"/>
</svg>
