<svg width="86" height="86" viewBox="0 0 86 86" fill="none" xmlns="http://www.w3.org/2000/svg">
<path fill-rule="evenodd" clip-rule="evenodd" d="M5.375 21.5C5.375 17.0472 8.98471 13.4375 13.4375 13.4375H72.5625C77.0152 13.4375 80.625 17.0472 80.625 21.5V64.5C80.625 68.9526 77.0152 72.5625 72.5625 72.5625H13.4375C8.98471 72.5625 5.375 68.9526 5.375 64.5V21.5ZM10.75 57.5508V64.5C10.75 65.9842 11.9532 67.1875 13.4375 67.1875H72.5625C74.0467 67.1875 75.25 65.9842 75.25 64.5V57.5508L65.6133 47.9138C63.5142 45.8147 60.1108 45.8147 58.0117 47.9138L54.8633 51.0625L58.3377 54.5373C59.3873 55.5868 59.3873 57.2882 58.3377 58.3377C57.2882 59.3873 55.5868 59.3873 54.5373 58.3377L36.0508 39.8513C33.9516 37.7522 30.5484 37.7522 28.4493 39.8513L10.75 57.5508ZM47.0312 29.5625C47.0312 27.3361 48.8362 25.5312 51.0625 25.5312C53.2888 25.5312 55.0938 27.3361 55.0938 29.5625C55.0938 31.7889 53.2888 33.5938 51.0625 33.5938C48.8362 33.5938 47.0312 31.7889 47.0312 29.5625Z" fill="url(#paint0_linear_1507_14233)"/>
<defs>
<linearGradient id="paint0_linear_1507_14233" x1="5.375" y1="13.4375" x2="81.738" y2="90.7327" gradientUnits="userSpaceOnUse">
<stop stop-color="#C1D3FF" stop-opacity="0.13"/>
<stop offset="1" stop-color="#B5C9FF"/>
</linearGradient>
</defs>
</svg>
