<svg width="86" height="86" viewBox="0 0 86 86" fill="none" xmlns="http://www.w3.org/2000/svg">
<path fill-rule="evenodd" clip-rule="evenodd" d="M32.25 16.125C33.4499 16.125 34.5045 16.9204 34.8341 18.0742L37.7479 28.273C39.0236 32.7371 42.513 36.2264 46.9771 37.5021L57.1757 40.4161C58.3295 40.7457 59.125 41.7999 59.125 43C59.125 44.2001 58.3295 45.2543 57.1757 45.5839L46.9768 48.4979C42.513 49.7736 39.0236 53.263 37.7479 57.7271L34.8341 67.9257C34.5045 69.0795 33.4499 69.875 32.25 69.875C31.0501 69.875 29.9955 69.0795 29.6659 67.9257L26.7519 57.7271C25.4765 53.263 21.9871 49.7736 17.523 48.4979L7.32419 45.5839C6.17043 45.2543 5.375 44.2001 5.375 43C5.375 41.7999 6.17043 40.7457 7.32419 40.4161L17.523 37.5021C21.9871 36.2264 25.4765 32.7371 26.7519 28.273L29.6659 18.0742C29.9955 16.9204 31.0501 16.125 32.25 16.125Z" fill="url(#paint0_linear_1507_14237)"/>
<path fill-rule="evenodd" clip-rule="evenodd" d="M64.5 5.375C65.7334 5.375 66.808 6.21429 67.1072 7.41069L68.035 11.1211C68.8774 14.4912 71.5086 17.1226 74.8788 17.9651L78.5893 18.8927C79.7858 19.1918 80.625 20.2668 80.625 21.5C80.625 22.7332 79.7858 23.8082 78.5893 24.1073L74.8788 25.0349C71.5086 25.8774 68.8774 28.5088 68.035 31.8789L67.1072 35.5893C66.808 36.7858 65.7334 37.625 64.5 37.625C63.2666 37.625 62.192 36.7858 61.8928 35.5893L60.965 31.8789C60.1226 28.5088 57.4914 25.8774 54.1212 25.0349L50.4107 24.1073C49.2142 23.8082 48.375 22.7332 48.375 21.5C48.375 20.2668 49.2142 19.1918 50.4107 18.8927L54.1212 17.9651C57.4914 17.1226 60.1226 14.4912 60.965 11.1211L61.8928 7.41069C62.192 6.21429 63.2666 5.375 64.5 5.375Z" fill="url(#paint1_linear_1507_14237)"/>
<path fill-rule="evenodd" clip-rule="evenodd" d="M59.125 53.75C60.2817 53.75 61.3087 54.4903 61.6745 55.5875L63.0875 59.8259C63.6224 61.4309 64.8816 62.6901 66.4866 63.225L70.725 64.638C71.8222 65.0038 72.5625 66.0308 72.5625 67.1875C72.5625 68.3442 71.8222 69.3712 70.725 69.737L66.4866 71.1499C64.8816 71.6849 63.6224 72.9441 63.0875 74.5491L61.6745 78.7875C61.3087 79.8847 60.2817 80.625 59.125 80.625C57.9683 80.625 56.9413 79.8847 56.5755 78.7875L55.1626 74.5491C54.6276 72.9441 53.3684 71.6849 51.7634 71.1499L47.525 69.737C46.4278 69.3712 45.6875 68.3442 45.6875 67.1875C45.6875 66.0308 46.4278 65.0038 47.525 64.638L51.7634 63.225C53.3684 62.6901 54.6276 61.4309 55.1626 59.8259L56.5755 55.5875C56.9413 54.4903 57.9683 53.75 59.125 53.75Z" fill="url(#paint2_linear_1507_14237)"/>
<defs>
<linearGradient id="paint0_linear_1507_14237" x1="5.375" y1="5.375" x2="100.077" y2="80.6919" gradientUnits="userSpaceOnUse">
<stop stop-color="#C1D3FF" stop-opacity="0.13"/>
<stop offset="1" stop-color="#B5C9FF"/>
</linearGradient>
<linearGradient id="paint1_linear_1507_14237" x1="5.375" y1="5.375" x2="100.077" y2="80.6919" gradientUnits="userSpaceOnUse">
<stop stop-color="#C1D3FF" stop-opacity="0.13"/>
<stop offset="1" stop-color="#B5C9FF"/>
</linearGradient>
<linearGradient id="paint2_linear_1507_14237" x1="5.375" y1="5.375" x2="100.077" y2="80.6919" gradientUnits="userSpaceOnUse">
<stop stop-color="#C1D3FF" stop-opacity="0.13"/>
<stop offset="1" stop-color="#B5C9FF"/>
</linearGradient>
</defs>
</svg>
